G04*
G04 #@! TF.GenerationSoftware,Altium Limited,Altium Designer,22.6.1 (34)*
G04*
G04 Layer_Color=128*
%FSLAX44Y44*%
%MOMM*%
G71*
G04*
G04 #@! TF.SameCoordinates,26C179CA-CC13-4C43-A1D0-6E6A4FA8EE50*
G04*
G04*
G04 #@! TF.FilePolarity,Positive*
G04*
G01*
G75*
%ADD15C,0.2540*%
D15*
X627380Y145724D02*
G03*
X614680Y158424I-12700J0D01*
G01*
Y-31780D02*
G03*
X627380Y-19080I0J12700D01*
G01*
X86299Y-22800D02*
G03*
X107979Y-31780I21680J21680D01*
G01*
X107624Y158424D02*
G03*
X85943Y149443I0J-30661D01*
G01*
X63500Y-1D02*
G03*
X63500Y-0I0J0D01*
G01*
X63500Y-1D02*
G03*
X63500Y-0I0J0D01*
G01*
X-5080Y12700D02*
G03*
X7620Y0I12700J0D01*
G01*
Y127000D02*
G03*
X-5080Y114300I0J-12700D01*
G01*
X63500Y127000D02*
G03*
X63500Y127000I0J0D01*
G01*
X203110Y-31780D02*
X590505D01*
X193350Y158424D02*
X614680D01*
X590505Y-31780D02*
X614680D01*
X627380Y-19080D02*
Y145724D01*
X107979Y-31780D02*
X203110D01*
X63500Y-0D02*
X86299Y-22800D01*
X107624Y158424D02*
X193350D01*
X63500Y127000D02*
X85943Y149443D01*
X7620Y0D02*
X63500D01*
X-5080Y12700D02*
Y114300D01*
X7620Y127000D02*
X63500D01*
M02*
