G04*
G04 #@! TF.GenerationSoftware,Altium Limited,Altium Designer,22.6.1 (34)*
G04*
G04 Layer_Color=8421504*
%FSLAX44Y44*%
%MOMM*%
G71*
G04*
G04 #@! TF.SameCoordinates,26C179CA-CC13-4C43-A1D0-6E6A4FA8EE50*
G04*
G04*
G04 #@! TF.FilePolarity,Positive*
G04*
G01*
G75*
%ADD15C,0.2540*%
%ADD16R,5.5000X2.0000*%
%ADD17R,0.8500X0.9500*%
%ADD18R,1.7400X0.6400*%
%ADD19R,0.8000X0.2700*%
%ADD20R,0.9000X0.2700*%
%ADD21O,0.6000X1.5000*%
%ADD22O,1.5000X0.6000*%
%ADD23R,0.9500X0.8500*%
%ADD24R,0.6600X0.6200*%
%ADD25R,1.8000X1.1500*%
%ADD26R,1.0000X1.4500*%
%ADD27R,0.8000X0.8000*%
%ADD28R,1.1000X1.5000*%
%ADD29R,1.0000X1.0000*%
%ADD30R,1.0000X1.0000*%
%ADD31R,1.4500X1.0000*%
D15*
X627380Y145724D02*
G03*
X614680Y158424I-12700J0D01*
G01*
Y-31780D02*
G03*
X627380Y-19080I0J12700D01*
G01*
X86299Y-22800D02*
G03*
X107979Y-31780I21680J21680D01*
G01*
X107624Y158424D02*
G03*
X85943Y149443I0J-30661D01*
G01*
X63500Y-1D02*
G03*
X63500Y-0I0J0D01*
G01*
X63500Y-1D02*
G03*
X63500Y-0I0J0D01*
G01*
X-5080Y12700D02*
G03*
X7620Y0I12700J0D01*
G01*
Y127000D02*
G03*
X-5080Y114300I0J-12700D01*
G01*
X63500Y127000D02*
G03*
X63500Y127000I0J0D01*
G01*
X203110Y-31780D02*
X590505D01*
X193350Y158424D02*
X614680D01*
X590505Y-31780D02*
X614680D01*
X627380Y-19080D02*
Y145724D01*
X107979Y-31780D02*
X203110D01*
X63500Y-0D02*
X86299Y-22800D01*
X107624Y158424D02*
X193350D01*
X63500Y127000D02*
X85943Y149443D01*
X7620Y0D02*
X63500D01*
X-5080Y12700D02*
Y114300D01*
X7620Y127000D02*
X63500D01*
D16*
X245701Y-797D02*
D03*
X340701D02*
D03*
D17*
X287541Y147078D02*
D03*
X275041D02*
D03*
X214081Y56197D02*
D03*
X226581D02*
D03*
X387448Y141850D02*
D03*
X399948D02*
D03*
X389426Y43447D02*
D03*
X401926D02*
D03*
X388970Y88732D02*
D03*
X401470D02*
D03*
X223541Y144526D02*
D03*
X211041D02*
D03*
X223541Y123914D02*
D03*
X211041D02*
D03*
D18*
X605926Y92076D02*
D03*
Y82576D02*
D03*
Y73076D02*
D03*
Y63576D02*
D03*
Y54076D02*
D03*
Y44576D02*
D03*
Y35076D02*
D03*
D19*
X54882Y93092D02*
D03*
Y88092D02*
D03*
Y83092D02*
D03*
Y78092D02*
D03*
Y73092D02*
D03*
Y68092D02*
D03*
Y63092D02*
D03*
Y58092D02*
D03*
Y53092D02*
D03*
Y48092D02*
D03*
Y43092D02*
D03*
Y38092D02*
D03*
D20*
X70882Y35592D02*
D03*
Y40592D02*
D03*
Y45592D02*
D03*
Y50592D02*
D03*
Y55592D02*
D03*
Y60592D02*
D03*
Y65592D02*
D03*
Y70592D02*
D03*
Y75592D02*
D03*
Y80592D02*
D03*
Y85592D02*
D03*
Y90592D02*
D03*
D21*
X350059Y101416D02*
D03*
X337359D02*
D03*
X324659D02*
D03*
X311959D02*
D03*
X299259D02*
D03*
X286559D02*
D03*
X273859D02*
D03*
X350059Y47416D02*
D03*
X337359D02*
D03*
X324659D02*
D03*
X311959D02*
D03*
X299259D02*
D03*
X286559D02*
D03*
X273859D02*
D03*
D22*
X139878Y110035D02*
D03*
Y97335D02*
D03*
Y84635D02*
D03*
Y71935D02*
D03*
Y59235D02*
D03*
Y46535D02*
D03*
Y33835D02*
D03*
X193878Y110035D02*
D03*
Y97335D02*
D03*
Y84635D02*
D03*
Y71935D02*
D03*
Y59235D02*
D03*
Y46535D02*
D03*
Y33835D02*
D03*
D23*
X464652Y25124D02*
D03*
Y12624D02*
D03*
X564830Y74982D02*
D03*
Y87482D02*
D03*
X515452Y25124D02*
D03*
Y12624D02*
D03*
X490052Y25096D02*
D03*
Y12596D02*
D03*
D24*
X307422Y32161D02*
D03*
X298622D02*
D03*
X286859Y31851D02*
D03*
X278059D02*
D03*
D25*
X581404Y31786D02*
D03*
Y2786D02*
D03*
D26*
X113233Y62423D02*
D03*
X94233D02*
D03*
X113233Y42268D02*
D03*
X94233D02*
D03*
D27*
X273791Y132348D02*
D03*
X288791D02*
D03*
D28*
X515452Y-9670D02*
D03*
X490052D02*
D03*
X464652D02*
D03*
Y79330D02*
D03*
X490052D02*
D03*
X515452D02*
D03*
D29*
X120733Y109262D02*
D03*
Y123262D02*
D03*
X98733Y95012D02*
D03*
Y109012D02*
D03*
X256553Y70454D02*
D03*
Y56454D02*
D03*
X584708Y89886D02*
D03*
Y75886D02*
D03*
D30*
X594154Y-19080D02*
D03*
X580154D02*
D03*
X158128Y13554D02*
D03*
X172128D02*
D03*
D31*
X528750Y97933D02*
D03*
Y116933D02*
D03*
X497552Y116886D02*
D03*
Y97886D02*
D03*
X477265Y116824D02*
D03*
Y97824D02*
D03*
X449818Y116801D02*
D03*
Y97801D02*
D03*
M02*
