G04*
G04 #@! TF.GenerationSoftware,Altium Limited,Altium Designer,22.6.1 (34)*
G04*
G04 Layer_Color=65535*
%FSLAX44Y44*%
%MOMM*%
G71*
G04*
G04 #@! TF.SameCoordinates,26C179CA-CC13-4C43-A1D0-6E6A4FA8EE50*
G04*
G04*
G04 #@! TF.FilePolarity,Positive*
G04*
G01*
G75*
%ADD10C,0.4000*%
%ADD11C,0.2000*%
%ADD12C,0.2500*%
%ADD13C,0.2032*%
%ADD14C,0.2030*%
%ADD15C,0.2540*%
G36*
X412311Y17243D02*
X412273Y17328D01*
X412259Y17390D01*
X412250Y17427D01*
X412217Y17479D01*
X412179Y17564D01*
X412165Y17653D01*
X412155Y17691D01*
X412104Y17790D01*
X412085Y17866D01*
X412075Y17941D01*
X412009Y18082D01*
X412000Y18120D01*
X411986Y18238D01*
X411976Y18276D01*
X411957Y18323D01*
X411934Y18365D01*
X411915Y18431D01*
X411906Y18469D01*
X411892Y18606D01*
X411882Y18643D01*
X411858Y18723D01*
X411849Y18761D01*
X411830Y18827D01*
X411821Y18865D01*
X411802Y19053D01*
X411788Y19115D01*
X411759Y19190D01*
X411741Y19266D01*
X411731Y19322D01*
X411722Y19407D01*
X411712Y19586D01*
X411703Y19662D01*
X411693Y19718D01*
X411684Y19765D01*
X411665Y19841D01*
X411656Y19897D01*
X411637Y20086D01*
X411628Y20406D01*
X411618Y20585D01*
X411609Y20821D01*
X411599Y21019D01*
X411590Y21142D01*
X411580Y21405D01*
X411576Y21467D01*
X411585Y21495D01*
X411595Y21834D01*
X411604Y21863D01*
X411618Y22254D01*
X411628Y22433D01*
X411642Y22824D01*
X411651Y22853D01*
X411660Y22975D01*
X411670Y23003D01*
X411693Y23112D01*
X411703Y23150D01*
X411712Y23206D01*
X411731Y23480D01*
X411741Y23527D01*
X411750Y23564D01*
X411759Y23612D01*
X411769Y23649D01*
X411792Y23729D01*
X411802Y23767D01*
X411816Y23913D01*
X411825Y23998D01*
X411835Y24036D01*
X411854Y24083D01*
X411877Y24144D01*
X411896Y24220D01*
X411906Y24314D01*
X411920Y24403D01*
X411957Y24460D01*
X411972Y24512D01*
X411990Y24625D01*
X412000Y24663D01*
X412014Y24733D01*
X412066Y24832D01*
X412085Y24908D01*
X412099Y24978D01*
X412127Y25054D01*
X412141Y25068D01*
X412160Y25115D01*
X412170Y25153D01*
X412188Y25238D01*
X412235Y25304D01*
X412254Y25370D01*
X412268Y25431D01*
X412292Y25492D01*
X412330Y25549D01*
X412358Y25643D01*
X412368Y25681D01*
X412415Y25747D01*
X412452Y25832D01*
X412462Y25888D01*
X412518Y25945D01*
X412537Y25992D01*
X412551Y26053D01*
X412575Y26086D01*
X412603Y26114D01*
X412622Y26162D01*
X412650Y26237D01*
X412688Y26275D01*
X412697Y26294D01*
X412735Y26388D01*
X412749Y26411D01*
X412768Y26421D01*
X412792Y26444D01*
X412811Y26510D01*
X412820Y26548D01*
X412863Y26591D01*
X412877Y26595D01*
X412886Y26614D01*
X412905Y26661D01*
X412943Y26727D01*
X412971Y26755D01*
X413018Y26840D01*
X413075Y26897D01*
X413084Y26935D01*
X413103Y26953D01*
X413112Y26972D01*
X413150Y27001D01*
X413159Y27020D01*
X413178Y27067D01*
X413188Y27085D01*
X413244Y27142D01*
X413282Y27208D01*
X413339Y27265D01*
X413367Y27312D01*
X413414Y27359D01*
X413423Y27378D01*
X413466Y27439D01*
X413485Y27448D01*
X413508Y27472D01*
X413546Y27538D01*
X413621Y27613D01*
X413631Y27632D01*
X413664Y27675D01*
X413683Y27684D01*
X413706Y27708D01*
X413716Y27727D01*
X413749Y27769D01*
X413768Y27778D01*
X413810Y27821D01*
X413819Y27840D01*
X413843Y27863D01*
X413862Y27873D01*
X413928Y27957D01*
X413947Y27967D01*
X414031Y28052D01*
X414050Y28061D01*
X414083Y28094D01*
X414088Y28108D01*
X414107Y28118D01*
X414126Y28137D01*
X414145Y28146D01*
X414159Y28160D01*
X414168Y28179D01*
X414211Y28221D01*
X414229Y28231D01*
X414314Y28316D01*
X414361Y28344D01*
X414418Y28401D01*
X414437Y28410D01*
X414456Y28429D01*
X414475Y28438D01*
X414512Y28476D01*
X414531Y28486D01*
X414597Y28533D01*
X414625Y28570D01*
X414710Y28617D01*
X414724Y28632D01*
X414734Y28650D01*
X414748Y28665D01*
X414833Y28712D01*
X414852Y28731D01*
X414870Y28740D01*
X414955Y28787D01*
X414988Y28820D01*
X414998Y28839D01*
X415050Y28863D01*
X415116Y28900D01*
X415144Y28928D01*
X415210Y28957D01*
X415229Y28966D01*
X415281Y29009D01*
X415398Y29079D01*
X415417Y29098D01*
X415436Y29108D01*
X415502Y29136D01*
X415521Y29145D01*
X415573Y29188D01*
X415625Y29211D01*
X415662Y29221D01*
X415709Y29249D01*
X415738Y29277D01*
X415757Y29287D01*
X415804Y29306D01*
X415865Y29329D01*
X415922Y29367D01*
X415936Y29381D01*
X416054Y29423D01*
X416068Y29438D01*
X416087Y29447D01*
X416105Y29466D01*
X416124Y29475D01*
X416171Y29494D01*
X416223Y29508D01*
X416275Y29541D01*
X416360Y29579D01*
X416398Y29588D01*
X416464Y29626D01*
X416483Y29645D01*
X416549Y29664D01*
X416610Y29678D01*
X416657Y29697D01*
X416690Y29720D01*
X416775Y29758D01*
X416855Y29772D01*
X416930Y29819D01*
X416982Y29843D01*
X417048Y29852D01*
X417109Y29867D01*
X417209Y29918D01*
X417284Y29937D01*
X417336Y29951D01*
X417411Y29980D01*
X417510Y30022D01*
X417548Y30031D01*
X417647Y30046D01*
X417694Y30064D01*
X417793Y30107D01*
X417831Y30116D01*
X417920Y30131D01*
X417967Y30140D01*
X418005Y30149D01*
X418123Y30201D01*
X418217Y30211D01*
X418255Y30220D01*
X418326Y30234D01*
X418401Y30262D01*
X418462Y30286D01*
X418580Y30300D01*
X418637Y30310D01*
X418722Y30319D01*
X418759Y30329D01*
X418806Y30347D01*
X418868Y30371D01*
X418905Y30380D01*
X419028Y30390D01*
X419174Y30413D01*
X419221Y30423D01*
X419273Y30437D01*
X419367Y30465D01*
X419462Y30475D01*
X419584Y30484D01*
X419622Y30494D01*
X419730Y30508D01*
X419768Y30517D01*
X419820Y30531D01*
X419886Y30550D01*
X420008Y30559D01*
X420074Y30569D01*
X420225Y30578D01*
X420343Y30593D01*
X420447Y30611D01*
X420541Y30630D01*
X420598Y30640D01*
X420711Y30649D01*
X420805Y30659D01*
X421022Y30668D01*
X421173Y30677D01*
X421286Y30687D01*
X421371Y30696D01*
X421465Y30706D01*
X421503Y30715D01*
X421550Y30724D01*
X421795Y30734D01*
X421983Y30743D01*
X422483Y30753D01*
X438637Y30757D01*
X438670Y30734D01*
X438679Y30696D01*
X438675Y30390D01*
X438679Y30329D01*
X438670Y30300D01*
X438675Y23036D01*
X438670Y22928D01*
X438679Y22900D01*
X438670Y22645D01*
X438646Y22622D01*
X438552Y22612D01*
X422629Y22603D01*
X422601Y22593D01*
X422469Y22584D01*
X422441Y22575D01*
X422379Y22560D01*
X422304Y22551D01*
X422191Y22532D01*
X422040Y22523D01*
X421917Y22504D01*
X421880Y22494D01*
X421743Y22452D01*
X421630Y22433D01*
X421512Y22419D01*
X421404Y22367D01*
X421366Y22358D01*
X421295Y22344D01*
X421191Y22325D01*
X421144Y22306D01*
X421130Y22292D01*
X421064Y22263D01*
X420956Y22240D01*
X420909Y22221D01*
X420876Y22197D01*
X420810Y22169D01*
X420772Y22160D01*
X420711Y22146D01*
X420678Y22122D01*
X420621Y22084D01*
X420555Y22065D01*
X420518Y22056D01*
X420452Y22009D01*
X420386Y21981D01*
X420334Y21967D01*
X420301Y21943D01*
X420272Y21915D01*
X420206Y21886D01*
X420140Y21849D01*
X420112Y21820D01*
X420065Y21802D01*
X420004Y21778D01*
X419942Y21717D01*
X419905Y21707D01*
X419853Y21665D01*
X419843Y21646D01*
X419820Y21622D01*
X419801Y21613D01*
X419735Y21566D01*
X419650Y21481D01*
X419631Y21472D01*
X419580Y21420D01*
X419570Y21401D01*
X419547Y21377D01*
X419528Y21368D01*
X419514Y21354D01*
X419504Y21335D01*
X419485Y21316D01*
X419476Y21297D01*
X419452Y21274D01*
X419438Y21269D01*
X419429Y21250D01*
X419410Y21231D01*
X419400Y21212D01*
X419358Y21160D01*
X419325Y21127D01*
X419278Y21043D01*
X419259Y21024D01*
X419193Y20901D01*
X419174Y20892D01*
X419165Y20873D01*
X419146Y20826D01*
X419136Y20788D01*
X419089Y20703D01*
X419070Y20684D01*
X419056Y20633D01*
X419047Y20595D01*
X419019Y20519D01*
X418995Y20496D01*
X418967Y20430D01*
X418957Y20364D01*
X418934Y20265D01*
X418882Y20147D01*
X418868Y20039D01*
X418858Y19935D01*
X418849Y19888D01*
X418839Y19850D01*
X418825Y19798D01*
X418806Y19723D01*
X418797Y19657D01*
X418788Y19562D01*
X418778Y19383D01*
X418769Y18950D01*
X418783Y18445D01*
X418802Y18219D01*
X418811Y18162D01*
X418830Y18087D01*
X418839Y18031D01*
X418853Y17903D01*
X418863Y17866D01*
X418872Y17715D01*
X418882Y17687D01*
X418896Y17625D01*
X418915Y17578D01*
X418938Y17517D01*
X418948Y17451D01*
X418962Y17361D01*
X418971Y17323D01*
X419000Y17248D01*
X419042Y17149D01*
X419056Y17060D01*
X419066Y17022D01*
X419127Y16904D01*
X419136Y16866D01*
X419151Y16814D01*
X419184Y16763D01*
X419221Y16706D01*
X419235Y16654D01*
X419254Y16607D01*
X419278Y16574D01*
X419297Y16555D01*
X419315Y16508D01*
X419339Y16447D01*
X419363Y16414D01*
X419391Y16386D01*
X419410Y16338D01*
X419457Y16253D01*
X419476Y16235D01*
X419485Y16216D01*
X419523Y16150D01*
X419565Y16098D01*
X419580Y16084D01*
X419598Y16037D01*
X419631Y15994D01*
X419650Y15985D01*
X419674Y15961D01*
X419721Y15876D01*
X419777Y15820D01*
X419787Y15801D01*
X419806Y15782D01*
X419815Y15763D01*
X419853Y15726D01*
X419862Y15707D01*
X419881Y15688D01*
X419886Y15674D01*
X419905Y15664D01*
X419957Y15622D01*
X419999Y15570D01*
X420018Y15551D01*
X420037Y15542D01*
X420051Y15528D01*
X420060Y15509D01*
X420074Y15485D01*
X420093Y15476D01*
X420145Y15433D01*
X420197Y15381D01*
X420263Y15344D01*
X420320Y15287D01*
X420386Y15250D01*
X420423Y15202D01*
X420508Y15155D01*
X420536Y15117D01*
X420583Y15099D01*
X420649Y15061D01*
X420668Y15033D01*
X420687Y15023D01*
X420791Y14967D01*
X420819Y14938D01*
X420866Y14920D01*
X420951Y14872D01*
X420998Y14844D01*
X421059Y14820D01*
X421111Y14787D01*
X421130Y14769D01*
X421149Y14759D01*
X421196Y14740D01*
X421267Y14726D01*
X421319Y14693D01*
X421347Y14665D01*
X421423Y14646D01*
X421484Y14632D01*
X421517Y14608D01*
X421564Y14580D01*
X421630Y14561D01*
X421701Y14547D01*
X421748Y14528D01*
X421804Y14491D01*
X421856Y14476D01*
X421894Y14467D01*
X421960Y14458D01*
X422049Y14425D01*
X422063Y14411D01*
X422115Y14396D01*
X422163Y14387D01*
X422219Y14377D01*
X422295Y14368D01*
X422351Y14359D01*
X422389Y14349D01*
X422469Y14316D01*
X422521Y14302D01*
X422568Y14293D01*
X422643Y14283D01*
X422728Y14274D01*
X422870Y14246D01*
X422978Y14212D01*
X423044Y14203D01*
X423237Y14189D01*
X423350Y14180D01*
X423407Y14170D01*
X423454Y14161D01*
X423506Y14146D01*
X423671Y14123D01*
X423831Y14114D01*
X424048Y14104D01*
X424387Y14095D01*
X438514Y14090D01*
X438543Y14099D01*
X438613Y14085D01*
X438660Y14057D01*
X438670Y14019D01*
X438679Y13793D01*
X438670Y13765D01*
X438679Y13586D01*
X438670Y13406D01*
X438675Y6143D01*
X438670Y6100D01*
X438679Y6072D01*
X438670Y5987D01*
X438637Y5954D01*
X438599Y5945D01*
X423911Y5935D01*
X423883Y5926D01*
X423487Y5916D01*
X423459Y5907D01*
X423284Y5893D01*
X423006Y5879D01*
X422799Y5869D01*
X422497Y5860D01*
X422469Y5850D01*
X422398Y5836D01*
X422285Y5817D01*
X422238Y5808D01*
X422200Y5799D01*
X422144Y5789D01*
X421936Y5770D01*
X421889Y5761D01*
X421842Y5742D01*
X421790Y5719D01*
X421724Y5700D01*
X421602Y5690D01*
X421536Y5681D01*
X421474Y5657D01*
X421413Y5624D01*
X421375Y5615D01*
X421295Y5601D01*
X421239Y5591D01*
X421191Y5572D01*
X421092Y5520D01*
X421026Y5511D01*
X420989Y5502D01*
X420942Y5492D01*
X420838Y5426D01*
X420748Y5412D01*
X420701Y5393D01*
X420668Y5370D01*
X420565Y5322D01*
X420503Y5299D01*
X420461Y5257D01*
X420414Y5238D01*
X420353Y5214D01*
X420338Y5200D01*
X420324Y5195D01*
X420320Y5181D01*
X420301Y5172D01*
X420178Y5106D01*
X420140Y5068D01*
X420079Y5044D01*
X420008Y4974D01*
X419942Y4936D01*
X419895Y4889D01*
X419876Y4879D01*
X419792Y4814D01*
X419763Y4785D01*
X419744Y4776D01*
X419721Y4762D01*
X419711Y4743D01*
X419669Y4700D01*
X419650Y4691D01*
X419608Y4658D01*
X419598Y4639D01*
X419556Y4597D01*
X419537Y4587D01*
X419514Y4564D01*
X419504Y4545D01*
X419462Y4493D01*
X419400Y4432D01*
X419391Y4413D01*
X419334Y4356D01*
X419297Y4290D01*
X419249Y4243D01*
X419202Y4158D01*
X419174Y4130D01*
X419165Y4111D01*
X419146Y4064D01*
X419122Y4003D01*
X419108Y3989D01*
X419099Y3970D01*
X419080Y3951D01*
X419042Y3828D01*
X419023Y3781D01*
X418976Y3715D01*
X418957Y3640D01*
X418943Y3550D01*
X418934Y3512D01*
X418919Y3480D01*
X418872Y3376D01*
X418863Y3225D01*
X418853Y3197D01*
X418839Y3126D01*
X418811Y3013D01*
X418802Y2966D01*
X418788Y2838D01*
X418778Y2659D01*
X418769Y2197D01*
X418778Y1735D01*
X418788Y1641D01*
X418797Y1500D01*
X418806Y1471D01*
X418820Y1410D01*
X418830Y1363D01*
X418839Y1306D01*
X418849Y1259D01*
X418858Y1222D01*
X418868Y1052D01*
X418886Y948D01*
X418896Y910D01*
X418929Y830D01*
X418948Y755D01*
X418971Y599D01*
X418981Y552D01*
X419042Y434D01*
X419056Y354D01*
X419066Y317D01*
X419085Y269D01*
X419108Y246D01*
X419127Y199D01*
X419136Y161D01*
X419151Y90D01*
X419221Y-9D01*
X419240Y-75D01*
X419287Y-159D01*
X419315Y-207D01*
X419339Y-268D01*
X419391Y-320D01*
X419457Y-442D01*
X419485Y-471D01*
X419542Y-574D01*
X419580Y-612D01*
X419589Y-631D01*
X419655Y-716D01*
X419674Y-734D01*
X419711Y-800D01*
X419777Y-866D01*
X419787Y-885D01*
X419801Y-909D01*
X419820Y-918D01*
X419862Y-961D01*
X419872Y-980D01*
X419886Y-994D01*
X419905Y-1003D01*
X419924Y-1022D01*
X419938Y-1027D01*
X419947Y-1046D01*
X419990Y-1098D01*
X420008Y-1107D01*
X420060Y-1159D01*
X420070Y-1178D01*
X420084Y-1192D01*
X420103Y-1201D01*
X420187Y-1286D01*
X420206Y-1295D01*
X420272Y-1362D01*
X420291Y-1371D01*
X420343Y-1413D01*
X420376Y-1437D01*
X420461Y-1484D01*
X420518Y-1541D01*
X420621Y-1597D01*
X420631Y-1616D01*
X420678Y-1635D01*
X420739Y-1658D01*
X420800Y-1720D01*
X420866Y-1739D01*
X420932Y-1776D01*
X420961Y-1805D01*
X421036Y-1823D01*
X421083Y-1842D01*
X421135Y-1885D01*
X421149Y-1899D01*
X421215Y-1918D01*
X421276Y-1941D01*
X421319Y-1974D01*
X421366Y-1993D01*
X421404Y-2002D01*
X421465Y-2017D01*
X421540Y-2064D01*
X421602Y-2087D01*
X421691Y-2102D01*
X421729Y-2111D01*
X421762Y-2125D01*
X421818Y-2163D01*
X421884Y-2182D01*
X421979Y-2191D01*
X422054Y-2219D01*
X422158Y-2266D01*
X422295Y-2281D01*
X422351Y-2290D01*
X422389Y-2299D01*
X422497Y-2342D01*
X422535Y-2351D01*
X422601Y-2361D01*
X422747Y-2375D01*
X422860Y-2394D01*
X422936Y-2413D01*
X422987Y-2427D01*
X423053Y-2436D01*
X423148Y-2446D01*
X423185Y-2455D01*
X423468Y-2465D01*
X423497Y-2474D01*
X423614Y-2488D01*
X423661Y-2498D01*
X423699Y-2507D01*
X423822Y-2516D01*
X423897Y-2526D01*
X423991Y-2535D01*
X424142Y-2545D01*
X424529Y-2554D01*
X425000Y-2573D01*
X438505Y-2578D01*
X438533Y-2568D01*
X438618Y-2578D01*
X438651Y-2601D01*
X438670Y-2648D01*
X438675Y-2757D01*
X438670Y-2799D01*
X438679Y-2827D01*
X438670Y-3714D01*
X438675Y-10478D01*
X438670Y-10567D01*
X438679Y-10596D01*
X438670Y-10680D01*
X438646Y-10713D01*
X438599Y-10732D01*
X438335Y-10723D01*
X438307Y-10732D01*
X412575Y-10727D01*
X412306Y-10732D01*
X412264Y-10699D01*
X412245Y-10633D01*
X412254Y-10426D01*
X412245Y-2997D01*
X412235Y-2969D01*
X412264Y-2922D01*
X412306Y-2907D01*
X415733Y-2912D01*
X415790Y-2903D01*
X415823Y-2879D01*
X415827Y-2827D01*
X415808Y-2809D01*
X415799Y-2790D01*
X415742Y-2752D01*
X415691Y-2738D01*
X415629Y-2714D01*
X415611Y-2695D01*
X415601Y-2677D01*
X415578Y-2653D01*
X415540Y-2644D01*
X415479Y-2620D01*
X415427Y-2568D01*
X415332Y-2530D01*
X415281Y-2488D01*
X415266Y-2474D01*
X415182Y-2427D01*
X415135Y-2380D01*
X415116Y-2370D01*
X415050Y-2333D01*
X414998Y-2290D01*
X414927Y-2257D01*
X414903Y-2234D01*
X414894Y-2215D01*
X414880Y-2201D01*
X414814Y-2163D01*
X414790Y-2139D01*
X414781Y-2120D01*
X414701Y-2069D01*
X414654Y-2021D01*
X414635Y-2012D01*
X414569Y-1965D01*
X414512Y-1908D01*
X414465Y-1880D01*
X414451Y-1866D01*
X414442Y-1847D01*
X414427Y-1833D01*
X414408Y-1823D01*
X414357Y-1781D01*
X414347Y-1762D01*
X414324Y-1739D01*
X414305Y-1729D01*
X414272Y-1706D01*
X414262Y-1687D01*
X414211Y-1635D01*
X414192Y-1625D01*
X414168Y-1602D01*
X414159Y-1583D01*
X414145Y-1559D01*
X414126Y-1550D01*
X414107Y-1531D01*
X414093Y-1526D01*
X414083Y-1508D01*
X414041Y-1456D01*
X414022Y-1446D01*
X413980Y-1404D01*
X413970Y-1385D01*
X413947Y-1362D01*
X413928Y-1352D01*
X413914Y-1338D01*
X413904Y-1319D01*
X413843Y-1258D01*
X413829Y-1253D01*
X413819Y-1234D01*
X413801Y-1215D01*
X413791Y-1196D01*
X413725Y-1130D01*
X413716Y-1112D01*
X413673Y-1060D01*
X413640Y-1027D01*
X413631Y-1008D01*
X413584Y-942D01*
X413536Y-895D01*
X413499Y-829D01*
X413485Y-815D01*
X413466Y-805D01*
X413452Y-791D01*
X413442Y-772D01*
X413381Y-683D01*
X413367Y-669D01*
X413357Y-650D01*
X413291Y-565D01*
X413244Y-480D01*
X413178Y-414D01*
X413141Y-348D01*
X413112Y-320D01*
X413103Y-301D01*
X413046Y-197D01*
X412999Y-150D01*
X412976Y-89D01*
X412952Y-56D01*
X412933Y-37D01*
X412924Y-18D01*
X412905Y29D01*
X412858Y114D01*
X412830Y142D01*
X412797Y232D01*
X412749Y288D01*
X412735Y302D01*
X412726Y340D01*
X412697Y416D01*
X412641Y472D01*
X412613Y585D01*
X412556Y642D01*
X412537Y708D01*
X412523Y779D01*
X412481Y821D01*
X412471Y840D01*
X412452Y887D01*
X412438Y958D01*
X412405Y1010D01*
X412386Y1028D01*
X412368Y1076D01*
X412353Y1137D01*
X412335Y1184D01*
X412297Y1240D01*
X412283Y1255D01*
X412268Y1316D01*
X412259Y1363D01*
X412250Y1401D01*
X412231Y1448D01*
X412188Y1519D01*
X412174Y1580D01*
X412165Y1618D01*
X412137Y1693D01*
X412122Y1707D01*
X412094Y1773D01*
X412085Y1811D01*
X412075Y1877D01*
X412066Y1933D01*
X412047Y1952D01*
X412038Y1971D01*
X412009Y1999D01*
X411990Y2131D01*
X411976Y2183D01*
X411957Y2230D01*
X411915Y2329D01*
X411906Y2395D01*
X411896Y2490D01*
X411873Y2551D01*
X411840Y2612D01*
X411821Y2678D01*
X411811Y2801D01*
X411797Y2890D01*
X411788Y2928D01*
X411769Y2975D01*
X411745Y3055D01*
X411736Y3093D01*
X411726Y3216D01*
X411717Y3282D01*
X411703Y3428D01*
X411684Y3522D01*
X411656Y3635D01*
X411646Y3682D01*
X411637Y3776D01*
X411628Y4040D01*
X411618Y4172D01*
X411609Y4399D01*
X411599Y4550D01*
X411590Y4653D01*
X411585Y5129D01*
X411595Y5157D01*
X411604Y5506D01*
X411613Y5629D01*
X411628Y5832D01*
X411637Y6114D01*
X411646Y6265D01*
X411656Y6322D01*
X411684Y6463D01*
X411693Y6501D01*
X411703Y6548D01*
X411717Y6675D01*
X411731Y6850D01*
X411741Y6935D01*
X411755Y7024D01*
X411774Y7043D01*
X411792Y7090D01*
X411802Y7156D01*
X411816Y7312D01*
X411830Y7401D01*
X411868Y7486D01*
X411887Y7533D01*
X411906Y7693D01*
X411915Y7769D01*
X411953Y7825D01*
X411967Y7877D01*
X411986Y7953D01*
X412005Y8075D01*
X412014Y8113D01*
X412066Y8221D01*
X412075Y8259D01*
X412089Y8320D01*
X412108Y8396D01*
X412127Y8443D01*
X412141Y8457D01*
X412160Y8504D01*
X412170Y8542D01*
X412184Y8641D01*
X412217Y8693D01*
X412254Y8749D01*
X412264Y8815D01*
X412283Y8900D01*
X412330Y8966D01*
X412349Y9013D01*
X412363Y9065D01*
X412372Y9103D01*
X412429Y9197D01*
X412443Y9249D01*
X412452Y9287D01*
X412471Y9334D01*
X412518Y9381D01*
X412537Y9456D01*
X412547Y9513D01*
X412565Y9532D01*
X412575Y9551D01*
X412613Y9588D01*
X412622Y9626D01*
X412646Y9687D01*
X412669Y9720D01*
X412688Y9739D01*
X412697Y9758D01*
X412726Y9824D01*
X412740Y9876D01*
X412763Y9909D01*
X412792Y9937D01*
X412811Y9984D01*
X412834Y10046D01*
X412867Y10079D01*
X412877Y10098D01*
X412933Y10201D01*
X412971Y10239D01*
X412990Y10286D01*
X413018Y10333D01*
X413056Y10371D01*
X413084Y10437D01*
X413093Y10456D01*
X413136Y10508D01*
X413150Y10512D01*
X413159Y10531D01*
X413207Y10616D01*
X413235Y10644D01*
X413244Y10663D01*
X413291Y10729D01*
X413348Y10786D01*
X413357Y10823D01*
X413390Y10856D01*
X413409Y10866D01*
X413433Y10889D01*
X413470Y10955D01*
X413527Y11012D01*
X413536Y11031D01*
X413579Y11083D01*
X413602Y11106D01*
X413612Y11125D01*
X413631Y11144D01*
X413640Y11163D01*
X413673Y11196D01*
X413692Y11205D01*
X413730Y11262D01*
X413768Y11299D01*
X413786Y11309D01*
X413801Y11323D01*
X413810Y11342D01*
X413834Y11375D01*
X413852Y11384D01*
X413937Y11469D01*
X413956Y11479D01*
X413980Y11502D01*
X413989Y11521D01*
X414041Y11573D01*
X414060Y11582D01*
X414083Y11606D01*
X414093Y11625D01*
X414126Y11658D01*
X414145Y11667D01*
X414187Y11700D01*
X414196Y11719D01*
X414211Y11733D01*
X414229Y11743D01*
X414248Y11761D01*
X414267Y11771D01*
X414291Y11794D01*
X414300Y11813D01*
X414371Y11856D01*
X414390Y11865D01*
X414423Y11898D01*
X414432Y11917D01*
X414508Y11964D01*
X414526Y11983D01*
X414536Y12002D01*
X414550Y12016D01*
X414569Y12025D01*
X414630Y12068D01*
X414640Y12087D01*
X414710Y12129D01*
X414729Y12139D01*
X414786Y12195D01*
X414870Y12242D01*
X414918Y12289D01*
X414965Y12308D01*
X415017Y12351D01*
X415040Y12374D01*
X415087Y12393D01*
X415135Y12421D01*
X415163Y12450D01*
X415266Y12506D01*
X415295Y12534D01*
X415314Y12544D01*
X415436Y12610D01*
X415464Y12638D01*
X415526Y12662D01*
X415601Y12709D01*
X415615Y12723D01*
X415662Y12742D01*
X415724Y12765D01*
X415747Y12789D01*
X415766Y12798D01*
X415785Y12817D01*
X415837Y12831D01*
X415874Y12841D01*
X415931Y12869D01*
X415974Y12911D01*
X416040Y12930D01*
X416124Y12977D01*
X416143Y12996D01*
X416204Y13010D01*
X416237Y13025D01*
X416261Y13048D01*
X416252Y13095D01*
X416237Y13110D01*
X416200Y13119D01*
X416134Y13157D01*
X416105Y13185D01*
X416044Y13199D01*
X415997Y13218D01*
X415978Y13237D01*
X415969Y13256D01*
X415945Y13279D01*
X415893Y13293D01*
X415846Y13312D01*
X415794Y13364D01*
X415747Y13383D01*
X415700Y13411D01*
X415653Y13458D01*
X415592Y13482D01*
X415578Y13496D01*
X415559Y13505D01*
X415530Y13534D01*
X415483Y13553D01*
X415417Y13590D01*
X415380Y13628D01*
X415295Y13675D01*
X415248Y13722D01*
X415229Y13732D01*
X415163Y13769D01*
X415116Y13816D01*
X415031Y13864D01*
X414993Y13901D01*
X414974Y13911D01*
X414908Y13958D01*
X414861Y14005D01*
X414795Y14043D01*
X414748Y14090D01*
X414729Y14099D01*
X414644Y14165D01*
X414625Y14184D01*
X414607Y14194D01*
X414555Y14236D01*
X414522Y14269D01*
X414503Y14279D01*
X414484Y14297D01*
X414465Y14307D01*
X414442Y14330D01*
X414437Y14345D01*
X414418Y14354D01*
X414357Y14396D01*
X414347Y14415D01*
X414314Y14458D01*
X414267Y14486D01*
X414192Y14561D01*
X414173Y14571D01*
X414079Y14665D01*
X414064Y14670D01*
X414055Y14689D01*
X414022Y14722D01*
X414003Y14731D01*
X413980Y14755D01*
X413970Y14773D01*
X413918Y14825D01*
X413899Y14835D01*
X413881Y14854D01*
X413862Y14863D01*
X413815Y14920D01*
X413801Y14934D01*
X413796Y14948D01*
X413782Y14952D01*
X413772Y14971D01*
X413735Y15009D01*
X413725Y15028D01*
X413683Y15080D01*
X413664Y15089D01*
X413621Y15132D01*
X413593Y15179D01*
X413579Y15193D01*
X413560Y15202D01*
X413536Y15226D01*
X413527Y15245D01*
X413452Y15320D01*
X413442Y15339D01*
X413400Y15391D01*
X413357Y15433D01*
X413310Y15518D01*
X413263Y15565D01*
X413235Y15612D01*
X413178Y15669D01*
X413141Y15735D01*
X413093Y15782D01*
X413042Y15881D01*
X413023Y15891D01*
X412980Y15961D01*
X412947Y16022D01*
X412929Y16032D01*
X412886Y16103D01*
X412877Y16140D01*
X412839Y16178D01*
X412830Y16197D01*
X412763Y16320D01*
X412735Y16348D01*
X412712Y16409D01*
X412697Y16442D01*
X412655Y16494D01*
X412641Y16508D01*
X412627Y16569D01*
X412617Y16607D01*
X412584Y16659D01*
X412565Y16678D01*
X412556Y16697D01*
X412537Y16744D01*
X412514Y16805D01*
X412490Y16838D01*
X412452Y16895D01*
X412438Y16965D01*
X412419Y17012D01*
X412386Y17045D01*
X412368Y17092D01*
X412358Y17130D01*
X412344Y17191D01*
X412316Y17239D01*
X412311Y17243D01*
D02*
G37*
G36*
X431378Y79695D02*
X431415Y79685D01*
X437661Y79690D01*
X437826Y79685D01*
X437854Y79695D01*
X437930Y79685D01*
X437953Y79662D01*
X438005Y79516D01*
X438019Y79501D01*
X438048Y79436D01*
X438057Y79370D01*
X438071Y79308D01*
X438090Y79261D01*
X438132Y79162D01*
X438170Y78983D01*
X438217Y78879D01*
X438227Y78842D01*
X438236Y78747D01*
X438246Y78710D01*
X438288Y78592D01*
X438312Y78530D01*
X438321Y78493D01*
X438330Y78398D01*
X438344Y78299D01*
X438363Y78252D01*
X438406Y78153D01*
X438429Y77922D01*
X438439Y77866D01*
X438448Y77828D01*
X438467Y77781D01*
X438481Y77729D01*
X438491Y77691D01*
X438500Y77625D01*
X438519Y77371D01*
X438528Y77333D01*
X438538Y77267D01*
X438557Y77220D01*
X438571Y77130D01*
X438580Y77083D01*
X438594Y76956D01*
X438609Y76725D01*
X438618Y76621D01*
X438637Y76452D01*
X438656Y76339D01*
X438665Y76291D01*
X438679Y76164D01*
X438689Y76013D01*
X438703Y75566D01*
X438722Y75311D01*
X438731Y75132D01*
X438741Y75094D01*
X438750Y74887D01*
X438759Y74727D01*
X438769Y74199D01*
X438773Y73817D01*
X438764Y73788D01*
X438755Y73204D01*
X438745Y73176D01*
X438736Y72921D01*
X438726Y72893D01*
X438712Y72709D01*
X438703Y72596D01*
X438693Y72445D01*
X438684Y72191D01*
X438675Y72068D01*
X438656Y71945D01*
X438646Y71908D01*
X438627Y71814D01*
X438618Y71757D01*
X438604Y71630D01*
X438594Y71535D01*
X438585Y71356D01*
X438576Y71328D01*
X438538Y71205D01*
X438528Y71168D01*
X438519Y71073D01*
X438509Y71036D01*
X438486Y70786D01*
X438443Y70706D01*
X438434Y70668D01*
X438425Y70574D01*
X438415Y70536D01*
X438406Y70413D01*
X438349Y70291D01*
X438340Y70253D01*
X438330Y70187D01*
X438321Y70149D01*
X438312Y70046D01*
X438274Y69980D01*
X438255Y69914D01*
X438241Y69843D01*
X438222Y69739D01*
X438213Y69702D01*
X438170Y69622D01*
X438151Y69556D01*
X438128Y69457D01*
X438109Y69409D01*
X438066Y69310D01*
X438057Y69273D01*
X438033Y69174D01*
X437982Y69075D01*
X437963Y69009D01*
X437949Y68948D01*
X437901Y68872D01*
X437878Y68811D01*
X437864Y68750D01*
X437817Y68674D01*
X437793Y68613D01*
X437774Y68528D01*
X437732Y68476D01*
X437699Y68396D01*
X437671Y68321D01*
X437623Y68255D01*
X437590Y68165D01*
X437557Y68113D01*
X437538Y68094D01*
X437501Y68000D01*
X437472Y67953D01*
X437454Y67934D01*
X437425Y67868D01*
X437402Y67807D01*
X437350Y67755D01*
X437331Y67708D01*
X437293Y67642D01*
X437265Y67614D01*
X437209Y67510D01*
X437171Y67472D01*
X437147Y67411D01*
X437114Y67359D01*
X437077Y67321D01*
X437029Y67236D01*
X436982Y67189D01*
X436935Y67105D01*
X436916Y67086D01*
X436907Y67067D01*
X436888Y67048D01*
X436860Y67001D01*
X436794Y66935D01*
X436766Y66888D01*
X436709Y66831D01*
X436681Y66784D01*
X436624Y66727D01*
X436596Y66680D01*
X436563Y66647D01*
X436549Y66643D01*
X436539Y66624D01*
X436520Y66605D01*
X436511Y66586D01*
X436138Y66214D01*
X436120Y66204D01*
X436035Y66119D01*
X436016Y66110D01*
X436002Y66096D01*
X435997Y66082D01*
X435978Y66072D01*
X435959Y66053D01*
X435941Y66044D01*
X435889Y66002D01*
X435846Y65959D01*
X435827Y65950D01*
X435761Y65884D01*
X435695Y65846D01*
X435639Y65789D01*
X435620Y65780D01*
X435531Y65719D01*
X435507Y65695D01*
X435422Y65648D01*
X435394Y65620D01*
X435375Y65610D01*
X435290Y65563D01*
X435252Y65525D01*
X435233Y65516D01*
X435149Y65469D01*
X435120Y65441D01*
X435102Y65431D01*
X434998Y65375D01*
X434979Y65356D01*
X434913Y65328D01*
X434847Y65290D01*
X434828Y65271D01*
X434809Y65262D01*
X434743Y65233D01*
X434682Y65210D01*
X434668Y65195D01*
X434649Y65186D01*
X434630Y65167D01*
X434512Y65125D01*
X434489Y65101D01*
X434470Y65092D01*
X434404Y65064D01*
X434314Y65030D01*
X434215Y64979D01*
X434126Y64946D01*
X434093Y64932D01*
X434036Y64894D01*
X433984Y64880D01*
X433937Y64870D01*
X433862Y64851D01*
X433829Y64828D01*
X433744Y64790D01*
X433655Y64776D01*
X433617Y64767D01*
X433513Y64719D01*
X433475Y64710D01*
X433334Y64682D01*
X433296Y64672D01*
X433249Y64653D01*
X433169Y64620D01*
X433131Y64611D01*
X432985Y64597D01*
X432929Y64587D01*
X432853Y64559D01*
X432773Y64536D01*
X432707Y64526D01*
X432613Y64517D01*
X432547Y64507D01*
X432452Y64498D01*
X432354Y64474D01*
X432292Y64451D01*
X432141Y64441D01*
X432113Y64432D01*
X431835Y64418D01*
X431712Y64408D01*
X431618Y64399D01*
X431486Y64389D01*
X431411Y64380D01*
X431326Y64371D01*
X430883Y64361D01*
X426089Y64356D01*
X426080D01*
X419919Y64361D01*
X419848Y64356D01*
X419820Y64366D01*
X419655Y64361D01*
X419518Y64366D01*
X419457Y64333D01*
X419438Y64286D01*
X419443Y63197D01*
X419424Y63169D01*
X419405Y63159D01*
X419301Y63103D01*
X419282Y63084D01*
X419216Y63074D01*
X419179Y63065D01*
X419108Y63051D01*
X418990Y62990D01*
X418877Y62961D01*
X418736Y62895D01*
X418623Y62867D01*
X418571Y62825D01*
X418509Y62801D01*
X418434Y62792D01*
X418344Y62730D01*
X418283Y62707D01*
X418231Y62692D01*
X418198Y62678D01*
X418132Y62631D01*
X418095Y62622D01*
X418005Y62589D01*
X417934Y62537D01*
X417897Y62527D01*
X417835Y62504D01*
X417779Y62466D01*
X417727Y62443D01*
X417680Y62424D01*
X417633Y62396D01*
X417576Y62358D01*
X417510Y62339D01*
X417449Y62315D01*
X417416Y62282D01*
X417350Y62254D01*
X417289Y62231D01*
X417275Y62216D01*
X417256Y62207D01*
X417227Y62179D01*
X417133Y62141D01*
X417048Y62084D01*
X416987Y62061D01*
X416930Y62023D01*
X416916Y62009D01*
X416897Y62000D01*
X416775Y61934D01*
X416756Y61915D01*
X416633Y61849D01*
X416605Y61821D01*
X416464Y61745D01*
X416445Y61726D01*
X416341Y61670D01*
X416303Y61632D01*
X416237Y61604D01*
X416219Y61594D01*
X416167Y61552D01*
X416153Y61538D01*
X416134Y61528D01*
X416068Y61491D01*
X416002Y61443D01*
X415955Y61415D01*
X415936Y61396D01*
X415917Y61387D01*
X415889Y61359D01*
X415804Y61311D01*
X415766Y61274D01*
X415681Y61227D01*
X415634Y61179D01*
X415549Y61132D01*
X415502Y61085D01*
X415436Y61048D01*
X415389Y61000D01*
X415370Y60991D01*
X415304Y60953D01*
X415248Y60897D01*
X415182Y60859D01*
X415158Y60826D01*
X415144Y60812D01*
X415078Y60774D01*
X415031Y60727D01*
X415012Y60718D01*
X414960Y60675D01*
X414936Y60642D01*
X414852Y60595D01*
X414795Y60538D01*
X414729Y60501D01*
X414706Y60468D01*
X414682Y60444D01*
X414663Y60435D01*
X414611Y60392D01*
X414602Y60373D01*
X414517Y60307D01*
X414508Y60289D01*
X414493Y60274D01*
X414475Y60265D01*
X414423Y60223D01*
X414413Y60204D01*
X414399Y60190D01*
X414380Y60180D01*
X414361Y60161D01*
X414343Y60152D01*
X414319Y60128D01*
X414310Y60109D01*
X414277Y60086D01*
X414201Y60010D01*
X414182Y60001D01*
X414140Y59959D01*
X414130Y59940D01*
X414107Y59916D01*
X414088Y59907D01*
X414036Y59864D01*
X413975Y59803D01*
X413956Y59794D01*
X413914Y59751D01*
X413904Y59732D01*
X413881Y59709D01*
X413862Y59699D01*
X413725Y59563D01*
X413716Y59544D01*
X413664Y59492D01*
X413645Y59482D01*
X413631Y59468D01*
X413621Y59450D01*
X413536Y59365D01*
X413527Y59346D01*
X413508Y59327D01*
X413499Y59308D01*
X413485Y59294D01*
X413466Y59285D01*
X413414Y59233D01*
X413405Y59214D01*
X413273Y59082D01*
X413263Y59063D01*
X413244Y59044D01*
X413235Y59025D01*
X413211Y59002D01*
X413192Y58992D01*
X413178Y58978D01*
X413169Y58959D01*
X413126Y58907D01*
X413108Y58898D01*
X413084Y58875D01*
X413056Y58827D01*
X412990Y58761D01*
X412980Y58742D01*
X412914Y58677D01*
X412905Y58658D01*
X412858Y58592D01*
X412811Y58545D01*
X412773Y58478D01*
X412759Y58464D01*
X412740Y58455D01*
X412726Y58441D01*
X412688Y58375D01*
X412631Y58318D01*
X412594Y58252D01*
X412537Y58196D01*
X412500Y58130D01*
X412481Y58111D01*
X412471Y58092D01*
X412434Y58026D01*
X412410Y58002D01*
X412372Y57993D01*
X412339Y58017D01*
X412330Y58083D01*
X412339Y58120D01*
X412344Y58342D01*
X412339Y58827D01*
X412349Y58856D01*
X412339Y58950D01*
X412344Y59153D01*
X412339Y64229D01*
X412349Y64257D01*
X412339Y64286D01*
X412330Y64333D01*
X412306Y64356D01*
X412268Y64366D01*
X412165Y64356D01*
X412137Y64366D01*
X412071Y64356D01*
X405269Y64361D01*
X405160Y64356D01*
X405108Y64399D01*
X405090Y64446D01*
X405094Y64884D01*
X405090Y64974D01*
X405099Y65002D01*
X405094Y72247D01*
X405099Y72365D01*
X405090Y72393D01*
X405099Y72478D01*
X405141Y72520D01*
X405198Y72530D01*
X405226Y72520D01*
X405292Y72511D01*
X405481Y72520D01*
X405509Y72511D01*
X412217Y72516D01*
X412297Y72511D01*
X412339Y72544D01*
X412358Y72591D01*
X412368Y79662D01*
X412391Y79685D01*
X412429Y79695D01*
X412551Y79685D01*
X412570Y79695D01*
X412598Y79685D01*
X419372Y79690D01*
X419405Y79676D01*
X419429Y79652D01*
X419438Y79615D01*
X419448Y72582D01*
X419490Y72530D01*
X419518Y72520D01*
X419556Y72511D01*
X419994Y72516D01*
X427456Y72511D01*
X427484Y72520D01*
X427776Y72530D01*
X427805Y72539D01*
X428088Y72549D01*
X428116Y72558D01*
X428144Y72549D01*
X428267Y72558D01*
X428564Y72572D01*
X428743Y72582D01*
X428913Y72610D01*
X428950Y72620D01*
X428997Y72629D01*
X429125Y72643D01*
X429445Y72681D01*
X429549Y72728D01*
X429615Y72737D01*
X429653Y72747D01*
X429742Y72761D01*
X429780Y72770D01*
X429898Y72822D01*
X430006Y72846D01*
X430086Y72888D01*
X430152Y72916D01*
X430190Y72926D01*
X430242Y72940D01*
X430294Y72973D01*
X430312Y72992D01*
X430360Y73011D01*
X430449Y73044D01*
X430492Y73086D01*
X430558Y73114D01*
X430624Y73152D01*
X430642Y73171D01*
X430661Y73180D01*
X430727Y73218D01*
X430784Y73275D01*
X430803Y73284D01*
X430892Y73345D01*
X430902Y73364D01*
X430925Y73388D01*
X430944Y73397D01*
X430977Y73430D01*
X430987Y73449D01*
X431038Y73501D01*
X431053Y73506D01*
X431062Y73524D01*
X431166Y73628D01*
X431175Y73647D01*
X431217Y73699D01*
X431241Y73723D01*
X431250Y73741D01*
X431288Y73807D01*
X431345Y73864D01*
X431364Y73911D01*
X431401Y73977D01*
X431439Y74015D01*
X431458Y74081D01*
X431496Y74147D01*
X431515Y74166D01*
X431543Y74232D01*
X431557Y74283D01*
X431590Y74335D01*
X431628Y74392D01*
X431642Y74491D01*
X431651Y74528D01*
X431703Y74637D01*
X431722Y74712D01*
X431745Y74849D01*
X431755Y74887D01*
X431797Y74986D01*
X431816Y75146D01*
X431826Y75184D01*
X431835Y75335D01*
X431844Y75363D01*
X431868Y75471D01*
X431877Y75528D01*
X431887Y75603D01*
X431901Y75881D01*
X431910Y76258D01*
X431901Y76994D01*
X431892Y77022D01*
X431877Y77206D01*
X431858Y77328D01*
X431849Y77404D01*
X431835Y77531D01*
X431826Y77597D01*
X431811Y77819D01*
X431797Y78012D01*
X431788Y78040D01*
X431774Y78139D01*
X431764Y78177D01*
X431750Y78229D01*
X431741Y78267D01*
X431722Y78455D01*
X431712Y78493D01*
X431698Y78545D01*
X431637Y78747D01*
X431628Y78785D01*
X431618Y78860D01*
X431571Y78936D01*
X431552Y79002D01*
X431543Y79040D01*
X431515Y79115D01*
X431477Y79172D01*
X431458Y79219D01*
X431434Y79280D01*
X431411Y79313D01*
X431392Y79332D01*
X431382Y79351D01*
X431354Y79417D01*
X431345Y79436D01*
X431288Y79492D01*
X431279Y79511D01*
X431260Y79530D01*
X431250Y79549D01*
X431222Y79577D01*
X431213Y79596D01*
X431194Y79643D01*
X431213Y79690D01*
X431255Y79704D01*
X431378Y79695D01*
D02*
G37*
G36*
X425335Y62207D02*
X425537Y62193D01*
X425816Y62179D01*
X425853Y62169D01*
X426226Y62155D01*
X426504Y62141D01*
X426664Y62113D01*
X426702Y62103D01*
X426815Y62084D01*
X426881Y62075D01*
X427046Y62061D01*
X427131Y62052D01*
X427234Y62042D01*
X427272Y62033D01*
X427324Y62009D01*
X427456Y61990D01*
X427494Y61981D01*
X427616Y61971D01*
X427682Y61962D01*
X427743Y61948D01*
X427819Y61919D01*
X427871Y61905D01*
X427937Y61896D01*
X428031Y61887D01*
X428097Y61877D01*
X428158Y61863D01*
X428234Y61835D01*
X428276Y61821D01*
X428314Y61811D01*
X428380Y61802D01*
X428418Y61792D01*
X428502Y61783D01*
X428606Y61736D01*
X428681Y61717D01*
X428762Y61703D01*
X428818Y61693D01*
X428856Y61684D01*
X428903Y61665D01*
X428983Y61632D01*
X429059Y61613D01*
X429115Y61604D01*
X429143Y61594D01*
X429228Y61557D01*
X429275Y61538D01*
X429389Y61519D01*
X429440Y61505D01*
X429511Y61453D01*
X429624Y61434D01*
X429662Y61424D01*
X429709Y61406D01*
X429728Y61396D01*
X429785Y61359D01*
X429836Y61344D01*
X429883Y61335D01*
X429921Y61326D01*
X429968Y61307D01*
X429982Y61293D01*
X430001Y61283D01*
X430067Y61255D01*
X430143Y61245D01*
X430237Y61179D01*
X430350Y61151D01*
X430454Y61085D01*
X430506Y61071D01*
X430543Y61062D01*
X430680Y60991D01*
X430741Y60967D01*
X430817Y60920D01*
X430939Y60873D01*
X431057Y60812D01*
X431180Y60746D01*
X431265Y60708D01*
X431349Y60661D01*
X431453Y60614D01*
X431500Y60585D01*
X431529Y60557D01*
X431595Y60529D01*
X431656Y60505D01*
X431689Y60472D01*
X431708Y60463D01*
X431774Y60435D01*
X431840Y60397D01*
X431868Y60369D01*
X431972Y60312D01*
X431991Y60293D01*
X432009Y60284D01*
X432113Y60227D01*
X432141Y60199D01*
X432207Y60171D01*
X432273Y60133D01*
X432311Y60095D01*
X432372Y60072D01*
X432424Y60039D01*
X432462Y60001D01*
X432566Y59945D01*
X432584Y59926D01*
X432603Y59916D01*
X432660Y59879D01*
X432679Y59869D01*
X432716Y59831D01*
X432735Y59822D01*
X432801Y59784D01*
X432853Y59742D01*
X432867Y59728D01*
X432933Y59690D01*
X432971Y59652D01*
X432990Y59643D01*
X433009Y59624D01*
X433075Y59586D01*
X433122Y59539D01*
X433188Y59501D01*
X433216Y59473D01*
X433235Y59464D01*
X433320Y59398D01*
X433348Y59369D01*
X433367Y59360D01*
X433433Y59313D01*
X433471Y59266D01*
X433537Y59228D01*
X433584Y59181D01*
X433650Y59143D01*
X433725Y59068D01*
X433744Y59058D01*
X433796Y59016D01*
X433829Y58983D01*
X433848Y58973D01*
X434008Y58813D01*
X434055Y58785D01*
X434069Y58771D01*
X434079Y58752D01*
X434112Y58719D01*
X434131Y58710D01*
X434215Y58625D01*
X434234Y58615D01*
X434248Y58601D01*
X434258Y58582D01*
X434291Y58549D01*
X434310Y58540D01*
X434328Y58521D01*
X434343Y58516D01*
X434352Y58497D01*
X434371Y58478D01*
X434376Y58464D01*
X434394Y58455D01*
X434541Y58309D01*
X434545Y58295D01*
X434564Y58285D01*
X434583Y58266D01*
X434602Y58257D01*
X434616Y58243D01*
X434626Y58224D01*
X434710Y58139D01*
X434720Y58120D01*
X434762Y58078D01*
X434781Y58068D01*
X434805Y58035D01*
X434819Y58012D01*
X434838Y58002D01*
X434889Y57951D01*
X434899Y57932D01*
X434974Y57856D01*
X434984Y57838D01*
X435026Y57795D01*
X435045Y57786D01*
X435092Y57720D01*
X435111Y57710D01*
X435135Y57687D01*
X435144Y57668D01*
X435186Y57616D01*
X435229Y57573D01*
X435238Y57555D01*
X435304Y57470D01*
X435342Y57432D01*
X435370Y57385D01*
X435384Y57371D01*
X435403Y57361D01*
X435455Y57281D01*
X435479Y57258D01*
X435498Y57248D01*
X435549Y57168D01*
X435592Y57116D01*
X435606Y57102D01*
X435634Y57055D01*
X435677Y57003D01*
X435691Y56989D01*
X435728Y56923D01*
X435752Y56899D01*
X435766Y56895D01*
X435776Y56876D01*
X435794Y56857D01*
X435813Y56810D01*
X435856Y56758D01*
X435879Y56734D01*
X435917Y56669D01*
X435955Y56631D01*
X435964Y56612D01*
X436025Y56522D01*
X436040Y56508D01*
X436049Y56489D01*
X436087Y56433D01*
X436096Y56414D01*
X436115Y56395D01*
X436124Y56376D01*
X436143Y56357D01*
X436162Y56310D01*
X436171Y56291D01*
X436214Y56240D01*
X436228Y56225D01*
X436294Y56103D01*
X436322Y56075D01*
X436379Y55971D01*
X436407Y55943D01*
X436473Y55820D01*
X436502Y55792D01*
X436558Y55688D01*
X436577Y55669D01*
X436586Y55650D01*
X436615Y55584D01*
X436643Y55537D01*
X436671Y55509D01*
X436681Y55490D01*
X436699Y55443D01*
X436723Y55382D01*
X436747Y55358D01*
X436756Y55339D01*
X436832Y55198D01*
X436869Y55141D01*
X436902Y55052D01*
X436926Y55019D01*
X436963Y54962D01*
X436978Y54901D01*
X436992Y54868D01*
X437034Y54816D01*
X437081Y54693D01*
X437114Y54651D01*
X437124Y54632D01*
X437152Y54566D01*
X437161Y54528D01*
X437209Y54444D01*
X437246Y54359D01*
X437260Y54307D01*
X437293Y54255D01*
X437322Y54189D01*
X437331Y54151D01*
X437350Y54104D01*
X437397Y54038D01*
X437411Y53977D01*
X437421Y53939D01*
X437439Y53892D01*
X437487Y53817D01*
X437510Y53737D01*
X437524Y53675D01*
X437543Y53628D01*
X437557Y53614D01*
X437567Y53595D01*
X437604Y53510D01*
X437614Y53425D01*
X437661Y53359D01*
X437680Y53312D01*
X437689Y53246D01*
X437704Y53194D01*
X437722Y53147D01*
X437774Y53039D01*
X437788Y52959D01*
X437798Y52921D01*
X437817Y52874D01*
X437831Y52860D01*
X437859Y52794D01*
X437868Y52756D01*
X437878Y52690D01*
X437892Y52638D01*
X437911Y52591D01*
X437953Y52492D01*
X437963Y52455D01*
X437977Y52365D01*
X437986Y52318D01*
X438038Y52219D01*
X438048Y52181D01*
X438076Y52002D01*
X438132Y51879D01*
X438142Y51785D01*
X438156Y51686D01*
X438194Y51582D01*
X438217Y51531D01*
X438231Y51441D01*
X438246Y51314D01*
X438255Y51276D01*
X438269Y51224D01*
X438293Y51172D01*
X438302Y51135D01*
X438326Y50979D01*
X438354Y50800D01*
X438363Y50762D01*
X438382Y50715D01*
X438396Y50663D01*
X438406Y50626D01*
X438415Y50531D01*
X438429Y50347D01*
X438439Y50291D01*
X438448Y50253D01*
X438481Y50145D01*
X438491Y50107D01*
X438500Y49984D01*
X438509Y49890D01*
X438519Y49721D01*
X438528Y49692D01*
X438538Y49560D01*
X438547Y49532D01*
X438561Y49471D01*
X438580Y49358D01*
X438590Y49244D01*
X438609Y48801D01*
X438627Y48547D01*
X438651Y48127D01*
X438660Y48090D01*
X438670Y47675D01*
X438679Y47646D01*
X438665Y47255D01*
X438656Y47067D01*
X438646Y46850D01*
X438637Y46680D01*
X438627Y46558D01*
X438618Y46445D01*
X438609Y46312D01*
X438599Y46124D01*
X438590Y45803D01*
X438580Y45719D01*
X438571Y45672D01*
X438543Y45558D01*
X438533Y45483D01*
X438519Y45356D01*
X438509Y45177D01*
X438500Y45082D01*
X438486Y44974D01*
X438476Y44936D01*
X438443Y44828D01*
X438434Y44762D01*
X438425Y44668D01*
X438401Y44455D01*
X438382Y44380D01*
X438359Y44300D01*
X438340Y44224D01*
X438321Y44092D01*
X438312Y43970D01*
X438274Y43885D01*
X438260Y43824D01*
X438250Y43786D01*
X438241Y43739D01*
X438231Y43645D01*
X438222Y43588D01*
X438213Y43550D01*
X438194Y43503D01*
X438161Y43423D01*
X438142Y43291D01*
X438132Y43216D01*
X438085Y43112D01*
X438066Y43046D01*
X438048Y42914D01*
X438024Y42853D01*
X437982Y42754D01*
X437963Y42678D01*
X437953Y42612D01*
X437939Y42561D01*
X437887Y42462D01*
X437873Y42353D01*
X437864Y42315D01*
X437845Y42268D01*
X437831Y42254D01*
X437821Y42235D01*
X437793Y42169D01*
X437784Y42103D01*
X437770Y42042D01*
X437751Y41995D01*
X437737Y41981D01*
X437727Y41962D01*
X437708Y41915D01*
X437699Y41877D01*
X437675Y41778D01*
X437623Y41679D01*
X437614Y41641D01*
X437600Y41580D01*
X437590Y41542D01*
X437553Y41486D01*
X437538Y41472D01*
X437520Y41424D01*
X437510Y41358D01*
X437477Y41269D01*
X437463Y41255D01*
X437454Y41236D01*
X437435Y41189D01*
X437425Y41151D01*
X437411Y41090D01*
X437388Y41057D01*
X437359Y41028D01*
X437341Y40981D01*
X437326Y40920D01*
X437308Y40873D01*
X437270Y40816D01*
X437256Y40802D01*
X437242Y40750D01*
X437232Y40713D01*
X437213Y40666D01*
X437176Y40609D01*
X437161Y40557D01*
X437128Y40468D01*
X437086Y40425D01*
X437067Y40378D01*
X437053Y40326D01*
X437034Y40279D01*
X437020Y40265D01*
X437011Y40246D01*
X436954Y40124D01*
X436945Y40105D01*
X436907Y40048D01*
X436879Y39982D01*
X436841Y39916D01*
X436822Y39897D01*
X436794Y39831D01*
X436770Y39770D01*
X436718Y39718D01*
X436676Y39600D01*
X436624Y39548D01*
X436591Y39459D01*
X436567Y39426D01*
X436539Y39398D01*
X436520Y39351D01*
X436483Y39285D01*
X436454Y39256D01*
X436445Y39237D01*
X436417Y39171D01*
X436407Y39153D01*
X436365Y39101D01*
X436351Y39086D01*
X436332Y39039D01*
X436322Y39021D01*
X436280Y38969D01*
X436256Y38945D01*
X436223Y38856D01*
X436162Y38794D01*
X436138Y38733D01*
X436077Y38672D01*
X436058Y38625D01*
X436030Y38577D01*
X435983Y38530D01*
X435974Y38511D01*
X435912Y38422D01*
X435898Y38408D01*
X435851Y38323D01*
X435804Y38276D01*
X435757Y38191D01*
X435710Y38144D01*
X435700Y38125D01*
X435644Y38068D01*
X435634Y38049D01*
X435587Y37984D01*
X435540Y37936D01*
X435498Y37847D01*
X435479Y37837D01*
X435436Y37795D01*
X435408Y37748D01*
X435384Y37724D01*
X435365Y37715D01*
X435351Y37701D01*
X435342Y37682D01*
X435299Y37630D01*
X435257Y37588D01*
X435248Y37569D01*
X435205Y37517D01*
X435191Y37503D01*
X435182Y37484D01*
X435153Y37456D01*
X435144Y37437D01*
X435125Y37418D01*
X435120Y37404D01*
X435102Y37394D01*
X435087Y37380D01*
X435078Y37361D01*
X435059Y37342D01*
X435050Y37324D01*
X434974Y37248D01*
X434965Y37229D01*
X434922Y37187D01*
X434904Y37178D01*
X434856Y37111D01*
X434838Y37102D01*
X434805Y37069D01*
X434795Y37050D01*
X434762Y37008D01*
X434743Y36998D01*
X434692Y36946D01*
X434682Y36928D01*
X434668Y36913D01*
X434649Y36904D01*
X434607Y36862D01*
X434597Y36843D01*
X434541Y36796D01*
X434498Y36734D01*
X434479Y36725D01*
X434437Y36692D01*
X434427Y36673D01*
X434413Y36659D01*
X434394Y36649D01*
X434343Y36598D01*
X434333Y36579D01*
X434310Y36555D01*
X434291Y36546D01*
X434258Y36522D01*
X434248Y36503D01*
X434197Y36452D01*
X434178Y36442D01*
X434154Y36419D01*
X434145Y36400D01*
X434131Y36386D01*
X434112Y36376D01*
X434017Y36282D01*
X433998Y36272D01*
X433975Y36249D01*
X433966Y36230D01*
X433933Y36197D01*
X433885Y36169D01*
X433848Y36131D01*
X433829Y36122D01*
X433782Y36075D01*
X433763Y36065D01*
X433735Y36037D01*
X433716Y36027D01*
X433655Y35985D01*
X433645Y35966D01*
X433612Y35933D01*
X433546Y35895D01*
X433518Y35848D01*
X433499Y35839D01*
X433433Y35792D01*
X433409Y35768D01*
X433405Y35754D01*
X433386Y35745D01*
X433320Y35707D01*
X433263Y35650D01*
X433183Y35608D01*
X433174Y35589D01*
X433150Y35565D01*
X433131Y35556D01*
X433070Y35514D01*
X433060Y35495D01*
X433046Y35480D01*
X432962Y35433D01*
X432914Y35386D01*
X432830Y35339D01*
X432792Y35301D01*
X432707Y35254D01*
X432688Y35235D01*
X432669Y35226D01*
X432650Y35207D01*
X432632Y35198D01*
X432566Y35160D01*
X432528Y35122D01*
X432443Y35075D01*
X432396Y35028D01*
X432306Y34995D01*
X432254Y34943D01*
X432207Y34924D01*
X432141Y34887D01*
X432104Y34849D01*
X432014Y34816D01*
X431958Y34769D01*
X431830Y34698D01*
X431811Y34679D01*
X431793Y34670D01*
X431727Y34641D01*
X431679Y34613D01*
X431651Y34585D01*
X431585Y34557D01*
X431547Y34547D01*
X431496Y34505D01*
X431482Y34491D01*
X431434Y34472D01*
X431373Y34448D01*
X431316Y34411D01*
X431217Y34368D01*
X431152Y34330D01*
X431133Y34312D01*
X431086Y34293D01*
X431024Y34269D01*
X430991Y34246D01*
X430935Y34208D01*
X430836Y34184D01*
X430803Y34161D01*
X430774Y34132D01*
X430727Y34114D01*
X430690Y34104D01*
X430628Y34081D01*
X430572Y34043D01*
X430492Y34019D01*
X430430Y33996D01*
X430397Y33972D01*
X430341Y33935D01*
X430232Y33911D01*
X430199Y33887D01*
X430143Y33850D01*
X430105Y33840D01*
X430020Y33831D01*
X429954Y33793D01*
X429935Y33774D01*
X429888Y33755D01*
X429851Y33746D01*
X429780Y33732D01*
X429733Y33713D01*
X429709Y33689D01*
X429662Y33670D01*
X429624Y33661D01*
X429558Y33652D01*
X429497Y33628D01*
X429464Y33605D01*
X429398Y33576D01*
X429280Y33562D01*
X429205Y33534D01*
X429191Y33520D01*
X429172Y33510D01*
X429106Y33482D01*
X429040Y33472D01*
X428950Y33458D01*
X428903Y33440D01*
X428842Y33407D01*
X428766Y33388D01*
X428620Y33364D01*
X428545Y33336D01*
X428493Y33312D01*
X428380Y33293D01*
X428243Y33270D01*
X428196Y33251D01*
X428135Y33227D01*
X428097Y33218D01*
X428031Y33209D01*
X427937Y33199D01*
X427847Y33185D01*
X427743Y33147D01*
X427692Y33133D01*
X427560Y33114D01*
X427329Y33091D01*
X427291Y33081D01*
X427230Y33058D01*
X427117Y33039D01*
X427079Y33029D01*
X426768Y33011D01*
X426740Y33001D01*
X426565Y32978D01*
X426527Y32968D01*
X426334Y32945D01*
X426296Y32935D01*
X425938Y32926D01*
X425910Y32916D01*
X425504Y32907D01*
X425476Y32897D01*
X425123Y32883D01*
X425076Y32874D01*
X424599Y32869D01*
X424571Y32879D01*
X424232Y32888D01*
X424203Y32897D01*
X423921Y32907D01*
X423892Y32916D01*
X423525Y32926D01*
X423497Y32935D01*
X423176Y32945D01*
X423148Y32954D01*
X423082Y32963D01*
X423044Y32973D01*
X422954Y32987D01*
X422917Y32996D01*
X422832Y33006D01*
X422738Y33015D01*
X422587Y33025D01*
X422483Y33034D01*
X422436Y33044D01*
X422398Y33053D01*
X422346Y33067D01*
X422271Y33086D01*
X422158Y33105D01*
X421993Y33119D01*
X421880Y33138D01*
X421715Y33190D01*
X421649Y33199D01*
X421507Y33209D01*
X421404Y33256D01*
X421366Y33265D01*
X421253Y33284D01*
X421215Y33293D01*
X421125Y33308D01*
X421031Y33345D01*
X420970Y33369D01*
X420772Y33397D01*
X420649Y33454D01*
X420612Y33463D01*
X420546Y33472D01*
X420508Y33482D01*
X420452Y33491D01*
X420310Y33557D01*
X420230Y33572D01*
X420154Y33600D01*
X420056Y33642D01*
X420018Y33652D01*
X419961Y33661D01*
X419801Y33737D01*
X419721Y33751D01*
X419674Y33770D01*
X419603Y33812D01*
X419537Y33831D01*
X419485Y33845D01*
X419438Y33864D01*
X419381Y33902D01*
X419301Y33925D01*
X419264Y33935D01*
X419198Y33972D01*
X419151Y34000D01*
X419085Y34019D01*
X419047Y34029D01*
X418943Y34095D01*
X418905Y34104D01*
X418844Y34128D01*
X418788Y34165D01*
X418773Y34180D01*
X418698Y34198D01*
X418641Y34208D01*
X418623Y34227D01*
X418604Y34236D01*
X418566Y34274D01*
X418514Y34288D01*
X418476Y34297D01*
X418425Y34330D01*
X418406Y34349D01*
X418321Y34387D01*
X418302Y34396D01*
X418236Y34444D01*
X418189Y34462D01*
X418128Y34486D01*
X418114Y34500D01*
X418095Y34509D01*
X418066Y34538D01*
X417972Y34576D01*
X417925Y34604D01*
X417906Y34623D01*
X417887Y34632D01*
X417765Y34698D01*
X417746Y34717D01*
X417685Y34741D01*
X417652Y34755D01*
X417600Y34797D01*
X417586Y34811D01*
X417538Y34830D01*
X417472Y34868D01*
X417444Y34896D01*
X417425Y34906D01*
X417322Y34962D01*
X417284Y35000D01*
X417223Y35023D01*
X417166Y35071D01*
X417152Y35085D01*
X417048Y35141D01*
X417020Y35169D01*
X416935Y35217D01*
X416897Y35254D01*
X416879Y35264D01*
X416813Y35301D01*
X416775Y35339D01*
X416756Y35349D01*
X416690Y35386D01*
X416638Y35429D01*
X416615Y35452D01*
X416596Y35462D01*
X416530Y35509D01*
X416492Y35547D01*
X416426Y35584D01*
X416388Y35622D01*
X416322Y35660D01*
X416266Y35716D01*
X416200Y35754D01*
X416124Y35829D01*
X416077Y35858D01*
X416044Y35891D01*
X416040Y35905D01*
X416021Y35914D01*
X415955Y35961D01*
X415926Y35990D01*
X415908Y35999D01*
X415841Y36046D01*
X415818Y36070D01*
X415813Y36084D01*
X415794Y36093D01*
X415775Y36112D01*
X415757Y36122D01*
X415724Y36145D01*
X415714Y36164D01*
X415700Y36178D01*
X415681Y36188D01*
X415596Y36272D01*
X415578Y36282D01*
X415559Y36301D01*
X415545Y36305D01*
X415535Y36324D01*
X415483Y36376D01*
X415464Y36386D01*
X415431Y36419D01*
X415422Y36437D01*
X415408Y36452D01*
X415361Y36480D01*
X415337Y36503D01*
X415328Y36522D01*
X415295Y36555D01*
X415276Y36565D01*
X415252Y36588D01*
X415243Y36607D01*
X415210Y36640D01*
X415191Y36649D01*
X415177Y36664D01*
X415167Y36683D01*
X415149Y36701D01*
X415139Y36720D01*
X415106Y36744D01*
X415012Y36838D01*
X414998Y36843D01*
X414988Y36862D01*
X414936Y36913D01*
X414918Y36923D01*
X414894Y36946D01*
X414885Y36965D01*
X414842Y37008D01*
X414823Y37017D01*
X414800Y37050D01*
X414767Y37093D01*
X414748Y37102D01*
X414706Y37144D01*
X414696Y37163D01*
X414682Y37187D01*
X414663Y37196D01*
X414630Y37229D01*
X414621Y37248D01*
X414536Y37333D01*
X414526Y37352D01*
X414484Y37404D01*
X414442Y37446D01*
X414432Y37465D01*
X414357Y37540D01*
X414347Y37559D01*
X414305Y37611D01*
X414281Y37644D01*
X414253Y37672D01*
X414244Y37691D01*
X414178Y37757D01*
X414149Y37804D01*
X414126Y37828D01*
X414107Y37837D01*
X414083Y37861D01*
X414036Y37946D01*
X413998Y37984D01*
X413951Y38068D01*
X413918Y38092D01*
X413867Y38172D01*
X413810Y38229D01*
X413772Y38295D01*
X413725Y38342D01*
X413678Y38427D01*
X413659Y38445D01*
X413650Y38464D01*
X413612Y38521D01*
X413602Y38540D01*
X413555Y38587D01*
X413508Y38672D01*
X413480Y38700D01*
X413470Y38719D01*
X413452Y38738D01*
X413428Y38799D01*
X413405Y38823D01*
X413400Y38837D01*
X413386Y38841D01*
X413376Y38860D01*
X413357Y38879D01*
X413334Y38940D01*
X413320Y38955D01*
X413310Y38973D01*
X413282Y39002D01*
X413273Y39021D01*
X413225Y39105D01*
X413188Y39143D01*
X413164Y39204D01*
X413150Y39237D01*
X413093Y39294D01*
X413060Y39383D01*
X413046Y39398D01*
X413037Y39416D01*
X413009Y39445D01*
X412990Y39492D01*
X412966Y39553D01*
X412924Y39596D01*
X412905Y39643D01*
X412896Y39680D01*
X412853Y39742D01*
X412839Y39746D01*
X412830Y39765D01*
X412801Y39831D01*
X412782Y39878D01*
X412740Y39930D01*
X412712Y40006D01*
X412693Y40053D01*
X412669Y40086D01*
X412650Y40105D01*
X412627Y40166D01*
X412608Y40213D01*
X412547Y40331D01*
X412518Y40406D01*
X412476Y40458D01*
X412462Y40472D01*
X412443Y40538D01*
X412429Y40590D01*
X412382Y40647D01*
X412358Y40699D01*
X412344Y40779D01*
X412311Y40831D01*
X412292Y40849D01*
X412273Y40897D01*
X412250Y40995D01*
X412226Y41028D01*
X412198Y41057D01*
X412179Y41123D01*
X412160Y41208D01*
X412113Y41274D01*
X412094Y41340D01*
X412085Y41377D01*
X412071Y41429D01*
X412056Y41462D01*
X412009Y41528D01*
X411995Y41589D01*
X411986Y41637D01*
X411957Y41712D01*
X411934Y41736D01*
X411915Y41783D01*
X411906Y41849D01*
X411896Y41886D01*
X411873Y41948D01*
X411830Y42018D01*
X411811Y42132D01*
X411802Y42169D01*
X411755Y42254D01*
X411726Y42320D01*
X411712Y42438D01*
X411703Y42476D01*
X411670Y42527D01*
X411642Y42593D01*
X411618Y42730D01*
X411590Y42806D01*
X411547Y42905D01*
X411533Y43051D01*
X411524Y43088D01*
X411505Y43135D01*
X411463Y43235D01*
X411453Y43300D01*
X411429Y43437D01*
X411378Y43565D01*
X411368Y43659D01*
X411359Y43696D01*
X411345Y43786D01*
X411326Y43880D01*
X411307Y43927D01*
X411283Y43979D01*
X411274Y44017D01*
X411264Y44187D01*
X411255Y44215D01*
X411241Y44286D01*
X411231Y44323D01*
X411217Y44375D01*
X411199Y44451D01*
X411189Y44517D01*
X411180Y44554D01*
X411170Y44715D01*
X411161Y44743D01*
X411147Y44832D01*
X411137Y44870D01*
X411123Y44913D01*
X411104Y44988D01*
X411095Y45111D01*
X411085Y45290D01*
X411076Y45346D01*
Y45356D01*
X411062Y45464D01*
X411052Y45539D01*
X411043Y45587D01*
X411034Y45624D01*
X411015Y45719D01*
X411005Y45813D01*
X410996Y46133D01*
X410986Y46322D01*
X410977Y46445D01*
X410968Y46558D01*
X410958Y46652D01*
X410949Y46822D01*
X410939Y46878D01*
X410935Y48146D01*
X410944Y48174D01*
X410953Y48410D01*
X410963Y48438D01*
X410977Y48632D01*
X410986Y48783D01*
X410996Y48980D01*
X411005Y49254D01*
X411015Y49358D01*
X411034Y49471D01*
X411043Y49508D01*
X411062Y49622D01*
X411071Y49725D01*
X411081Y49772D01*
X411090Y49942D01*
X411104Y50135D01*
X411114Y50164D01*
X411128Y50215D01*
X411161Y50324D01*
X411170Y50390D01*
X411184Y50593D01*
X411203Y50696D01*
X411222Y50743D01*
X411246Y50795D01*
X411260Y50885D01*
X411269Y50970D01*
X411279Y51045D01*
X411288Y51130D01*
X411297Y51177D01*
X411340Y51248D01*
X411349Y51342D01*
X411359Y51408D01*
X411373Y51516D01*
X411401Y51592D01*
X411425Y51644D01*
X411444Y51710D01*
X411453Y51804D01*
X411467Y51912D01*
X411529Y52030D01*
X411538Y52096D01*
X411547Y52190D01*
X411557Y52228D01*
X411623Y52370D01*
X411632Y52436D01*
X411646Y52497D01*
X411665Y52544D01*
X411708Y52643D01*
X411717Y52681D01*
X411741Y52817D01*
X411792Y52916D01*
X411811Y52992D01*
X411821Y53048D01*
X411858Y53114D01*
X411896Y53199D01*
X411906Y53265D01*
X411920Y53336D01*
X411943Y53369D01*
X411962Y53388D01*
X411981Y53435D01*
X411990Y53501D01*
X412000Y53539D01*
X412075Y53699D01*
X412089Y53760D01*
X412108Y53807D01*
X412132Y53840D01*
X412179Y53944D01*
X412203Y54043D01*
X412217Y54057D01*
X412226Y54076D01*
X412245Y54095D01*
X412264Y54142D01*
X412278Y54213D01*
X412297Y54260D01*
X412330Y54293D01*
X412349Y54340D01*
X412358Y54378D01*
X412382Y54439D01*
X412419Y54496D01*
X412438Y54543D01*
X412467Y54618D01*
X412481Y54632D01*
X412490Y54651D01*
X412509Y54670D01*
X412528Y54717D01*
X412542Y54778D01*
X412561Y54825D01*
X412584Y54849D01*
X412594Y54868D01*
X412631Y54953D01*
X412669Y55019D01*
X412697Y55047D01*
X412740Y55165D01*
X412763Y55198D01*
X412782Y55217D01*
X412811Y55283D01*
X412858Y55367D01*
X412877Y55386D01*
X412896Y55434D01*
X412919Y55495D01*
X412966Y55551D01*
X412980Y55566D01*
X412994Y55617D01*
X413027Y55669D01*
X413046Y55688D01*
X413056Y55707D01*
X413084Y55773D01*
X413093Y55792D01*
X413136Y55844D01*
X413150Y55858D01*
X413207Y55961D01*
X413235Y55990D01*
X413244Y56009D01*
X413263Y56056D01*
X413301Y56122D01*
X413339Y56159D01*
X413367Y56235D01*
X413390Y56268D01*
X413409Y56277D01*
X413423Y56291D01*
X413480Y56395D01*
X413499Y56414D01*
X413508Y56433D01*
X413546Y56489D01*
X413555Y56508D01*
X413602Y56555D01*
X413612Y56574D01*
X413650Y56640D01*
X413687Y56678D01*
X413697Y56697D01*
X413735Y56763D01*
X413749Y56786D01*
X413763Y56791D01*
X413772Y56810D01*
X413791Y56829D01*
X413829Y56895D01*
X413862Y56928D01*
X413876Y56932D01*
X413928Y57031D01*
X413947Y57041D01*
X413961Y57055D01*
X413970Y57074D01*
X414008Y57140D01*
X414074Y57206D01*
X414102Y57253D01*
X414116Y57267D01*
X414135Y57277D01*
X414168Y57309D01*
X414196Y57357D01*
X414244Y57404D01*
X414253Y57423D01*
X414295Y57474D01*
X414310Y57489D01*
X414319Y57508D01*
X414338Y57526D01*
X414347Y57545D01*
X414390Y57597D01*
X414442Y57649D01*
X414451Y57668D01*
X414517Y57734D01*
X414526Y57753D01*
X414569Y57804D01*
X414588Y57814D01*
X414621Y57847D01*
X414649Y57894D01*
X414706Y57941D01*
X414748Y57993D01*
X414790Y58035D01*
X414800Y58054D01*
X414823Y58078D01*
X414842Y58087D01*
X414894Y58139D01*
X414903Y58158D01*
X414960Y58215D01*
X414969Y58233D01*
X415012Y58276D01*
X415031Y58285D01*
X415054Y58309D01*
X415064Y58328D01*
X415116Y58380D01*
X415135Y58389D01*
X415158Y58412D01*
X415167Y58431D01*
X415248Y58512D01*
X415266Y58521D01*
X415318Y58563D01*
X415347Y58592D01*
X415356Y58611D01*
X415389Y58643D01*
X415408Y58653D01*
X415474Y58719D01*
X415493Y58728D01*
X415516Y58752D01*
X415526Y58771D01*
X415559Y58804D01*
X415578Y58813D01*
X415620Y58846D01*
X415629Y58865D01*
X415653Y58889D01*
X415672Y58898D01*
X415714Y58931D01*
X415724Y58950D01*
X415757Y58983D01*
X415775Y58992D01*
X415827Y59035D01*
X415832Y59049D01*
X415851Y59058D01*
X415870Y59077D01*
X415889Y59087D01*
X415941Y59129D01*
X415964Y59153D01*
X415983Y59162D01*
X416002Y59181D01*
X416021Y59190D01*
X416068Y59237D01*
X416087Y59247D01*
X416148Y59289D01*
X416157Y59308D01*
X416190Y59341D01*
X416237Y59369D01*
X416294Y59426D01*
X416379Y59473D01*
X416435Y59530D01*
X416501Y59567D01*
X416549Y59615D01*
X416633Y59662D01*
X416680Y59709D01*
X416746Y59746D01*
X416765Y59765D01*
X416784Y59775D01*
X416803Y59794D01*
X416888Y59841D01*
X416916Y59869D01*
X416935Y59879D01*
X417025Y59940D01*
X417048Y59963D01*
X417067Y59973D01*
X417152Y60020D01*
X417199Y60067D01*
X417237Y60076D01*
X417284Y60105D01*
X417336Y60147D01*
X417388Y60171D01*
X417454Y60208D01*
X417482Y60237D01*
X417501Y60246D01*
X417604Y60303D01*
X417623Y60321D01*
X417746Y60388D01*
X417765Y60406D01*
X417831Y60435D01*
X417878Y60454D01*
X417925Y60501D01*
X417972Y60519D01*
X418033Y60543D01*
X418085Y60576D01*
X418104Y60595D01*
X418123Y60604D01*
X418208Y60642D01*
X418227Y60651D01*
X418283Y60689D01*
X418349Y60718D01*
X418410Y60741D01*
X418443Y60765D01*
X418547Y60812D01*
X418613Y60849D01*
X418632Y60868D01*
X418679Y60887D01*
X418731Y60901D01*
X418806Y60949D01*
X418858Y60972D01*
X418948Y61005D01*
X419004Y61043D01*
X419066Y61066D01*
X419118Y61080D01*
X419165Y61099D01*
X419198Y61132D01*
X419245Y61151D01*
X419306Y61165D01*
X419381Y61194D01*
X419396Y61208D01*
X419462Y61236D01*
X419556Y61264D01*
X419622Y61302D01*
X419707Y61340D01*
X419815Y61363D01*
X419848Y61377D01*
X419905Y61415D01*
X419980Y61434D01*
X420037Y61443D01*
X420178Y61509D01*
X420253Y61528D01*
X420334Y61542D01*
X420381Y61561D01*
X420442Y61594D01*
X420518Y61613D01*
X420593Y61623D01*
X420621Y61632D01*
X420744Y61688D01*
X420876Y61707D01*
X420913Y61717D01*
X420965Y61731D01*
X421045Y61764D01*
X421158Y61792D01*
X421258Y61806D01*
X421305Y61816D01*
X421441Y61858D01*
X421507Y61877D01*
X421602Y61887D01*
X421691Y61901D01*
X421743Y61915D01*
X421790Y61934D01*
X421903Y61962D01*
X422049Y61976D01*
X422177Y61990D01*
X422327Y62028D01*
X422488Y62056D01*
X422639Y62066D01*
X422676Y62075D01*
X422822Y62089D01*
X422898Y62099D01*
X422936Y62108D01*
X422987Y62122D01*
X423025Y62132D01*
X423209Y62146D01*
X423586Y62165D01*
X423925Y62183D01*
X424048Y62193D01*
X424255Y62212D01*
X425307Y62216D01*
X425335Y62207D01*
D02*
G37*
G36*
X425618Y148128D02*
X425938Y148118D01*
X425966Y148109D01*
X426108Y148099D01*
X426136Y148090D01*
X426226Y148076D01*
X426301Y148066D01*
X426386Y148057D01*
X426556Y148048D01*
X426754Y148038D01*
X426829Y148029D01*
X426886Y148019D01*
X426999Y147991D01*
X427051Y147977D01*
X427140Y147963D01*
X427310Y147953D01*
X427413Y147944D01*
X427470Y147934D01*
X427508Y147925D01*
X427583Y147897D01*
X427659Y147878D01*
X427786Y147864D01*
X427904Y147850D01*
X427942Y147840D01*
X428017Y147812D01*
X428069Y147798D01*
X428144Y147779D01*
X428267Y147769D01*
X428352Y147751D01*
X428474Y147694D01*
X428592Y147680D01*
X428648Y147670D01*
X428686Y147661D01*
X428733Y147642D01*
X428747Y147628D01*
X428814Y147609D01*
X428851Y147600D01*
X429007Y147576D01*
X429087Y147534D01*
X429134Y147515D01*
X429172Y147506D01*
X429261Y147491D01*
X429308Y147472D01*
X429379Y147430D01*
X429417Y147421D01*
X429553Y147397D01*
X429610Y147359D01*
X429624Y147345D01*
X429690Y147326D01*
X429756Y147317D01*
X429818Y147293D01*
X429851Y147270D01*
X429916Y147241D01*
X429954Y147232D01*
X430025Y147218D01*
X430100Y147171D01*
X430115Y147157D01*
X430166Y147142D01*
X430214Y147133D01*
X430251Y147124D01*
X430303Y147091D01*
X430322Y147072D01*
X430388Y147053D01*
X430473Y147034D01*
X430525Y146992D01*
X430539Y146978D01*
X430605Y146959D01*
X430657Y146945D01*
X430708Y146912D01*
X430727Y146893D01*
X430774Y146874D01*
X430873Y146850D01*
X430902Y146822D01*
X430911Y146803D01*
X430963Y146780D01*
X431034Y146765D01*
X431133Y146695D01*
X431189Y146685D01*
X431255Y146648D01*
X431283Y146619D01*
X431401Y146577D01*
X431444Y146535D01*
X431463Y146525D01*
X431510Y146506D01*
X431562Y146492D01*
X431613Y146459D01*
X431651Y146421D01*
X431689Y146412D01*
X431750Y146388D01*
X431793Y146346D01*
X431887Y146308D01*
X431920Y146285D01*
X431929Y146266D01*
X432042Y146209D01*
X432085Y146167D01*
X432104Y146157D01*
X432151Y146138D01*
X432217Y146101D01*
X432245Y146073D01*
X432339Y146035D01*
X432372Y146002D01*
X432382Y145983D01*
X432434Y145959D01*
X432485Y145945D01*
X432556Y145875D01*
X432594Y145865D01*
X432613Y145846D01*
X432627Y145842D01*
X432636Y145823D01*
X432660Y145799D01*
X432679Y145790D01*
X432764Y145743D01*
X432801Y145705D01*
X432886Y145658D01*
X432910Y145625D01*
X432952Y145601D01*
X433018Y145563D01*
X433056Y145526D01*
X433141Y145479D01*
X433164Y145455D01*
X433169Y145441D01*
X433188Y145431D01*
X433207Y145413D01*
X433254Y145384D01*
X433310Y145328D01*
X433358Y145300D01*
X433395Y145262D01*
X433414Y145252D01*
X433499Y145186D01*
X433527Y145158D01*
X433546Y145149D01*
X433598Y145106D01*
X433631Y145073D01*
X433650Y145064D01*
X433702Y145021D01*
X433720Y145002D01*
X433730Y144984D01*
X433786Y144946D01*
X433838Y144894D01*
X433857Y144885D01*
X433909Y144842D01*
X433933Y144809D01*
X433951Y144800D01*
X434031Y144748D01*
X434041Y144729D01*
X434093Y144677D01*
X434112Y144668D01*
X434149Y144630D01*
X434168Y144621D01*
X434182Y144607D01*
X434192Y144588D01*
X434253Y144526D01*
X434272Y144517D01*
X434324Y144475D01*
X434343Y144456D01*
X434352Y144437D01*
X434385Y144404D01*
X434404Y144395D01*
X434427Y144371D01*
X434437Y144352D01*
X434640Y144149D01*
X434659Y144140D01*
X434701Y144097D01*
X434710Y144079D01*
X434753Y144027D01*
X434880Y143899D01*
X434889Y143881D01*
X434965Y143805D01*
X434974Y143786D01*
X435021Y143720D01*
X435036Y143706D01*
X435050Y143701D01*
X435059Y143683D01*
X435078Y143664D01*
X435087Y143645D01*
X435163Y143570D01*
X435191Y143522D01*
X435224Y143499D01*
X435238Y143485D01*
X435248Y143466D01*
X435266Y143447D01*
X435276Y143428D01*
X435309Y143405D01*
X435342Y143372D01*
X435370Y143324D01*
X435427Y143268D01*
X435465Y143202D01*
X435512Y143155D01*
X435549Y143089D01*
X435606Y143032D01*
X435634Y142985D01*
X435700Y142919D01*
X435738Y142853D01*
X435766Y142825D01*
X435823Y142721D01*
X435846Y142697D01*
X435860Y142693D01*
X435870Y142674D01*
X435931Y142584D01*
X435950Y142575D01*
X435974Y142533D01*
X436011Y142467D01*
X436049Y142429D01*
X436106Y142325D01*
X436134Y142306D01*
X436143Y142287D01*
X436200Y142184D01*
X436228Y142156D01*
X436275Y142071D01*
X436322Y142023D01*
X436341Y141976D01*
X436379Y141910D01*
X436407Y141882D01*
X436426Y141835D01*
X436454Y141788D01*
X436502Y141741D01*
X436520Y141675D01*
X436558Y141609D01*
X436586Y141580D01*
X436596Y141561D01*
X436662Y141439D01*
X436681Y141420D01*
X436699Y141373D01*
X436756Y141269D01*
X436803Y141166D01*
X436813Y141147D01*
X436855Y141095D01*
X436879Y141043D01*
X436888Y141005D01*
X436930Y140954D01*
X436945Y140939D01*
X436963Y140873D01*
X436987Y140812D01*
X437025Y140756D01*
X437067Y140656D01*
X437105Y140590D01*
X437124Y140572D01*
X437143Y140525D01*
X437152Y140487D01*
X437176Y140426D01*
X437199Y140402D01*
X437209Y140383D01*
X437227Y140364D01*
X437242Y140303D01*
X437251Y140265D01*
X437293Y140185D01*
X437322Y140119D01*
X437359Y140015D01*
X437397Y139959D01*
X437416Y139912D01*
X437435Y139836D01*
X437510Y139676D01*
X437534Y139568D01*
X437557Y139535D01*
X437576Y139516D01*
X437595Y139469D01*
X437609Y139379D01*
X437628Y139332D01*
X437680Y139233D01*
X437699Y139158D01*
X437713Y139096D01*
X437774Y138979D01*
X437784Y138941D01*
X437793Y138847D01*
X437840Y138771D01*
X437859Y138705D01*
X437868Y138667D01*
X437883Y138616D01*
X437892Y138578D01*
X437911Y138531D01*
X437953Y138432D01*
X437977Y138276D01*
X438005Y138220D01*
X438048Y138121D01*
X438071Y137946D01*
X438090Y137899D01*
X438132Y137800D01*
X438142Y137734D01*
X438151Y137640D01*
X438161Y137602D01*
X438184Y137541D01*
X438208Y137489D01*
X438227Y137423D01*
X438236Y137329D01*
X438250Y137230D01*
X438260Y137192D01*
X438283Y137131D01*
X438302Y137084D01*
X438321Y136970D01*
X438335Y136853D01*
X438344Y136796D01*
X438354Y136721D01*
X438363Y136673D01*
X438396Y136612D01*
X438406Y136546D01*
X438429Y136287D01*
X438448Y136183D01*
X438481Y136075D01*
X438491Y136037D01*
X438500Y135971D01*
X438509Y135792D01*
X438524Y135627D01*
X438533Y135552D01*
X438543Y135495D01*
X438571Y135354D01*
X438580Y135240D01*
X438590Y135193D01*
X438599Y134948D01*
X438609Y134760D01*
X438618Y134552D01*
X438627Y134449D01*
X438637Y134288D01*
X438646Y134204D01*
X438656Y134081D01*
X438665Y133751D01*
X438670Y133237D01*
X438660Y133209D01*
X438651Y132738D01*
X438642Y132709D01*
X438627Y132535D01*
X438618Y132327D01*
X438609Y132243D01*
X438599Y132035D01*
X438590Y131771D01*
X438580Y131658D01*
X438571Y131583D01*
X438557Y131531D01*
X438533Y131385D01*
X438519Y131257D01*
X438509Y131163D01*
X438495Y130998D01*
X438486Y130876D01*
X438462Y130824D01*
X438443Y130748D01*
X438429Y130649D01*
X438420Y130574D01*
X438410Y130470D01*
X438401Y130395D01*
X438392Y130357D01*
X438363Y130282D01*
X438344Y130188D01*
X438335Y130131D01*
X438326Y130046D01*
X438316Y129933D01*
X438307Y129895D01*
X438288Y129848D01*
X438255Y129768D01*
X438236Y129636D01*
X438222Y129528D01*
X438213Y129490D01*
X438194Y129443D01*
X438161Y129363D01*
X438151Y129325D01*
X438142Y129193D01*
X438132Y129165D01*
X438109Y129103D01*
X438085Y129052D01*
X438066Y128986D01*
X438052Y128896D01*
X438033Y128820D01*
X438019Y128769D01*
X437991Y128703D01*
X437972Y128656D01*
X437958Y128557D01*
X437930Y128481D01*
X437906Y128429D01*
X437887Y128363D01*
X437868Y128288D01*
X437854Y128227D01*
X437803Y128118D01*
X437793Y128081D01*
X437784Y128014D01*
X437774Y127977D01*
X437718Y127882D01*
X437708Y127845D01*
X437699Y127779D01*
X437689Y127741D01*
X437642Y127656D01*
X437614Y127590D01*
X437595Y127515D01*
X437571Y127453D01*
X437520Y127336D01*
X437496Y127237D01*
X437482Y127223D01*
X437472Y127204D01*
X437444Y127175D01*
X437425Y127100D01*
X437411Y127039D01*
X437397Y127006D01*
X437359Y126949D01*
X437341Y126902D01*
X437326Y126850D01*
X437308Y126803D01*
X437256Y126704D01*
X437237Y126657D01*
X437152Y126478D01*
X437143Y126440D01*
X437114Y126393D01*
X437067Y126327D01*
X437053Y126256D01*
X437034Y126209D01*
X437001Y126176D01*
X436992Y126157D01*
X436973Y126110D01*
X436949Y126049D01*
X436926Y126016D01*
X436907Y125997D01*
X436879Y125931D01*
X436855Y125870D01*
X436832Y125846D01*
X436822Y125827D01*
X436784Y125743D01*
X436709Y125611D01*
X436652Y125507D01*
X436633Y125488D01*
X436605Y125422D01*
X436567Y125356D01*
X436539Y125328D01*
X436520Y125281D01*
X436497Y125219D01*
X436445Y125167D01*
X436388Y125064D01*
X436360Y125035D01*
X436332Y124969D01*
X436303Y124922D01*
X436266Y124885D01*
X436247Y124838D01*
X436209Y124771D01*
X436181Y124753D01*
X436171Y124734D01*
X436115Y124630D01*
X436068Y124583D01*
X436021Y124498D01*
X435992Y124470D01*
X435936Y124366D01*
X435908Y124347D01*
X435898Y124328D01*
X435860Y124262D01*
X435837Y124239D01*
X435818Y124229D01*
X435794Y124187D01*
X435785Y124168D01*
X435743Y124116D01*
X435719Y124093D01*
X435681Y124027D01*
X435625Y123970D01*
X435587Y123904D01*
X435531Y123848D01*
X435521Y123829D01*
X435479Y123777D01*
X435446Y123744D01*
X435436Y123725D01*
X435394Y123673D01*
X435361Y123640D01*
X435323Y123574D01*
X435257Y123508D01*
X435248Y123489D01*
X435205Y123438D01*
X435163Y123395D01*
X435153Y123376D01*
X435111Y123334D01*
X435092Y123324D01*
X435078Y123310D01*
X435069Y123291D01*
X435050Y123272D01*
X435040Y123254D01*
X435007Y123230D01*
X434984Y123197D01*
X434941Y123145D01*
X434922Y123136D01*
X434908Y123122D01*
X434899Y123103D01*
X434856Y123051D01*
X434823Y123027D01*
X434814Y123009D01*
X434772Y122957D01*
X434687Y122872D01*
X434668Y122862D01*
X434644Y122839D01*
X434635Y122820D01*
X434616Y122801D01*
X434607Y122782D01*
X434574Y122759D01*
X434531Y122716D01*
X434522Y122697D01*
X434413Y122589D01*
X434394Y122580D01*
X434361Y122547D01*
X434352Y122528D01*
X434286Y122481D01*
X434277Y122462D01*
X434159Y122344D01*
X434140Y122334D01*
X434088Y122292D01*
X434055Y122250D01*
X434036Y122240D01*
X433951Y122155D01*
X433933Y122146D01*
X433857Y122071D01*
X433838Y122061D01*
X433763Y121986D01*
X433716Y121957D01*
X433659Y121901D01*
X433640Y121891D01*
X433555Y121825D01*
X433527Y121797D01*
X433508Y121788D01*
X433461Y121741D01*
X433442Y121731D01*
X433376Y121693D01*
X433353Y121670D01*
X433343Y121651D01*
X433320Y121628D01*
X433301Y121618D01*
X433240Y121576D01*
X433230Y121557D01*
X433216Y121543D01*
X433197Y121533D01*
X433131Y121496D01*
X433084Y121448D01*
X433018Y121411D01*
X432990Y121382D01*
X432971Y121373D01*
X432905Y121326D01*
X432891Y121321D01*
X432881Y121302D01*
X432858Y121279D01*
X432839Y121269D01*
X432754Y121222D01*
X432716Y121184D01*
X432613Y121128D01*
X432575Y121090D01*
X432528Y121071D01*
X432481Y121043D01*
X432434Y120996D01*
X432335Y120944D01*
X432325Y120925D01*
X432254Y120883D01*
X432226Y120873D01*
X432174Y120831D01*
X432047Y120760D01*
X432019Y120732D01*
X431953Y120704D01*
X431887Y120666D01*
X431821Y120619D01*
X431783Y120609D01*
X431689Y120543D01*
X431628Y120520D01*
X431595Y120496D01*
X431576Y120477D01*
X431510Y120449D01*
X431458Y120435D01*
X431401Y120397D01*
X431368Y120364D01*
X431279Y120331D01*
X431142Y120260D01*
X431081Y120237D01*
X431048Y120213D01*
X430991Y120176D01*
X430953Y120166D01*
X430892Y120143D01*
X430859Y120119D01*
X430840Y120100D01*
X430774Y120081D01*
X430723Y120067D01*
X430666Y120029D01*
X430642Y120006D01*
X430576Y119987D01*
X430539Y119978D01*
X430473Y119940D01*
X430454Y119921D01*
X430388Y119902D01*
X430298Y119869D01*
X430228Y119827D01*
X430162Y119808D01*
X430110Y119794D01*
X430077Y119780D01*
X430001Y119733D01*
X429940Y119718D01*
X429902Y119709D01*
X429855Y119690D01*
X429775Y119648D01*
X429700Y119629D01*
X429638Y119615D01*
X429591Y119596D01*
X429521Y119553D01*
X429431Y119539D01*
X429384Y119530D01*
X429337Y119511D01*
X429238Y119459D01*
X429143Y119450D01*
X429106Y119440D01*
X429044Y119417D01*
X428927Y119365D01*
X428781Y119341D01*
X428743Y119332D01*
X428644Y119290D01*
X428606Y119280D01*
X428573Y119275D01*
X428568Y119271D01*
X428460Y119256D01*
X428413Y119247D01*
X428366Y119228D01*
X428304Y119205D01*
X428238Y119186D01*
X428050Y119167D01*
X427927Y119110D01*
X427814Y119101D01*
X427786Y119092D01*
X427541Y119063D01*
X427513Y119054D01*
X427451Y119030D01*
X427404Y119021D01*
X427291Y119002D01*
X427159Y118993D01*
X427065Y118983D01*
X426942Y118964D01*
X426829Y118936D01*
X426772Y118926D01*
X426697Y118917D01*
X426565Y118908D01*
X426367Y118898D01*
X426254Y118889D01*
X426150Y118879D01*
X426075Y118870D01*
X425948Y118856D01*
X425839Y118842D01*
X425670Y118832D01*
X425415Y118823D01*
X424166Y118818D01*
X424138Y118827D01*
X423742Y118837D01*
X423713Y118846D01*
X423581Y118856D01*
X423553Y118865D01*
X423445Y118879D01*
X423350Y118889D01*
X423200Y118898D01*
X422983Y118908D01*
X422855Y118922D01*
X422761Y118931D01*
X422573Y118978D01*
X422450Y118988D01*
X422412Y118997D01*
X422229Y119011D01*
X422177Y119025D01*
X422101Y119044D01*
X422035Y119063D01*
X421998Y119073D01*
X421757Y119096D01*
X421720Y119106D01*
X421672Y119124D01*
X421630Y119139D01*
X421564Y119157D01*
X421474Y119172D01*
X421380Y119181D01*
X421333Y119191D01*
X421239Y119228D01*
X421196Y119242D01*
X421158Y119252D01*
X421064Y119261D01*
X421026Y119271D01*
X420970Y119280D01*
X420866Y119327D01*
X420791Y119346D01*
X420725Y119355D01*
X420640Y119374D01*
X420518Y119431D01*
X420452Y119440D01*
X420353Y119464D01*
X420253Y119516D01*
X420187Y119535D01*
X420089Y119549D01*
X420041Y119568D01*
X420027Y119582D01*
X420008Y119591D01*
X419942Y119619D01*
X419848Y119629D01*
X419782Y119667D01*
X419754Y119695D01*
X419678Y119714D01*
X419603Y119723D01*
X419499Y119789D01*
X419448Y119803D01*
X419410Y119813D01*
X419348Y119836D01*
X419320Y119865D01*
X419301Y119874D01*
X419273Y119883D01*
X419235Y119893D01*
X419174Y119907D01*
X419122Y119940D01*
X419075Y119968D01*
X419009Y119987D01*
X418948Y120011D01*
X418877Y120063D01*
X418764Y120091D01*
X418712Y120133D01*
X418698Y120147D01*
X418651Y120166D01*
X418599Y120180D01*
X418566Y120195D01*
X418500Y120242D01*
X418382Y120284D01*
X418349Y120317D01*
X418330Y120326D01*
X418264Y120355D01*
X418217Y120374D01*
X418165Y120416D01*
X418114Y120440D01*
X418062Y120454D01*
X418010Y120487D01*
X417981Y120515D01*
X417934Y120534D01*
X417868Y120572D01*
X417840Y120600D01*
X417793Y120619D01*
X417727Y120656D01*
X417708Y120675D01*
X417689Y120685D01*
X417642Y120704D01*
X417557Y120751D01*
X417529Y120779D01*
X417510Y120788D01*
X417407Y120845D01*
X417388Y120864D01*
X417369Y120873D01*
X417265Y120930D01*
X417251Y120944D01*
X417242Y120963D01*
X417190Y120986D01*
X417124Y121024D01*
X417086Y121062D01*
X417025Y121085D01*
X416992Y121109D01*
X416978Y121123D01*
X416968Y121142D01*
X416860Y121203D01*
X416831Y121231D01*
X416813Y121241D01*
X416746Y121279D01*
X416723Y121293D01*
X416713Y121312D01*
X416690Y121335D01*
X416671Y121345D01*
X416605Y121382D01*
X416558Y121430D01*
X416473Y121477D01*
X416435Y121514D01*
X416355Y121557D01*
X416346Y121576D01*
X416303Y121618D01*
X416256Y121646D01*
X416209Y121693D01*
X416190Y121703D01*
X416138Y121745D01*
X416105Y121778D01*
X416087Y121788D01*
X415997Y121849D01*
X415988Y121868D01*
X415931Y121906D01*
X415860Y121976D01*
X415813Y122005D01*
X415790Y122028D01*
X415780Y122047D01*
X415724Y122085D01*
X415705Y122104D01*
X415695Y122122D01*
X415662Y122155D01*
X415615Y122184D01*
X415592Y122207D01*
X415582Y122226D01*
X415549Y122250D01*
X415507Y122283D01*
X415497Y122302D01*
X415474Y122325D01*
X415455Y122334D01*
X415403Y122377D01*
X415257Y122523D01*
X415238Y122533D01*
X415215Y122565D01*
X415163Y122617D01*
X415144Y122627D01*
X414969Y122801D01*
X414960Y122820D01*
X414899Y122881D01*
X414880Y122891D01*
X414837Y122933D01*
X414828Y122952D01*
X414800Y122980D01*
X414790Y122999D01*
X414757Y123042D01*
X414739Y123051D01*
X414706Y123084D01*
X414696Y123103D01*
X414611Y123188D01*
X414602Y123207D01*
X414559Y123249D01*
X414540Y123258D01*
X414503Y123315D01*
X414432Y123386D01*
X414423Y123405D01*
X414347Y123480D01*
X414338Y123499D01*
X414295Y123551D01*
X414262Y123584D01*
X414253Y123603D01*
X414211Y123654D01*
X414178Y123687D01*
X414140Y123753D01*
X414074Y123819D01*
X414064Y123838D01*
X414022Y123890D01*
X413998Y123914D01*
X413961Y123980D01*
X413928Y124003D01*
X413914Y124017D01*
X413867Y124102D01*
X413829Y124140D01*
X413782Y124225D01*
X413768Y124239D01*
X413749Y124248D01*
X413725Y124272D01*
X413687Y124338D01*
X413640Y124385D01*
X413584Y124489D01*
X413555Y124517D01*
X413532Y124578D01*
X413461Y124649D01*
X413442Y124696D01*
X413405Y124762D01*
X413376Y124790D01*
X413320Y124894D01*
X413306Y124908D01*
X413291Y124913D01*
X413282Y124932D01*
X413263Y124979D01*
X413225Y125045D01*
X413178Y125092D01*
X413169Y125130D01*
X413131Y125196D01*
X413103Y125224D01*
X413075Y125290D01*
X413065Y125309D01*
X413023Y125361D01*
X413009Y125375D01*
X412990Y125422D01*
X412952Y125488D01*
X412905Y125554D01*
X412891Y125606D01*
X412853Y125662D01*
X412839Y125676D01*
X412830Y125695D01*
X412811Y125743D01*
X412787Y125804D01*
X412763Y125827D01*
X412754Y125846D01*
X412726Y125912D01*
X412702Y125974D01*
X412688Y125988D01*
X412679Y126006D01*
X412650Y126035D01*
X412631Y126082D01*
X412603Y126157D01*
X412556Y126223D01*
X412537Y126289D01*
X412514Y126350D01*
X412500Y126365D01*
X412490Y126383D01*
X412462Y126412D01*
X412443Y126487D01*
X412424Y126534D01*
X412377Y126600D01*
X412358Y126648D01*
X412349Y126685D01*
X412301Y126770D01*
X412273Y126836D01*
X412264Y126874D01*
X412254Y126930D01*
X412193Y127020D01*
X412179Y127072D01*
X412170Y127109D01*
X412146Y127171D01*
X412122Y127204D01*
X412104Y127223D01*
X412085Y127270D01*
X412071Y127359D01*
X412023Y127435D01*
X412009Y127477D01*
X412000Y127515D01*
X411976Y127614D01*
X411962Y127628D01*
X411953Y127647D01*
X411934Y127666D01*
X411906Y127732D01*
X411882Y127868D01*
X411840Y127930D01*
X411821Y127977D01*
X411797Y128113D01*
X411755Y128194D01*
X411726Y128260D01*
X411712Y128359D01*
X411703Y128396D01*
X411689Y128429D01*
X411642Y128533D01*
X411632Y128571D01*
X411618Y128670D01*
X411609Y128707D01*
X411557Y128825D01*
X411547Y128863D01*
X411538Y128929D01*
X411524Y129018D01*
X411505Y129066D01*
X411463Y129165D01*
X411448Y129273D01*
X411439Y129330D01*
X411429Y129377D01*
X411411Y129424D01*
X411396Y129438D01*
X411382Y129490D01*
X411373Y129537D01*
X411359Y129664D01*
X411349Y129730D01*
X411326Y129791D01*
X411307Y129839D01*
X411293Y129890D01*
X411283Y129928D01*
X411274Y129994D01*
X411264Y130126D01*
X411255Y130154D01*
X411231Y130263D01*
X411213Y130310D01*
X411199Y130362D01*
X411189Y130400D01*
X411180Y130550D01*
X411166Y130668D01*
X411156Y130715D01*
X411147Y130772D01*
X411137Y130810D01*
X411118Y130857D01*
X411104Y130909D01*
X411090Y131102D01*
X411081Y131262D01*
X411071Y131338D01*
X411062Y131394D01*
X411052Y131432D01*
X411034Y131545D01*
X411024Y131592D01*
X411015Y131668D01*
X411005Y131771D01*
X410996Y132082D01*
X410986Y132186D01*
X410977Y132394D01*
X410968Y132526D01*
X410958Y132648D01*
X410939Y132855D01*
X410930Y133723D01*
X410925Y133888D01*
X410935Y133916D01*
X410944Y134208D01*
X410953Y134236D01*
X410963Y134463D01*
X410972Y134491D01*
X410986Y134750D01*
X410996Y134911D01*
X411005Y135184D01*
X411019Y135311D01*
X411034Y135420D01*
X411043Y135457D01*
X411052Y135505D01*
X411062Y135561D01*
X411076Y135688D01*
X411085Y135726D01*
X411100Y135985D01*
X411109Y136061D01*
X411118Y136098D01*
X411142Y136179D01*
X411161Y136244D01*
X411170Y136339D01*
X411180Y136376D01*
X411189Y136584D01*
X411199Y136622D01*
X411227Y136688D01*
X411246Y136763D01*
X411264Y136876D01*
X411274Y136942D01*
X411283Y137065D01*
X411340Y137197D01*
X411349Y137234D01*
X411359Y137300D01*
X411373Y137437D01*
X411382Y137475D01*
X411429Y137578D01*
X411439Y137616D01*
X411453Y137744D01*
X411463Y137781D01*
X411472Y137838D01*
X411529Y137960D01*
X411547Y138092D01*
X411566Y138177D01*
X411604Y138234D01*
X411623Y138300D01*
X411632Y138366D01*
X411646Y138446D01*
X411698Y138545D01*
X411717Y138611D01*
X411726Y138649D01*
X411736Y138715D01*
X411745Y138752D01*
X411755Y138771D01*
X411792Y138828D01*
X411807Y138889D01*
X411825Y138993D01*
X411844Y139040D01*
X411868Y139063D01*
X411877Y139082D01*
X411896Y139129D01*
X411910Y139228D01*
X411929Y139275D01*
X411953Y139308D01*
X411990Y139393D01*
X412005Y139492D01*
X412028Y139525D01*
X412047Y139544D01*
X412056Y139563D01*
X412075Y139610D01*
X412089Y139700D01*
X412104Y139733D01*
X412151Y139799D01*
X412170Y139865D01*
X412179Y139902D01*
X412203Y139964D01*
X412240Y140020D01*
X412292Y140166D01*
X412330Y140223D01*
X412349Y140270D01*
X412358Y140308D01*
X412372Y140360D01*
X412396Y140393D01*
X412415Y140411D01*
X412424Y140430D01*
X412443Y140477D01*
X412457Y140529D01*
X412471Y140562D01*
X412518Y140628D01*
X412537Y140694D01*
X412575Y140760D01*
X412594Y140779D01*
X412603Y140798D01*
X412622Y140845D01*
X412641Y140920D01*
X412683Y140972D01*
X412697Y140986D01*
X412716Y141034D01*
X412740Y141095D01*
X412773Y141128D01*
X412782Y141147D01*
X412811Y141213D01*
X412820Y141250D01*
X412863Y141302D01*
X412929Y141434D01*
X412952Y141467D01*
X412990Y141552D01*
X412999Y141571D01*
X413042Y141623D01*
X413056Y141628D01*
X413075Y141675D01*
X413098Y141736D01*
X413117Y141764D01*
X413136Y141774D01*
X413169Y141835D01*
X413207Y141901D01*
X413244Y141939D01*
X413277Y142028D01*
X413348Y142099D01*
X413362Y142151D01*
X413395Y142203D01*
X413423Y142231D01*
X413470Y142316D01*
X413518Y142363D01*
X413574Y142467D01*
X413612Y142504D01*
X413621Y142542D01*
X413664Y142594D01*
X413706Y142636D01*
X413744Y142702D01*
X413791Y142749D01*
X413810Y142796D01*
X413819Y142815D01*
X413838Y142834D01*
X413848Y142853D01*
X413885Y142891D01*
X413923Y142957D01*
X413956Y142980D01*
X413980Y143004D01*
X414017Y143070D01*
X414050Y143094D01*
X414088Y143150D01*
X414140Y143202D01*
X414178Y143268D01*
X414234Y143324D01*
X414277Y143405D01*
X414295Y143414D01*
X414338Y143447D01*
X414347Y143466D01*
X414390Y143518D01*
X414442Y143570D01*
X414451Y143588D01*
X414517Y143654D01*
X414545Y143701D01*
X414583Y143739D01*
X414592Y143758D01*
X414611Y143777D01*
X414621Y143796D01*
X414706Y143881D01*
X414715Y143899D01*
X414903Y144088D01*
X414913Y144107D01*
X414955Y144149D01*
X414969Y144154D01*
X414979Y144173D01*
X415073Y144267D01*
X415083Y144286D01*
X415116Y144319D01*
X415135Y144328D01*
X415167Y144361D01*
X415177Y144380D01*
X415210Y144413D01*
X415229Y144423D01*
X415248Y144442D01*
X415262Y144446D01*
X415271Y144465D01*
X415323Y144517D01*
X415342Y144526D01*
X415483Y144668D01*
X415502Y144677D01*
X415530Y144706D01*
X415549Y144715D01*
X415625Y144790D01*
X415644Y144800D01*
X415709Y144866D01*
X415728Y144875D01*
X415780Y144918D01*
X415823Y144960D01*
X415841Y144970D01*
X415884Y145002D01*
X415893Y145021D01*
X415917Y145045D01*
X415936Y145054D01*
X415988Y145097D01*
X416011Y145130D01*
X416030Y145139D01*
X416082Y145182D01*
X416134Y145233D01*
X416200Y145271D01*
X416247Y145318D01*
X416313Y145356D01*
X416369Y145413D01*
X416435Y145450D01*
X416483Y145497D01*
X416567Y145545D01*
X416605Y145582D01*
X416690Y145630D01*
X416704Y145644D01*
X416713Y145662D01*
X416728Y145677D01*
X416813Y145724D01*
X416831Y145743D01*
X416850Y145752D01*
X416869Y145771D01*
X416930Y145794D01*
X417001Y145865D01*
X417048Y145884D01*
X417100Y145926D01*
X417124Y145950D01*
X417199Y145978D01*
X417251Y146021D01*
X417293Y146044D01*
X417359Y146082D01*
X417388Y146110D01*
X417407Y146120D01*
X417510Y146176D01*
X417529Y146195D01*
X417548Y146205D01*
X417567Y146223D01*
X417628Y146247D01*
X417685Y146285D01*
X417708Y146308D01*
X417798Y146341D01*
X417812Y146355D01*
X417831Y146365D01*
X417859Y146393D01*
X417906Y146412D01*
X417944Y146421D01*
X417996Y146464D01*
X418005Y146483D01*
X418057Y146506D01*
X418109Y146520D01*
X418161Y146553D01*
X418180Y146572D01*
X418227Y146591D01*
X418264Y146600D01*
X418330Y146638D01*
X418349Y146657D01*
X418368Y146666D01*
X418415Y146685D01*
X418491Y146714D01*
X418528Y146751D01*
X418575Y146770D01*
X418637Y146784D01*
X418689Y146817D01*
X418726Y146855D01*
X418764Y146864D01*
X418835Y146879D01*
X418868Y146893D01*
X418915Y146940D01*
X418967Y146954D01*
X419014Y146963D01*
X419061Y146982D01*
X419103Y147025D01*
X419169Y147044D01*
X419254Y147062D01*
X419306Y147105D01*
X419320Y147119D01*
X419386Y147138D01*
X419448Y147152D01*
X419523Y147199D01*
X419565Y147213D01*
X419641Y147232D01*
X419693Y147246D01*
X419768Y147293D01*
X419829Y147317D01*
X419947Y147340D01*
X420023Y147388D01*
X420065Y147402D01*
X420103Y147411D01*
X420187Y147421D01*
X420253Y147458D01*
X420320Y147487D01*
X420357Y147496D01*
X420437Y147510D01*
X420485Y147520D01*
X420593Y147571D01*
X420668Y147590D01*
X420772Y147600D01*
X420895Y147656D01*
X421008Y147685D01*
X421121Y147694D01*
X421243Y147751D01*
X421319Y147769D01*
X421484Y147784D01*
X421531Y147802D01*
X421611Y147826D01*
X421677Y147845D01*
X421715Y147854D01*
X421837Y147864D01*
X421946Y147878D01*
X422049Y147916D01*
X422101Y147930D01*
X422233Y147949D01*
X422412Y147958D01*
X422450Y147967D01*
X422540Y147982D01*
X422577Y147991D01*
X422629Y148005D01*
X422691Y148019D01*
X422747Y148029D01*
X422841Y148038D01*
X423086Y148048D01*
X423209Y148057D01*
X423294Y148066D01*
X423350Y148076D01*
X423397Y148085D01*
X423454Y148095D01*
X423501Y148104D01*
X423624Y148113D01*
X423775Y148123D01*
X423944Y148132D01*
X425589Y148137D01*
X425618Y148128D01*
D02*
G37*
G36*
X412363Y121703D02*
X412415Y121651D01*
X412424Y121632D01*
X412467Y121609D01*
X412533Y121571D01*
X412561Y121543D01*
X412580Y121533D01*
X412646Y121486D01*
X412674Y121458D01*
X412693Y121448D01*
X412740Y121430D01*
X412787Y121401D01*
X412801Y121387D01*
X412811Y121368D01*
X412844Y121335D01*
X412910Y121298D01*
X412966Y121260D01*
X413032Y121222D01*
X413089Y121166D01*
X413136Y121147D01*
X413155Y121137D01*
X413211Y121081D01*
X413296Y121033D01*
X413324Y121005D01*
X413343Y120996D01*
X413428Y120949D01*
X413475Y120892D01*
X413513Y120883D01*
X413565Y120840D01*
X413588Y120817D01*
X413673Y120770D01*
X413711Y120732D01*
X413796Y120685D01*
X413834Y120647D01*
X413852Y120638D01*
X413937Y120590D01*
X413984Y120543D01*
X414069Y120496D01*
X414083Y120482D01*
X414093Y120463D01*
X414107Y120449D01*
X414154Y120430D01*
X414220Y120393D01*
X414229Y120374D01*
X414248Y120364D01*
X414333Y120317D01*
X414347Y120303D01*
X414357Y120284D01*
X414380Y120260D01*
X414427Y120242D01*
X414446Y120232D01*
X414475Y120204D01*
X414493Y120195D01*
X414512Y120176D01*
X414531Y120166D01*
X414583Y120124D01*
X414607Y120100D01*
X414625Y120091D01*
X414729Y120034D01*
X414757Y120006D01*
X414776Y119997D01*
X414842Y119959D01*
X414899Y119902D01*
X414918Y119893D01*
X414984Y119855D01*
X415021Y119817D01*
X415125Y119761D01*
X415163Y119723D01*
X415248Y119676D01*
X415262Y119662D01*
X415271Y119643D01*
X415285Y119629D01*
X415370Y119582D01*
X415408Y119544D01*
X415512Y119487D01*
X415530Y119459D01*
X415549Y119450D01*
X415615Y119412D01*
X415662Y119365D01*
X415747Y119318D01*
X415775Y119290D01*
X415794Y119280D01*
X415884Y119219D01*
X415908Y119195D01*
X416011Y119139D01*
X416068Y119082D01*
X416153Y119035D01*
X416181Y119007D01*
X416200Y118997D01*
X416289Y118936D01*
X416313Y118912D01*
X416360Y118893D01*
X416379Y118884D01*
X416421Y118851D01*
X416431Y118832D01*
X416445Y118818D01*
X416530Y118771D01*
X416558Y118743D01*
X416624Y118705D01*
X416676Y118663D01*
X416699Y118639D01*
X416803Y118582D01*
X416831Y118554D01*
X416879Y118526D01*
X416926Y118479D01*
X416992Y118450D01*
X417039Y118422D01*
X417053Y118408D01*
X417062Y118389D01*
X417086Y118366D01*
X417185Y118314D01*
X417190Y118300D01*
X417209Y118290D01*
X417227Y118271D01*
X417312Y118224D01*
X417326Y118210D01*
X417336Y118191D01*
X417378Y118168D01*
X417444Y118130D01*
X417482Y118092D01*
X417543Y118069D01*
X417576Y118045D01*
X417633Y117989D01*
X417699Y117951D01*
X417736Y117913D01*
X417835Y117861D01*
X417845Y117842D01*
X417859Y117828D01*
X417906Y117809D01*
X417925Y117800D01*
X417977Y117758D01*
X418000Y117734D01*
X418085Y117687D01*
X418123Y117649D01*
X418142Y117640D01*
X418231Y117578D01*
X418255Y117555D01*
X418321Y117517D01*
X418344Y117503D01*
X418354Y117484D01*
X418415Y117451D01*
X418462Y117423D01*
X418519Y117366D01*
X418585Y117329D01*
X418623Y117291D01*
X418641Y117282D01*
X418707Y117244D01*
X418745Y117206D01*
X418764Y117197D01*
X418830Y117159D01*
X418849Y117140D01*
X418868Y117131D01*
X418886Y117112D01*
X418971Y117065D01*
X419009Y117027D01*
X419113Y116970D01*
X419169Y116914D01*
X419235Y116876D01*
X419273Y116838D01*
X419292Y116829D01*
X419358Y116791D01*
X419410Y116749D01*
X419490Y116706D01*
X419547Y116650D01*
X419631Y116603D01*
X419669Y116565D01*
X419754Y116518D01*
X419810Y116461D01*
X419872Y116438D01*
X419905Y116414D01*
X419942Y116376D01*
X419990Y116358D01*
X420008Y116348D01*
X420041Y116325D01*
X420051Y116306D01*
X420084Y116273D01*
X420150Y116235D01*
X420178Y116207D01*
X420282Y116150D01*
X420320Y116103D01*
X420423Y116046D01*
X420442Y116028D01*
X420461Y116018D01*
X420480Y115999D01*
X420499Y115990D01*
X420593Y115924D01*
X420659Y115886D01*
X420673Y115872D01*
X420682Y115853D01*
X420697Y115839D01*
X420781Y115792D01*
X420819Y115754D01*
X420904Y115707D01*
X420956Y115665D01*
X420970Y115651D01*
X421036Y115613D01*
X421130Y115547D01*
X421149Y115537D01*
X421168Y115519D01*
X421187Y115509D01*
X421225Y115471D01*
X421286Y115448D01*
X421319Y115424D01*
X421366Y115377D01*
X421470Y115321D01*
X421507Y115283D01*
X421573Y115245D01*
X421620Y115198D01*
X421705Y115151D01*
X421743Y115113D01*
X421762Y115104D01*
X421828Y115066D01*
X421866Y115028D01*
X421884Y115019D01*
X421950Y114981D01*
X421988Y114944D01*
X422007Y114934D01*
X422096Y114873D01*
X422130Y114840D01*
X422148Y114830D01*
X422214Y114793D01*
X422262Y114746D01*
X422309Y114727D01*
X422356Y114698D01*
X422403Y114651D01*
X422488Y114604D01*
X422535Y114557D01*
X422601Y114519D01*
X422639Y114482D01*
X422686Y114463D01*
X422747Y114430D01*
X422757Y114411D01*
X422789Y114378D01*
X422874Y114331D01*
X422903Y114302D01*
X422921Y114293D01*
X423011Y114232D01*
X423025Y114218D01*
X423044Y114208D01*
X423063Y114189D01*
X423110Y114161D01*
X423176Y114114D01*
X423223Y114095D01*
X423242Y114086D01*
X423284Y114043D01*
X423289Y114029D01*
X423308Y114020D01*
X423393Y113973D01*
X423440Y113925D01*
X423459Y113916D01*
X423525Y113869D01*
X423581Y113831D01*
X423647Y113793D01*
X423694Y113746D01*
X423760Y113708D01*
X423789Y113680D01*
X423874Y113633D01*
X423925Y113591D01*
X423949Y113567D01*
X424015Y113529D01*
X424067Y113487D01*
X424142Y113440D01*
X424166Y113416D01*
X424185Y113407D01*
X424241Y113369D01*
X424260Y113360D01*
X424312Y113317D01*
X424336Y113294D01*
X424420Y113247D01*
X424449Y113218D01*
X424468Y113209D01*
X424557Y113148D01*
X424590Y113115D01*
X424675Y113067D01*
X424722Y113020D01*
X424774Y113006D01*
X424807Y112992D01*
X424840Y112959D01*
X424849Y112940D01*
X424930Y112898D01*
X424986Y112841D01*
X425047Y112818D01*
X425061Y112803D01*
X425080Y112794D01*
X425104Y112761D01*
X425184Y112719D01*
X425231Y112671D01*
X425335Y112615D01*
X425382Y112568D01*
X425401Y112558D01*
X425490Y112497D01*
X425504Y112483D01*
X425570Y112445D01*
X425608Y112408D01*
X425693Y112360D01*
X425745Y112318D01*
X425759Y112304D01*
X425825Y112266D01*
X425872Y112219D01*
X425938Y112181D01*
X425966Y112153D01*
X425985Y112144D01*
X426042Y112106D01*
X426061Y112096D01*
X426155Y112030D01*
X426174Y112021D01*
X426226Y111979D01*
X426282Y111941D01*
X426334Y111908D01*
X426386Y111866D01*
X426400Y111851D01*
X426419Y111842D01*
X426508Y111781D01*
X426523Y111767D01*
X426626Y111710D01*
X426664Y111672D01*
X426749Y111625D01*
X426758Y111606D01*
X426777Y111597D01*
X426843Y111559D01*
X426895Y111517D01*
X426919Y111493D01*
X427004Y111446D01*
X427027Y111413D01*
X427135Y111352D01*
X427183Y111305D01*
X427244Y111281D01*
X427277Y111257D01*
X427291Y111243D01*
X427300Y111224D01*
X427315Y111210D01*
X427381Y111173D01*
X427409Y111144D01*
X427428Y111135D01*
X427494Y111107D01*
X427513Y111097D01*
X427555Y111055D01*
X427560Y111041D01*
X427579Y111031D01*
X427663Y110984D01*
X427720Y110927D01*
X427758Y110918D01*
X427776Y110899D01*
X427795Y110890D01*
X427824Y110861D01*
X427842Y110852D01*
X427909Y110814D01*
X427932Y110781D01*
X427946Y110767D01*
X428008Y110744D01*
X428022Y110730D01*
X428041Y110720D01*
X428088Y110673D01*
X428106Y110663D01*
X428172Y110626D01*
X428201Y110597D01*
X428220Y110588D01*
X428238Y110569D01*
X428286Y110541D01*
X428304Y110522D01*
X428323Y110513D01*
X428342Y110494D01*
X428408Y110456D01*
X428446Y110418D01*
X428465Y110409D01*
X428568Y110352D01*
X428616Y110305D01*
X428663Y110286D01*
X428710Y110258D01*
X428757Y110211D01*
X428804Y110183D01*
X428842Y110145D01*
X428927Y110098D01*
X428974Y110051D01*
X429040Y110022D01*
X429059Y110013D01*
X429125Y109947D01*
X429210Y109900D01*
X429238Y109872D01*
X429257Y109862D01*
X429346Y109801D01*
X429379Y109768D01*
X429398Y109759D01*
X429464Y109711D01*
X429483Y109692D01*
X429502Y109683D01*
X429605Y109627D01*
X429619Y109612D01*
X429624Y109598D01*
X429643Y109589D01*
X429709Y109551D01*
X429733Y109537D01*
X429742Y109518D01*
X429756Y109504D01*
X429775Y109494D01*
X429841Y109457D01*
X429888Y109410D01*
X429935Y109391D01*
X429982Y109362D01*
X430006Y109339D01*
X430011Y109325D01*
X430030Y109315D01*
X430115Y109268D01*
X430152Y109230D01*
X430171Y109221D01*
X430261Y109160D01*
X430284Y109136D01*
X430350Y109099D01*
X430378Y109070D01*
X430397Y109061D01*
X430482Y109014D01*
X430548Y108948D01*
X430652Y108891D01*
X430680Y108863D01*
X430699Y108853D01*
X430765Y108806D01*
X430793Y108778D01*
X430892Y108726D01*
X430902Y108707D01*
X430925Y108684D01*
X430991Y108646D01*
X431043Y108604D01*
X431152Y108542D01*
X431189Y108505D01*
X431208Y108495D01*
X431331Y108410D01*
X431349Y108401D01*
X431401Y108358D01*
X431415Y108344D01*
X431434Y108335D01*
X431500Y108297D01*
X431552Y108255D01*
X431557Y108241D01*
X431576Y108231D01*
X431679Y108175D01*
X431727Y108127D01*
X431793Y108090D01*
X431830Y108052D01*
X431915Y108005D01*
X431939Y107981D01*
X431943Y107967D01*
X431991Y107948D01*
X432052Y107925D01*
X432071Y107906D01*
X432080Y107887D01*
X432113Y107854D01*
X432151Y107845D01*
X432207Y107788D01*
X432226Y107779D01*
X432311Y107732D01*
X432358Y107684D01*
X432443Y107637D01*
X432481Y107600D01*
X432566Y107552D01*
X432603Y107515D01*
X432622Y107505D01*
X432688Y107458D01*
X432707Y107449D01*
X432735Y107421D01*
X432820Y107373D01*
X432858Y107336D01*
X432877Y107326D01*
X432943Y107289D01*
X432990Y107241D01*
X433009Y107232D01*
X433075Y107194D01*
X433112Y107156D01*
X433131Y107147D01*
X433197Y107100D01*
X433226Y107072D01*
X433244Y107062D01*
X433329Y107015D01*
X433381Y106973D01*
X433395Y106959D01*
X433461Y106921D01*
X433513Y106878D01*
X433617Y106812D01*
X433659Y106770D01*
X433678Y106761D01*
X433763Y106713D01*
X433782Y106695D01*
X433801Y106685D01*
X433890Y106624D01*
X433914Y106600D01*
X433998Y106553D01*
X434036Y106516D01*
X434121Y106468D01*
X434159Y106431D01*
X434178Y106421D01*
X434263Y106355D01*
X434319Y106318D01*
X434357Y106308D01*
X434423Y106242D01*
X434522Y106190D01*
X434531Y106171D01*
X434574Y106129D01*
X434611Y106119D01*
X434640Y106091D01*
X434659Y106082D01*
X434677Y106063D01*
X434725Y106044D01*
X434743Y106035D01*
X434776Y106011D01*
X434786Y105992D01*
X434819Y105959D01*
X434856Y105950D01*
X434918Y105907D01*
X434927Y105889D01*
X434941Y105874D01*
X434988Y105856D01*
X435036Y105827D01*
X435083Y105780D01*
X435149Y105742D01*
X435196Y105695D01*
X435233Y105686D01*
X435299Y105639D01*
X435328Y105610D01*
X435347Y105601D01*
X435436Y105540D01*
X435460Y105516D01*
X435545Y105469D01*
X435564Y105450D01*
X435582Y105441D01*
X435601Y105422D01*
X435620Y105413D01*
X435705Y105346D01*
X435790Y105299D01*
X435846Y105243D01*
X435893Y105224D01*
X435912Y105215D01*
X435964Y105172D01*
X435988Y105148D01*
X436054Y105111D01*
X436091Y105073D01*
X436157Y105035D01*
X436204Y104988D01*
X436327Y104922D01*
X436374Y104875D01*
X436459Y104828D01*
X436487Y104800D01*
X436506Y104790D01*
X436596Y104729D01*
X436629Y104696D01*
X436695Y104658D01*
X436742Y104611D01*
X436789Y104592D01*
X436836Y104564D01*
X436883Y104517D01*
X436968Y104470D01*
X437006Y104432D01*
X437025Y104423D01*
X437114Y104361D01*
X437138Y104338D01*
X437176Y104328D01*
X437227Y104295D01*
X437237Y104277D01*
X437270Y104243D01*
X437317Y104225D01*
X437336Y104215D01*
X437388Y104173D01*
X437402Y104159D01*
X437421Y104149D01*
X437510Y104088D01*
X437534Y104064D01*
X437600Y104027D01*
X437619Y104008D01*
X437637Y103998D01*
X437713Y103951D01*
X437732Y103942D01*
X437788Y103885D01*
X437873Y103838D01*
X437911Y103800D01*
X438015Y103744D01*
X438029Y103730D01*
X438033Y103715D01*
X438052Y103706D01*
X438071Y103687D01*
X438137Y103650D01*
X438175Y103612D01*
X438241Y103574D01*
X438279Y103536D01*
X438382Y103480D01*
X438410Y103452D01*
X438429Y103442D01*
X438448Y103423D01*
X438514Y103386D01*
X438561Y103338D01*
X438623Y103324D01*
X438660Y103306D01*
X438670Y103268D01*
X438660Y94349D01*
X438646Y94335D01*
X438618Y94345D01*
X438561Y94382D01*
X438543Y94392D01*
X438509Y94425D01*
X438500Y94444D01*
X438476Y94467D01*
X438429Y94486D01*
X438377Y94529D01*
X438363Y94543D01*
X438316Y94562D01*
X438269Y94590D01*
X438203Y94656D01*
X438137Y94694D01*
X438109Y94722D01*
X438005Y94778D01*
X437967Y94816D01*
X437949Y94826D01*
X437883Y94863D01*
X437836Y94910D01*
X437732Y94967D01*
X437685Y95014D01*
X437619Y95052D01*
X437553Y95099D01*
X437534Y95108D01*
X437482Y95151D01*
X437449Y95184D01*
X437397Y95198D01*
X437345Y95231D01*
X437322Y95264D01*
X437298Y95288D01*
X437251Y95306D01*
X437199Y95349D01*
X437185Y95363D01*
X437166Y95372D01*
X437077Y95434D01*
X437053Y95457D01*
X436987Y95495D01*
X436949Y95533D01*
X436883Y95561D01*
X436836Y95589D01*
X436770Y95655D01*
X436704Y95693D01*
X436685Y95712D01*
X436666Y95721D01*
X436577Y95782D01*
X436544Y95815D01*
X436459Y95863D01*
X436421Y95900D01*
X436403Y95910D01*
X436270Y96004D01*
X436204Y96042D01*
X436148Y96098D01*
X436063Y96145D01*
X436035Y96174D01*
X436016Y96183D01*
X435950Y96221D01*
X435931Y96240D01*
X435912Y96249D01*
X435893Y96268D01*
X435809Y96315D01*
X435761Y96362D01*
X435677Y96409D01*
X435648Y96438D01*
X435630Y96447D01*
X435545Y96513D01*
X435516Y96541D01*
X435469Y96560D01*
X435422Y96588D01*
X435375Y96636D01*
X435290Y96683D01*
X435252Y96721D01*
X435168Y96768D01*
X435139Y96796D01*
X435120Y96805D01*
X435054Y96843D01*
X435007Y96890D01*
X434988Y96900D01*
X434904Y96947D01*
X434866Y96984D01*
X434847Y96994D01*
X434781Y97041D01*
X434762Y97060D01*
X434743Y97069D01*
X434677Y97107D01*
X434626Y97149D01*
X434621Y97164D01*
X434602Y97173D01*
X434536Y97211D01*
X434479Y97267D01*
X434432Y97286D01*
X434385Y97314D01*
X434347Y97352D01*
X434263Y97399D01*
X434215Y97446D01*
X434131Y97493D01*
X434079Y97536D01*
X434064Y97550D01*
X433980Y97597D01*
X433956Y97621D01*
X433947Y97640D01*
X433895Y97663D01*
X433829Y97701D01*
X433801Y97729D01*
X433782Y97739D01*
X433730Y97781D01*
X433716Y97795D01*
X433697Y97805D01*
X433612Y97852D01*
X433574Y97889D01*
X433555Y97899D01*
X433489Y97937D01*
X433452Y97974D01*
X433433Y97984D01*
X433343Y98045D01*
X433320Y98069D01*
X433301Y98078D01*
X433216Y98125D01*
X433169Y98172D01*
X433122Y98191D01*
X433089Y98215D01*
X433079Y98234D01*
X433046Y98267D01*
X432962Y98314D01*
X432924Y98351D01*
X432905Y98361D01*
X432839Y98399D01*
X432801Y98436D01*
X432782Y98446D01*
X432716Y98483D01*
X432679Y98521D01*
X432575Y98578D01*
X432528Y98625D01*
X432462Y98663D01*
X432434Y98691D01*
X432415Y98700D01*
X432311Y98757D01*
X432254Y98813D01*
X432170Y98861D01*
X432132Y98898D01*
X432047Y98945D01*
X431991Y99002D01*
X431972Y99011D01*
X431920Y99054D01*
X431849Y99096D01*
X431830Y99106D01*
X431778Y99148D01*
X431764Y99162D01*
X431698Y99190D01*
X431651Y99219D01*
X431595Y99275D01*
X431547Y99304D01*
X431543Y99308D01*
X431538Y99313D01*
X431510Y99341D01*
X431425Y99388D01*
X431406Y99407D01*
X431387Y99417D01*
X431368Y99436D01*
X431349Y99445D01*
X431283Y99492D01*
X431246Y99530D01*
X431142Y99586D01*
X431114Y99615D01*
X431048Y99652D01*
X431001Y99699D01*
X430982Y99709D01*
X430897Y99756D01*
X430859Y99794D01*
X430756Y99850D01*
X430718Y99888D01*
X430633Y99935D01*
X430619Y99949D01*
X430614Y99964D01*
X430595Y99973D01*
X430510Y100020D01*
X430463Y100067D01*
X430444Y100077D01*
X430378Y100114D01*
X430341Y100152D01*
X430256Y100199D01*
X430209Y100246D01*
X430162Y100265D01*
X430115Y100293D01*
X430058Y100350D01*
X429973Y100397D01*
X429935Y100435D01*
X429916Y100444D01*
X429851Y100491D01*
X429832Y100510D01*
X429813Y100520D01*
X429723Y100581D01*
X429700Y100604D01*
X429634Y100633D01*
X429615Y100642D01*
X429572Y100675D01*
X429563Y100694D01*
X429549Y100708D01*
X429530Y100718D01*
X429464Y100765D01*
X429407Y100802D01*
X429360Y100831D01*
X429308Y100873D01*
X429294Y100887D01*
X429228Y100925D01*
X429176Y100968D01*
X429096Y101019D01*
X429068Y101048D01*
X429049Y101057D01*
X428983Y101095D01*
X428927Y101151D01*
X428908Y101161D01*
X428823Y101208D01*
X428776Y101255D01*
X428672Y101312D01*
X428644Y101340D01*
X428559Y101387D01*
X428545Y101401D01*
X428540Y101415D01*
X428521Y101425D01*
X428436Y101472D01*
X428399Y101510D01*
X428380Y101519D01*
X428295Y101585D01*
X428276Y101604D01*
X428172Y101660D01*
X428135Y101698D01*
X428116Y101707D01*
X428050Y101745D01*
X428012Y101783D01*
X427993Y101792D01*
X427904Y101854D01*
X427890Y101868D01*
X427871Y101877D01*
X427805Y101915D01*
X427758Y101962D01*
X427673Y102009D01*
X427654Y102028D01*
X427635Y102037D01*
X427616Y102056D01*
X427550Y102094D01*
X427503Y102141D01*
X427418Y102188D01*
X427395Y102203D01*
X427385Y102221D01*
X427371Y102235D01*
X427286Y102283D01*
X427230Y102339D01*
X427168Y102363D01*
X427112Y102410D01*
X427070Y102433D01*
X427022Y102462D01*
X426966Y102518D01*
X426881Y102565D01*
X426834Y102612D01*
X426749Y102660D01*
X426702Y102707D01*
X426612Y102740D01*
X426551Y102801D01*
X426504Y102829D01*
X426466Y102867D01*
X426447Y102877D01*
X426362Y102924D01*
X426315Y102971D01*
X426249Y103008D01*
X426230Y103027D01*
X426212Y103037D01*
X426193Y103056D01*
X426174Y103065D01*
X426127Y103093D01*
X426075Y103136D01*
X425966Y103197D01*
X425938Y103235D01*
X425891Y103254D01*
X425872Y103263D01*
X425830Y103306D01*
X425820Y103324D01*
X425740Y103367D01*
X425693Y103414D01*
X425674Y103423D01*
X425608Y103461D01*
X425589Y103480D01*
X425570Y103489D01*
X425552Y103508D01*
X425467Y103555D01*
X425429Y103593D01*
X425325Y103650D01*
X425278Y103697D01*
X425212Y103734D01*
X425175Y103772D01*
X425127Y103791D01*
X425080Y103819D01*
X425033Y103866D01*
X425014Y103876D01*
X424948Y103913D01*
X424901Y103961D01*
X424882Y103970D01*
X424816Y104008D01*
X424798Y104027D01*
X424779Y104036D01*
X424741Y104074D01*
X424722Y104083D01*
X424599Y104168D01*
X424552Y104196D01*
X424515Y104234D01*
X424453Y104258D01*
X424416Y104277D01*
X424406Y104295D01*
X424373Y104328D01*
X424307Y104366D01*
X424260Y104413D01*
X424175Y104460D01*
X424147Y104489D01*
X424128Y104498D01*
X424062Y104536D01*
X424006Y104592D01*
X423921Y104639D01*
X423902Y104658D01*
X423883Y104668D01*
X423864Y104687D01*
X423845Y104696D01*
X423779Y104743D01*
X423751Y104771D01*
X423666Y104818D01*
X423638Y104847D01*
X423619Y104856D01*
X423515Y104913D01*
X423468Y104960D01*
X423402Y104998D01*
X423346Y105054D01*
X423270Y105083D01*
X423247Y105097D01*
X423237Y105115D01*
X423214Y105139D01*
X423129Y105186D01*
X423091Y105224D01*
X423025Y105262D01*
X422987Y105299D01*
X422969Y105309D01*
X422865Y105365D01*
X422827Y105413D01*
X422724Y105469D01*
X422695Y105497D01*
X422676Y105507D01*
X422592Y105573D01*
X422544Y105601D01*
X422525Y105610D01*
X422474Y105653D01*
X422450Y105676D01*
X422403Y105695D01*
X422337Y105733D01*
X422290Y105790D01*
X422224Y105827D01*
X422196Y105856D01*
X422177Y105865D01*
X422092Y105912D01*
X422054Y105950D01*
X422035Y105959D01*
X421946Y106020D01*
X421922Y106044D01*
X421837Y106091D01*
X421809Y106119D01*
X421790Y106129D01*
X421672Y106219D01*
X421658Y106233D01*
X421592Y106270D01*
X421545Y106318D01*
X421526Y106327D01*
X421441Y106374D01*
X421423Y106393D01*
X421404Y106402D01*
X421338Y106440D01*
X421281Y106497D01*
X421196Y106544D01*
X421078Y106633D01*
X421059Y106643D01*
X421050Y106662D01*
X420942Y106723D01*
X420904Y106761D01*
X420819Y106808D01*
X420796Y106822D01*
X420791Y106836D01*
X420772Y106845D01*
X420753Y106864D01*
X420668Y106911D01*
X420640Y106940D01*
X420621Y106949D01*
X420489Y107043D01*
X420470Y107053D01*
X420404Y107100D01*
X420386Y107119D01*
X420320Y107156D01*
X420282Y107194D01*
X420263Y107204D01*
X420178Y107251D01*
X420112Y107317D01*
X420027Y107364D01*
X419990Y107402D01*
X419886Y107458D01*
X419848Y107496D01*
X419801Y107515D01*
X419735Y107581D01*
X419688Y107600D01*
X419669Y107609D01*
X419617Y107651D01*
X419584Y107684D01*
X419499Y107732D01*
X419452Y107779D01*
X419414Y107788D01*
X419353Y107821D01*
X419344Y107840D01*
X419330Y107854D01*
X419311Y107864D01*
X419226Y107930D01*
X419207Y107948D01*
X419146Y107972D01*
X419113Y108005D01*
X419094Y108014D01*
X419066Y108043D01*
X419000Y108080D01*
X418981Y108099D01*
X418962Y108109D01*
X418943Y108127D01*
X418877Y108165D01*
X418849Y108194D01*
X418830Y108203D01*
X418745Y108250D01*
X418689Y108307D01*
X418641Y108326D01*
X418623Y108335D01*
X418608Y108349D01*
X418599Y108368D01*
X418566Y108401D01*
X418519Y108420D01*
X418500Y108429D01*
X418476Y108443D01*
X418467Y108462D01*
X418453Y108476D01*
X418434Y108486D01*
X418368Y108524D01*
X418344Y108538D01*
X418335Y108556D01*
X418321Y108571D01*
X418217Y108627D01*
X418170Y108674D01*
X418109Y108698D01*
X418052Y108745D01*
X418029Y108769D01*
X417963Y108806D01*
X417925Y108844D01*
X417821Y108901D01*
X417774Y108948D01*
X417708Y108985D01*
X417656Y109028D01*
X417576Y109070D01*
X417529Y109117D01*
X417510Y109127D01*
X417444Y109174D01*
X417425Y109183D01*
X417407Y109202D01*
X417303Y109259D01*
X417256Y109306D01*
X417171Y109353D01*
X417124Y109400D01*
X417058Y109438D01*
X417020Y109476D01*
X416935Y109523D01*
X416888Y109570D01*
X416869Y109579D01*
X416803Y109617D01*
X416765Y109655D01*
X416699Y109692D01*
X416648Y109735D01*
X416633Y109749D01*
X416615Y109759D01*
X416549Y109796D01*
X416511Y109834D01*
X416492Y109843D01*
X416426Y109881D01*
X416388Y109919D01*
X416369Y109928D01*
X416285Y109975D01*
X416237Y110022D01*
X416153Y110070D01*
X416129Y110093D01*
X416124Y110107D01*
X416105Y110117D01*
X416058Y110135D01*
X416011Y110164D01*
X415964Y110211D01*
X415879Y110258D01*
X415841Y110296D01*
X415775Y110333D01*
X415728Y110381D01*
X415681Y110400D01*
X415634Y110428D01*
X415578Y110484D01*
X415493Y110532D01*
X415474Y110550D01*
X415455Y110560D01*
X415389Y110607D01*
X415370Y110616D01*
X415332Y110654D01*
X415248Y110701D01*
X415210Y110739D01*
X415106Y110795D01*
X415050Y110852D01*
X414984Y110890D01*
X414936Y110937D01*
X414875Y110960D01*
X414842Y110984D01*
X414804Y111022D01*
X414720Y111069D01*
X414706Y111083D01*
X414701Y111097D01*
X414682Y111107D01*
X414597Y111154D01*
X414559Y111191D01*
X414540Y111201D01*
X414475Y111248D01*
X414456Y111257D01*
X414408Y111305D01*
X414343Y111342D01*
X414295Y111389D01*
X414248Y111408D01*
X414201Y111437D01*
X414173Y111465D01*
X414154Y111474D01*
X414088Y111512D01*
X414041Y111559D01*
X413956Y111606D01*
X413918Y111644D01*
X413899Y111653D01*
X413834Y111700D01*
X413815Y111710D01*
X413786Y111738D01*
X413702Y111785D01*
X413654Y111833D01*
X413551Y111889D01*
X413513Y111927D01*
X413447Y111964D01*
X413400Y112012D01*
X413315Y112059D01*
X413287Y112087D01*
X413268Y112096D01*
X413183Y112144D01*
X413126Y112200D01*
X413042Y112247D01*
X413004Y112285D01*
X412957Y112304D01*
X412938Y112313D01*
X412872Y112379D01*
X412825Y112398D01*
X412806Y112408D01*
X412773Y112431D01*
X412763Y112450D01*
X412740Y112473D01*
X412702Y112483D01*
X412636Y112521D01*
X412598Y112568D01*
X412537Y112591D01*
X412476Y112653D01*
X412391Y112700D01*
X412344Y112747D01*
X412306Y112756D01*
X412273Y112789D01*
X412264Y112837D01*
X412273Y112865D01*
X412268Y121656D01*
X412278Y121693D01*
X412297Y121712D01*
X412363Y121703D01*
D02*
G37*
G36*
X426541Y100604D02*
X426593Y100562D01*
X426674Y100520D01*
X426711Y100482D01*
X426730Y100472D01*
X426815Y100425D01*
X426867Y100383D01*
X426970Y100317D01*
X427013Y100275D01*
X427079Y100237D01*
X427135Y100180D01*
X427197Y100157D01*
X427230Y100133D01*
X427267Y100096D01*
X427352Y100048D01*
X427399Y100001D01*
X427484Y99954D01*
X427513Y99926D01*
X427531Y99916D01*
X427621Y99855D01*
X427645Y99831D01*
X427663Y99822D01*
X427729Y99784D01*
X427781Y99742D01*
X427852Y99699D01*
X427871Y99690D01*
X427927Y99634D01*
X427975Y99615D01*
X427993Y99605D01*
X428050Y99549D01*
X428135Y99501D01*
X428187Y99459D01*
X428262Y99412D01*
X428314Y99360D01*
X428399Y99313D01*
X428465Y99266D01*
X428531Y99228D01*
X428545Y99214D01*
X428549Y99200D01*
X428568Y99190D01*
X428587Y99172D01*
X428616Y99162D01*
X428667Y99120D01*
X428681Y99106D01*
X428785Y99049D01*
X428832Y99002D01*
X428870Y98993D01*
X428922Y98950D01*
X428955Y98917D01*
X429040Y98870D01*
X429068Y98842D01*
X429087Y98832D01*
X429153Y98785D01*
X429172Y98776D01*
X429219Y98729D01*
X429304Y98681D01*
X429341Y98644D01*
X429389Y98625D01*
X429407Y98615D01*
X429440Y98592D01*
X429450Y98573D01*
X429464Y98559D01*
X429549Y98512D01*
X429586Y98474D01*
X429671Y98427D01*
X429719Y98380D01*
X429737Y98370D01*
X429803Y98333D01*
X429841Y98295D01*
X429926Y98248D01*
X429954Y98219D01*
X429973Y98210D01*
X429992Y98191D01*
X430077Y98144D01*
X430091Y98130D01*
X430096Y98116D01*
X430115Y98106D01*
X430199Y98059D01*
X430237Y98021D01*
X430256Y98012D01*
X430322Y97974D01*
X430378Y97918D01*
X430463Y97871D01*
X430510Y97823D01*
X430595Y97776D01*
X430624Y97748D01*
X430642Y97739D01*
X430708Y97701D01*
X430765Y97644D01*
X430812Y97626D01*
X430831Y97616D01*
X430883Y97574D01*
X430906Y97550D01*
X430972Y97512D01*
X431024Y97470D01*
X431128Y97404D01*
X431142Y97390D01*
X431161Y97380D01*
X431250Y97319D01*
X431283Y97286D01*
X431368Y97239D01*
X431415Y97192D01*
X431482Y97154D01*
X431519Y97116D01*
X431538Y97107D01*
X431604Y97069D01*
X431632Y97041D01*
X431651Y97032D01*
X431708Y96994D01*
X431727Y96984D01*
X431755Y96956D01*
X431774Y96947D01*
X431793Y96928D01*
X431877Y96881D01*
X431925Y96834D01*
X432009Y96786D01*
X432028Y96768D01*
X432047Y96758D01*
X432113Y96721D01*
X432165Y96678D01*
X432198Y96645D01*
X432236Y96636D01*
X432254Y96617D01*
X432269Y96612D01*
X432278Y96593D01*
X432302Y96570D01*
X432368Y96541D01*
X432387Y96532D01*
X432410Y96518D01*
X432420Y96499D01*
X432443Y96475D01*
X432462Y96466D01*
X432551Y96405D01*
X432575Y96381D01*
X432655Y96339D01*
X432665Y96320D01*
X432698Y96296D01*
X432782Y96249D01*
X432797Y96235D01*
X432806Y96216D01*
X432820Y96202D01*
X432886Y96174D01*
X432905Y96164D01*
X432962Y96108D01*
X433037Y96079D01*
X433060Y96065D01*
X433070Y96046D01*
X433103Y96013D01*
X433188Y95966D01*
X433226Y95929D01*
X433310Y95881D01*
X433358Y95834D01*
X433376Y95825D01*
X433442Y95778D01*
X433499Y95740D01*
X433546Y95712D01*
X433640Y95646D01*
X433687Y95618D01*
X433735Y95570D01*
X433753Y95561D01*
X433819Y95514D01*
X433848Y95485D01*
X433933Y95438D01*
X433970Y95401D01*
X434074Y95344D01*
X434112Y95306D01*
X434197Y95259D01*
X434244Y95212D01*
X434328Y95165D01*
X434385Y95108D01*
X434446Y95085D01*
X434479Y95061D01*
X434508Y95033D01*
X434526Y95023D01*
X434616Y94962D01*
X434649Y94929D01*
X434734Y94882D01*
X434762Y94854D01*
X434781Y94844D01*
X434847Y94797D01*
X434866Y94788D01*
X434904Y94750D01*
X434988Y94703D01*
X435017Y94675D01*
X435036Y94665D01*
X435102Y94628D01*
X435149Y94580D01*
X435168Y94571D01*
X435252Y94524D01*
X435299Y94477D01*
X435384Y94430D01*
X435422Y94392D01*
X435507Y94345D01*
X435564Y94288D01*
X435648Y94241D01*
X435667Y94222D01*
X435686Y94213D01*
X435776Y94151D01*
X435818Y94109D01*
X435903Y94062D01*
X435931Y94034D01*
X436016Y93987D01*
X436063Y93939D01*
X436148Y93892D01*
X436176Y93864D01*
X436195Y93855D01*
X436261Y93817D01*
X436299Y93779D01*
X436318Y93770D01*
X436337Y93751D01*
X436403Y93713D01*
X436440Y93675D01*
X436459Y93666D01*
X436525Y93628D01*
X436572Y93581D01*
X436619Y93562D01*
X436666Y93534D01*
X436714Y93487D01*
X436799Y93440D01*
X436836Y93402D01*
X436855Y93393D01*
X436921Y93345D01*
X436940Y93327D01*
X436959Y93317D01*
X436978Y93298D01*
X437044Y93261D01*
X437138Y93195D01*
X437185Y93166D01*
X437213Y93138D01*
X437232Y93129D01*
X437298Y93091D01*
X437355Y93034D01*
X437454Y92983D01*
X437458Y92968D01*
X437477Y92959D01*
X437496Y92940D01*
X437562Y92902D01*
X437595Y92879D01*
X437600Y92865D01*
X437619Y92855D01*
X437685Y92817D01*
X437732Y92770D01*
X437751Y92761D01*
X437836Y92714D01*
X437873Y92676D01*
X437892Y92667D01*
X437958Y92620D01*
X437996Y92582D01*
X438043Y92563D01*
X438090Y92535D01*
X438128Y92497D01*
X438147Y92488D01*
X438213Y92450D01*
X438250Y92412D01*
X438269Y92403D01*
X438335Y92365D01*
X438363Y92337D01*
X438382Y92327D01*
X438410Y92299D01*
X438476Y92261D01*
X438505Y92233D01*
X438571Y92205D01*
X438590Y92195D01*
X438623Y92162D01*
X438613Y92115D01*
X438599Y92101D01*
X438486Y92092D01*
X438458Y92101D01*
X431491D01*
X412278Y92111D01*
X412235Y92143D01*
X412226Y92181D01*
X412245Y92275D01*
X412235Y92304D01*
X412245Y92502D01*
X412235Y92530D01*
X412245Y100581D01*
X412268Y100604D01*
X412306Y100614D01*
X426541Y100604D01*
D02*
G37*
G36*
X412533Y89971D02*
X438651Y89975D01*
X438684Y89961D01*
X438717Y89937D01*
X438736Y89890D01*
X438726Y89626D01*
Y87109D01*
Y87100D01*
X438731Y82165D01*
X438726Y81990D01*
X438736Y81962D01*
X438726Y81868D01*
X438684Y81825D01*
X438618Y81816D01*
X438312Y81821D01*
X438213Y81816D01*
X438184Y81825D01*
X438147Y81816D01*
X412372Y81825D01*
X412339Y81858D01*
X412330Y81896D01*
X412320Y81953D01*
X412330Y81981D01*
X412325Y89886D01*
X412335Y89923D01*
X412349Y89937D01*
X412353Y89952D01*
X412372Y89961D01*
X412401Y89971D01*
X412438Y89980D01*
X412533Y89971D01*
D02*
G37*
%LPC*%
G36*
X424920Y54081D02*
X424515Y54071D01*
X424486Y54062D01*
X424251Y54052D01*
X424222Y54043D01*
X423968Y54024D01*
X423671Y54010D01*
X423586Y54001D01*
X423482Y53982D01*
X423402Y53958D01*
X423364Y53949D01*
X423298Y53939D01*
X423176Y53930D01*
X423138Y53920D01*
X423044Y53911D01*
X422959Y53892D01*
X422903Y53854D01*
X422780Y53845D01*
X422742Y53836D01*
X422667Y53826D01*
X422544Y53770D01*
X422507Y53760D01*
X422370Y53737D01*
X422295Y53708D01*
X422177Y53656D01*
X422078Y53642D01*
X422031Y53623D01*
X421960Y53581D01*
X421861Y53557D01*
X421814Y53539D01*
X421757Y53501D01*
X421696Y53477D01*
X421630Y53458D01*
X421536Y53402D01*
X421470Y53383D01*
X421408Y53359D01*
X421366Y53317D01*
X421319Y53298D01*
X421229Y53265D01*
X421196Y53232D01*
X421177Y53223D01*
X421111Y53194D01*
X421045Y53157D01*
X421017Y53128D01*
X420932Y53091D01*
X420913Y53081D01*
X420885Y53053D01*
X420866Y53044D01*
X420781Y52997D01*
X420734Y52949D01*
X420715Y52940D01*
X420612Y52883D01*
X420565Y52836D01*
X420499Y52799D01*
X420461Y52761D01*
X420442Y52751D01*
X420357Y52685D01*
X420338Y52667D01*
X420320Y52657D01*
X420268Y52615D01*
X420253Y52601D01*
X420235Y52591D01*
X420216Y52572D01*
X420197Y52563D01*
X420154Y52530D01*
X420145Y52511D01*
X420131Y52497D01*
X420112Y52487D01*
X420060Y52445D01*
X419999Y52384D01*
X419980Y52374D01*
X419957Y52351D01*
X419947Y52332D01*
X419914Y52299D01*
X419867Y52271D01*
X419853Y52256D01*
X419843Y52238D01*
X419716Y52110D01*
X419702Y52106D01*
X419693Y52087D01*
X419650Y52035D01*
X419622Y52007D01*
X419603Y51997D01*
X419556Y51931D01*
X419542Y51926D01*
X419532Y51908D01*
X419514Y51889D01*
X419504Y51870D01*
X419429Y51795D01*
X419391Y51729D01*
X419344Y51681D01*
X419334Y51663D01*
X419268Y51578D01*
X419249Y51559D01*
X419240Y51540D01*
X419179Y51450D01*
X419165Y51436D01*
X419146Y51389D01*
X419108Y51323D01*
X419075Y51300D01*
X419061Y51286D01*
X419037Y51224D01*
X419023Y51210D01*
X419014Y51191D01*
X418985Y51163D01*
X418967Y51116D01*
X418943Y51055D01*
X418910Y51021D01*
X418901Y51003D01*
X418872Y50937D01*
X418825Y50852D01*
X418806Y50833D01*
X418788Y50786D01*
X418755Y50696D01*
X418731Y50673D01*
X418722Y50654D01*
X418693Y50588D01*
X418679Y50527D01*
X418665Y50494D01*
X418646Y50475D01*
X418637Y50456D01*
X418608Y50390D01*
X418599Y50352D01*
X418585Y50300D01*
X418566Y50253D01*
X418524Y50182D01*
X418509Y50131D01*
X418500Y50083D01*
X418491Y50027D01*
X418462Y49952D01*
X418420Y49852D01*
X418410Y49787D01*
X418401Y49749D01*
X418387Y49697D01*
X418359Y49622D01*
X418335Y49541D01*
X418326Y49504D01*
X418312Y49376D01*
X418302Y49329D01*
X418283Y49282D01*
X418260Y49221D01*
X418250Y49183D01*
X418241Y49061D01*
X418231Y48995D01*
X418222Y48900D01*
X418208Y48801D01*
X418180Y48688D01*
X418170Y48641D01*
X418156Y48514D01*
X418147Y48363D01*
X418137Y48071D01*
X418128Y47694D01*
X418137Y46864D01*
X418147Y46836D01*
X418156Y46525D01*
X418165Y46496D01*
X418180Y46407D01*
X418189Y46360D01*
X418203Y46308D01*
X418213Y46242D01*
X418227Y46133D01*
X418236Y46058D01*
X418246Y45954D01*
X418255Y45898D01*
X418264Y45860D01*
X418283Y45813D01*
X418307Y45752D01*
X418316Y45686D01*
X418326Y45648D01*
X418335Y45535D01*
X418344Y45507D01*
X418368Y45445D01*
X418392Y45393D01*
X418401Y45356D01*
X418415Y45266D01*
X418434Y45191D01*
X418472Y45096D01*
X418495Y45035D01*
X418509Y44974D01*
X418519Y44936D01*
X418542Y44875D01*
X418580Y44818D01*
X418594Y44757D01*
X418604Y44710D01*
X418623Y44663D01*
X418637Y44649D01*
X418646Y44630D01*
X418665Y44611D01*
X418684Y44535D01*
X418717Y44446D01*
X418750Y44413D01*
X418759Y44394D01*
X418778Y44347D01*
X418792Y44295D01*
X418839Y44220D01*
X418853Y44205D01*
X418872Y44158D01*
X418929Y44055D01*
X418995Y43932D01*
X419042Y43866D01*
X419066Y43805D01*
X419136Y43734D01*
X419146Y43696D01*
X419188Y43635D01*
X419202Y43630D01*
X419212Y43612D01*
X419231Y43593D01*
X419249Y43546D01*
X419306Y43489D01*
X419363Y43385D01*
X419419Y43338D01*
X419457Y43272D01*
X419495Y43235D01*
X419504Y43216D01*
X419589Y43131D01*
X419598Y43112D01*
X419622Y43079D01*
X419641Y43070D01*
X419683Y43036D01*
X419693Y43018D01*
X419759Y42952D01*
X419768Y42933D01*
X419801Y42890D01*
X419820Y42881D01*
X419872Y42839D01*
X419891Y42820D01*
X419895Y42806D01*
X419914Y42796D01*
X420008Y42702D01*
X420027Y42692D01*
X420103Y42617D01*
X420121Y42608D01*
X420187Y42542D01*
X420206Y42532D01*
X420291Y42466D01*
X420320Y42438D01*
X420338Y42428D01*
X420390Y42386D01*
X420423Y42353D01*
X420489Y42315D01*
X420513Y42292D01*
X420522Y42273D01*
X420602Y42231D01*
X420649Y42183D01*
X420668Y42174D01*
X420734Y42136D01*
X420772Y42098D01*
X420791Y42089D01*
X420895Y42032D01*
X420913Y42014D01*
X420932Y42004D01*
X421055Y41938D01*
X421074Y41919D01*
X421158Y41882D01*
X421243Y41835D01*
X421404Y41750D01*
X421507Y41703D01*
X421569Y41679D01*
X421625Y41641D01*
X421734Y41608D01*
X421894Y41533D01*
X421932Y41523D01*
X422021Y41491D01*
X422035Y41476D01*
X422101Y41448D01*
X422139Y41439D01*
X422229Y41424D01*
X422332Y41377D01*
X422375Y41363D01*
X422441Y41344D01*
X422530Y41330D01*
X422568Y41321D01*
X422620Y41297D01*
X422667Y41278D01*
X422705Y41269D01*
X422818Y41250D01*
X422907Y41236D01*
X422945Y41227D01*
X422997Y41203D01*
X423058Y41189D01*
X423152Y41170D01*
X423237Y41160D01*
X423350Y41151D01*
X423407Y41142D01*
X423454Y41132D01*
X423506Y41118D01*
X423544Y41109D01*
X423633Y41094D01*
X423680Y41085D01*
X423831Y41076D01*
X423991Y41066D01*
X424416Y41047D01*
X425184Y41043D01*
X425212Y41052D01*
X425585Y41066D01*
X425811Y41076D01*
X425896Y41085D01*
X425971Y41094D01*
X426018Y41104D01*
X426098Y41128D01*
X426136Y41137D01*
X426230Y41146D01*
X426268Y41156D01*
X426409Y41165D01*
X426438Y41175D01*
X426541Y41184D01*
X426608Y41222D01*
X426645Y41231D01*
X426763Y41245D01*
X426820Y41255D01*
X426867Y41264D01*
X426904Y41274D01*
X426952Y41293D01*
X427004Y41316D01*
X427079Y41335D01*
X427145Y41344D01*
X427183Y41354D01*
X427253Y41368D01*
X427310Y41406D01*
X427371Y41429D01*
X427475Y41439D01*
X427579Y41495D01*
X427626Y41514D01*
X427739Y41542D01*
X427814Y41589D01*
X427861Y41608D01*
X427923Y41622D01*
X427970Y41641D01*
X428003Y41665D01*
X428022Y41684D01*
X428088Y41703D01*
X428149Y41726D01*
X428163Y41740D01*
X428182Y41750D01*
X428201Y41769D01*
X428333Y41816D01*
X428385Y41858D01*
X428436Y41882D01*
X428521Y41929D01*
X428578Y41967D01*
X428681Y42023D01*
X428710Y42051D01*
X428771Y42075D01*
X428818Y42103D01*
X428828Y42122D01*
X428842Y42136D01*
X428861Y42146D01*
X428946Y42193D01*
X428964Y42221D01*
X428983Y42231D01*
X429068Y42278D01*
X429115Y42325D01*
X429195Y42367D01*
X429205Y42386D01*
X429247Y42428D01*
X429313Y42466D01*
X429370Y42523D01*
X429417Y42551D01*
X429483Y42617D01*
X429502Y42627D01*
X429535Y42650D01*
X429544Y42669D01*
X429586Y42711D01*
X429605Y42721D01*
X429681Y42796D01*
X429700Y42806D01*
X429733Y42839D01*
X429742Y42857D01*
X429766Y42881D01*
X429785Y42890D01*
X429836Y42942D01*
X429846Y42961D01*
X429879Y42985D01*
X429902Y43008D01*
X429912Y43027D01*
X429973Y43088D01*
X429987Y43093D01*
X429997Y43112D01*
X430039Y43164D01*
X430081Y43206D01*
X430110Y43253D01*
X430133Y43277D01*
X430148Y43282D01*
X430157Y43300D01*
X430176Y43319D01*
X430204Y43366D01*
X430251Y43414D01*
X430261Y43432D01*
X430303Y43503D01*
X430322Y43513D01*
X430345Y43536D01*
X430402Y43640D01*
X430449Y43687D01*
X430468Y43734D01*
X430477Y43753D01*
X430520Y43805D01*
X430562Y43885D01*
X430609Y43932D01*
X430647Y44017D01*
X430657Y44036D01*
X430704Y44102D01*
X430723Y44149D01*
X430746Y44210D01*
X430793Y44286D01*
X430826Y44366D01*
X430864Y44432D01*
X430892Y44479D01*
X430911Y44526D01*
X430925Y44587D01*
X430944Y44634D01*
X430987Y44696D01*
X431001Y44757D01*
X431010Y44795D01*
X431029Y44842D01*
X431071Y44913D01*
X431086Y44974D01*
X431095Y45021D01*
X431104Y45059D01*
X431133Y45134D01*
X431156Y45186D01*
X431175Y45252D01*
X431185Y45290D01*
X431199Y45389D01*
X431213Y45422D01*
X431250Y45507D01*
X431265Y45596D01*
X431293Y45766D01*
X431321Y45841D01*
X431335Y45893D01*
X431345Y45931D01*
X431354Y45997D01*
X431378Y46190D01*
X431387Y46294D01*
X431397Y46341D01*
X431415Y46416D01*
X431434Y46529D01*
X431444Y46633D01*
X431453Y46841D01*
X431463Y47076D01*
X431477Y47675D01*
X431467Y47703D01*
X431458Y48278D01*
X431448Y48306D01*
X431439Y48561D01*
X431430Y48589D01*
X431415Y48669D01*
X431397Y48745D01*
X431387Y48792D01*
X431378Y48849D01*
X431368Y48980D01*
X431345Y49174D01*
X431331Y49226D01*
X431302Y49301D01*
X431288Y49353D01*
X431269Y49485D01*
X431255Y49565D01*
X431227Y49640D01*
X431208Y49688D01*
X431199Y49725D01*
X431185Y49777D01*
X431170Y49867D01*
X431161Y49904D01*
X431142Y49952D01*
X431119Y50003D01*
X431100Y50069D01*
X431086Y50131D01*
X431067Y50178D01*
X431024Y50258D01*
X431005Y50324D01*
X430991Y50385D01*
X430944Y50461D01*
X430911Y50541D01*
X430897Y50611D01*
X430864Y50663D01*
X430836Y50710D01*
X430798Y50814D01*
X430756Y50866D01*
X430732Y50918D01*
X430708Y50979D01*
X430675Y51031D01*
X430647Y51059D01*
X430614Y51149D01*
X430581Y51201D01*
X430562Y51220D01*
X430553Y51238D01*
X430492Y51328D01*
X430477Y51342D01*
X430421Y51446D01*
X430383Y51483D01*
X430336Y51568D01*
X430289Y51615D01*
X430280Y51634D01*
X430214Y51719D01*
X430166Y51785D01*
X430157Y51804D01*
X430091Y51870D01*
X430081Y51889D01*
X430063Y51908D01*
X430058Y51922D01*
X430039Y51931D01*
X430006Y51964D01*
X429997Y51983D01*
X429921Y52059D01*
X429893Y52106D01*
X429879Y52120D01*
X429860Y52129D01*
X429775Y52214D01*
X429756Y52224D01*
X429719Y52280D01*
X429700Y52299D01*
X429681Y52308D01*
X429615Y52374D01*
X429596Y52384D01*
X429563Y52407D01*
X429553Y52426D01*
X429511Y52469D01*
X429492Y52478D01*
X429473Y52497D01*
X429455Y52506D01*
X429431Y52539D01*
X429374Y52577D01*
X429323Y52629D01*
X429304Y52638D01*
X429219Y52704D01*
X429191Y52733D01*
X429172Y52742D01*
X429106Y52789D01*
X429077Y52817D01*
X429059Y52827D01*
X428969Y52888D01*
X428955Y52902D01*
X428936Y52912D01*
X428847Y52973D01*
X428823Y52997D01*
X428700Y53063D01*
X428681Y53081D01*
X428663Y53091D01*
X428540Y53157D01*
X428521Y53176D01*
X428380Y53251D01*
X428361Y53270D01*
X428271Y53303D01*
X428238Y53317D01*
X428172Y53364D01*
X428097Y53383D01*
X428036Y53407D01*
X427993Y53449D01*
X427927Y53468D01*
X427890Y53477D01*
X427842Y53496D01*
X427776Y53543D01*
X427710Y53562D01*
X427673Y53572D01*
X427616Y53581D01*
X427550Y53628D01*
X427484Y53647D01*
X427447Y53656D01*
X427366Y53671D01*
X427319Y53689D01*
X427296Y53713D01*
X427249Y53732D01*
X427183Y53741D01*
X427084Y53765D01*
X427008Y53793D01*
X426947Y53817D01*
X426881Y53826D01*
X426843Y53836D01*
X426744Y53850D01*
X426692Y53864D01*
X426541Y53911D01*
X426504Y53920D01*
X426334Y53930D01*
X426306Y53939D01*
X426207Y53953D01*
X426131Y53972D01*
X426080Y53986D01*
X425966Y54005D01*
X425802Y54019D01*
X425556Y54029D01*
X425443Y54038D01*
X425349Y54048D01*
X425236Y54057D01*
X425193Y54062D01*
X425184D01*
X424948Y54071D01*
X424920Y54081D01*
D02*
G37*
G36*
X424939Y139992D02*
X424100Y139983D01*
X424072Y139973D01*
X423921Y139964D01*
X423892Y139954D01*
X423798Y139945D01*
X423760Y139935D01*
X423666Y139926D01*
X423638Y139916D01*
X423572Y139907D01*
X423284Y139883D01*
X423228Y139874D01*
X423152Y139846D01*
X423091Y139822D01*
X423025Y139813D01*
X422874Y139803D01*
X422799Y139784D01*
X422695Y139737D01*
X422658Y139728D01*
X422563Y139719D01*
X422525Y139709D01*
X422469Y139700D01*
X422346Y139643D01*
X422309Y139634D01*
X422243Y139624D01*
X422191Y139610D01*
X422092Y139558D01*
X422026Y139539D01*
X421988Y139530D01*
X421936Y139516D01*
X421880Y139478D01*
X421828Y139454D01*
X421729Y139431D01*
X421682Y139412D01*
X421620Y139370D01*
X421559Y139356D01*
X421512Y139337D01*
X421479Y139313D01*
X421451Y139285D01*
X421357Y139257D01*
X421291Y139219D01*
X421262Y139191D01*
X421144Y139148D01*
X421102Y139106D01*
X421008Y139068D01*
X420989Y139059D01*
X420937Y139016D01*
X420857Y138974D01*
X420805Y138931D01*
X420791Y138917D01*
X420730Y138894D01*
X420678Y138861D01*
X420640Y138823D01*
X420574Y138785D01*
X420527Y138738D01*
X420442Y138691D01*
X420386Y138634D01*
X420338Y138606D01*
X420282Y138549D01*
X420263Y138540D01*
X420211Y138498D01*
X420197Y138474D01*
X420178Y138465D01*
X420159Y138446D01*
X420140Y138436D01*
X420089Y138394D01*
X420046Y138351D01*
X420027Y138342D01*
X419942Y138257D01*
X419924Y138248D01*
X419839Y138163D01*
X419820Y138154D01*
X419777Y138111D01*
X419768Y138092D01*
X419645Y137970D01*
X419636Y137951D01*
X419589Y137904D01*
X419580Y137885D01*
X419523Y137828D01*
X419514Y137809D01*
X419471Y137748D01*
X419452Y137739D01*
X419419Y137706D01*
X419410Y137687D01*
X419367Y137635D01*
X419348Y137626D01*
X419325Y137602D01*
X419268Y137498D01*
X419240Y137470D01*
X419193Y137385D01*
X419169Y137362D01*
X419155Y137357D01*
X419146Y137338D01*
X419108Y137272D01*
X419080Y137244D01*
X419070Y137225D01*
X419014Y137121D01*
X418985Y137093D01*
X418962Y137032D01*
X418948Y136999D01*
X418905Y136947D01*
X418872Y136867D01*
X418849Y136805D01*
X418806Y136763D01*
X418778Y136697D01*
X418764Y136645D01*
X418712Y136574D01*
X418698Y136523D01*
X418689Y136475D01*
X418670Y136428D01*
X418632Y136372D01*
X418608Y136320D01*
X418594Y136259D01*
X418575Y136212D01*
X418524Y136113D01*
X418505Y136037D01*
X418495Y135952D01*
X418448Y135886D01*
X418429Y135820D01*
X418420Y135754D01*
X418410Y135717D01*
X418396Y135655D01*
X418377Y135608D01*
X418344Y135528D01*
X418326Y135396D01*
X418312Y135307D01*
X418302Y135259D01*
X418283Y135212D01*
X418260Y135151D01*
X418250Y135057D01*
X418241Y135019D01*
X418231Y134896D01*
X418222Y134830D01*
X418208Y134722D01*
X418184Y134642D01*
X418165Y134566D01*
X418156Y134416D01*
X418147Y134236D01*
X418137Y134029D01*
X418128Y133737D01*
X418137Y132794D01*
X418147Y132766D01*
X418156Y132483D01*
X418165Y132455D01*
X418180Y132337D01*
X418189Y132299D01*
X418208Y132205D01*
X418227Y132082D01*
X418236Y131988D01*
X418246Y131903D01*
X418264Y131800D01*
X418283Y131752D01*
X418297Y131701D01*
X418307Y131663D01*
X418316Y131597D01*
X418326Y131559D01*
X418340Y131451D01*
X418349Y131413D01*
X418401Y131286D01*
X418439Y131107D01*
X418495Y130984D01*
X418524Y130852D01*
X418571Y130786D01*
X418585Y130734D01*
X418594Y130687D01*
X418604Y130649D01*
X418623Y130602D01*
X418656Y130550D01*
X418684Y130484D01*
X418703Y130409D01*
X418769Y130315D01*
X418778Y130277D01*
X418825Y130192D01*
X418844Y130173D01*
X418863Y130107D01*
X418872Y130070D01*
X418882Y130051D01*
X418915Y130008D01*
X418929Y130004D01*
X418938Y129985D01*
X418967Y129919D01*
X418976Y129890D01*
X419000Y129858D01*
X419019Y129848D01*
X419042Y129824D01*
X419052Y129787D01*
X419089Y129721D01*
X419127Y129683D01*
X419146Y129636D01*
X419174Y129589D01*
X419231Y129532D01*
X419240Y129495D01*
X419306Y129410D01*
X419344Y129344D01*
X419400Y129287D01*
X419410Y129268D01*
X419443Y129226D01*
X419462Y129216D01*
X419485Y129193D01*
X419495Y129174D01*
X419537Y129122D01*
X419608Y129052D01*
X419617Y129033D01*
X419768Y128882D01*
X419777Y128863D01*
X419820Y128820D01*
X419834Y128816D01*
X419843Y128797D01*
X419867Y128773D01*
X419886Y128764D01*
X419980Y128670D01*
X419999Y128660D01*
X420032Y128637D01*
X420041Y128618D01*
X420060Y128599D01*
X420070Y128580D01*
X420103Y128557D01*
X420150Y128509D01*
X420169Y128500D01*
X420220Y128458D01*
X420244Y128425D01*
X420263Y128415D01*
X420348Y128349D01*
X420367Y128330D01*
X420452Y128283D01*
X420499Y128236D01*
X420565Y128198D01*
X420621Y128142D01*
X420687Y128104D01*
X420715Y128076D01*
X420734Y128066D01*
X420800Y128038D01*
X420819Y128029D01*
X420866Y127982D01*
X420913Y127963D01*
X420979Y127925D01*
X421008Y127897D01*
X421026Y127887D01*
X421149Y127821D01*
X421168Y127802D01*
X421187Y127793D01*
X421253Y127765D01*
X421338Y127718D01*
X421357Y127699D01*
X421408Y127684D01*
X421446Y127675D01*
X421493Y127656D01*
X421536Y127614D01*
X421602Y127595D01*
X421677Y127576D01*
X421696Y127557D01*
X421715Y127548D01*
X421743Y127520D01*
X421790Y127501D01*
X421880Y127486D01*
X421927Y127468D01*
X421950Y127444D01*
X422016Y127416D01*
X422082Y127406D01*
X422120Y127397D01*
X422181Y127373D01*
X422205Y127350D01*
X422224Y127340D01*
X422271Y127322D01*
X422393Y127312D01*
X422441Y127293D01*
X422544Y127246D01*
X422658Y127227D01*
X422724Y127218D01*
X422785Y127194D01*
X422865Y127171D01*
X422931Y127152D01*
X422969Y127142D01*
X423124Y127128D01*
X423218Y127109D01*
X423270Y127095D01*
X423336Y127077D01*
X423374Y127067D01*
X423440Y127058D01*
X423534Y127048D01*
X423765Y127034D01*
X423859Y127025D01*
X423916Y127015D01*
X423963Y127006D01*
X424020Y126996D01*
X424147Y126982D01*
X424269Y126973D01*
X424590Y126963D01*
X425391Y126973D01*
X425420Y126982D01*
X425589Y126992D01*
X425618Y127001D01*
X425698Y127015D01*
X425783Y127025D01*
X425830Y127034D01*
X425915Y127044D01*
X426122Y127053D01*
X426207Y127062D01*
X426282Y127081D01*
X426329Y127100D01*
X426367Y127109D01*
X426419Y127124D01*
X426541Y127133D01*
X426608Y127142D01*
X426697Y127157D01*
X426772Y127185D01*
X426834Y127208D01*
X426966Y127227D01*
X427065Y127251D01*
X427173Y127303D01*
X427211Y127312D01*
X427329Y127326D01*
X427376Y127345D01*
X427390Y127359D01*
X427409Y127369D01*
X427428Y127388D01*
X427480Y127402D01*
X427536Y127411D01*
X427583Y127421D01*
X427630Y127439D01*
X427663Y127463D01*
X427729Y127491D01*
X427828Y127515D01*
X427880Y127548D01*
X427899Y127567D01*
X427946Y127585D01*
X428045Y127609D01*
X428078Y127633D01*
X428106Y127661D01*
X428172Y127680D01*
X428234Y127703D01*
X428286Y127755D01*
X428352Y127774D01*
X428413Y127798D01*
X428441Y127816D01*
X428446Y127831D01*
X428465Y127840D01*
X428531Y127868D01*
X428597Y127906D01*
X428625Y127934D01*
X428677Y127949D01*
X428729Y127982D01*
X428743Y127996D01*
X428752Y128014D01*
X428766Y128029D01*
X428814Y128048D01*
X428851Y128057D01*
X428870Y128076D01*
X428889Y128085D01*
X428898Y128104D01*
X428917Y128113D01*
X428983Y128151D01*
X429040Y128208D01*
X429106Y128245D01*
X429162Y128302D01*
X429247Y128349D01*
X429294Y128396D01*
X429313Y128406D01*
X429365Y128448D01*
X429398Y128481D01*
X429445Y128509D01*
X429478Y128542D01*
X429488Y128561D01*
X429502Y128575D01*
X429521Y128585D01*
X429572Y128627D01*
X429582Y128646D01*
X429615Y128670D01*
X429709Y128764D01*
X429728Y128773D01*
X429766Y128811D01*
X429785Y128820D01*
X429799Y128835D01*
X429808Y128854D01*
X429836Y128882D01*
X429846Y128901D01*
X429921Y128976D01*
X429931Y128995D01*
X430100Y129165D01*
X430110Y129184D01*
X430133Y129216D01*
X430152Y129226D01*
X430185Y129259D01*
X430214Y129306D01*
X430251Y129344D01*
X430261Y129363D01*
X430298Y129419D01*
X430308Y129438D01*
X430345Y129476D01*
X430393Y129560D01*
X430440Y129608D01*
X430492Y129707D01*
X430506Y129711D01*
X430515Y129730D01*
X430534Y129749D01*
X430591Y129853D01*
X430628Y129909D01*
X430652Y129971D01*
X430675Y130004D01*
X430694Y130022D01*
X430704Y130041D01*
X430732Y130107D01*
X430741Y130126D01*
X430788Y130192D01*
X430807Y130239D01*
X430821Y130291D01*
X430840Y130338D01*
X430854Y130352D01*
X430864Y130371D01*
X430902Y130456D01*
X430911Y130494D01*
X430968Y130598D01*
X430996Y130664D01*
X431015Y130739D01*
X431038Y130800D01*
X431053Y130814D01*
X431062Y130833D01*
X431081Y130880D01*
X431090Y130946D01*
X431100Y130984D01*
X431156Y131107D01*
X431175Y131182D01*
X431199Y131319D01*
X431217Y131366D01*
X431250Y131446D01*
X431260Y131484D01*
X431279Y131644D01*
X431288Y131682D01*
X431298Y131738D01*
X431326Y131804D01*
X431345Y131870D01*
X431364Y132002D01*
X431397Y132280D01*
X431411Y132332D01*
X431439Y132530D01*
X431448Y132681D01*
X431458Y132917D01*
X431467Y132983D01*
X431458Y134189D01*
X431448Y134218D01*
X431439Y134482D01*
X431430Y134510D01*
X431415Y134618D01*
X431406Y134656D01*
X431392Y134708D01*
X431382Y134746D01*
X431373Y134868D01*
X431349Y135052D01*
X431340Y135108D01*
X431331Y135156D01*
X431312Y135203D01*
X431288Y135264D01*
X431274Y135391D01*
X431255Y135495D01*
X431246Y135533D01*
X431203Y135632D01*
X431194Y135669D01*
X431185Y135736D01*
X431175Y135773D01*
X431161Y135835D01*
X431142Y135882D01*
X431100Y135952D01*
X431086Y136070D01*
X431067Y136117D01*
X431005Y136235D01*
X430991Y136306D01*
X430972Y136353D01*
X430949Y136386D01*
X430911Y136471D01*
X430897Y136532D01*
X430878Y136579D01*
X430845Y136612D01*
X430826Y136659D01*
X430817Y136697D01*
X430770Y136782D01*
X430751Y136801D01*
X430732Y136848D01*
X430708Y136909D01*
X430671Y136966D01*
X430657Y136980D01*
X430628Y137046D01*
X430619Y137065D01*
X430576Y137117D01*
X430520Y137230D01*
X430501Y137258D01*
X430487Y137263D01*
X430477Y137282D01*
X430430Y137366D01*
X430383Y137414D01*
X430336Y137498D01*
X430298Y137536D01*
X430289Y137555D01*
X430270Y137574D01*
X430261Y137593D01*
X430218Y137645D01*
X430204Y137659D01*
X430195Y137677D01*
X430152Y137729D01*
X430119Y137762D01*
X430110Y137781D01*
X430048Y137861D01*
X430030Y137871D01*
X430015Y137885D01*
X430006Y137904D01*
X429987Y137923D01*
X429978Y137942D01*
X429883Y138036D01*
X429874Y138055D01*
X429860Y138069D01*
X429841Y138078D01*
X429799Y138121D01*
X429794Y138135D01*
X429775Y138144D01*
X429714Y138205D01*
X429704Y138224D01*
X429671Y138257D01*
X429605Y138295D01*
X429473Y138427D01*
X429455Y138436D01*
X429436Y138455D01*
X429417Y138465D01*
X429341Y138540D01*
X429294Y138568D01*
X429238Y138625D01*
X429191Y138653D01*
X429134Y138710D01*
X429073Y138733D01*
X429021Y138785D01*
X429002Y138795D01*
X428983Y138813D01*
X428917Y138851D01*
X428889Y138879D01*
X428823Y138908D01*
X428757Y138946D01*
X428738Y138974D01*
X428719Y138983D01*
X428634Y139030D01*
X428597Y139068D01*
X428507Y139101D01*
X428418Y139162D01*
X428314Y139200D01*
X428286Y139228D01*
X428267Y139238D01*
X428201Y139266D01*
X428163Y139275D01*
X428111Y139318D01*
X428088Y139341D01*
X428026Y139356D01*
X427979Y139365D01*
X427932Y139384D01*
X427899Y139417D01*
X427852Y139436D01*
X427753Y139459D01*
X427701Y139492D01*
X427645Y139530D01*
X427508Y139553D01*
X427432Y139601D01*
X427352Y139624D01*
X427263Y139638D01*
X427225Y139648D01*
X427098Y139700D01*
X427060Y139709D01*
X426994Y139719D01*
X426914Y139733D01*
X426838Y139761D01*
X426824Y139775D01*
X426787Y139784D01*
X426721Y139803D01*
X426560Y139813D01*
X426551D01*
X426523Y139822D01*
X426485Y139832D01*
X426424Y139846D01*
X426362Y139869D01*
X426287Y139888D01*
X426108Y139898D01*
X426014Y139907D01*
X425976Y139916D01*
X425886Y139931D01*
X425839Y139940D01*
X425764Y139950D01*
X425552Y139973D01*
X425457Y139983D01*
X424939Y139992D01*
D02*
G37*
%LPD*%
D10*
X222091Y-18577D02*
G03*
X223091Y-18577I500J0D01*
G01*
D02*
G03*
X222091Y-18577I-500J0D01*
G01*
D11*
X621310Y29576D02*
G03*
X621310Y29577I-2J0D01*
G01*
Y31227D02*
G03*
X631310Y41227I0J10000D01*
G01*
D02*
G03*
X621310Y51227I-10000J0D01*
G01*
X622809Y75926D02*
G03*
X632810Y85927I0J10001D01*
G01*
D02*
G03*
X622811Y95926I-9999J0D01*
G01*
X76732Y98642D02*
G03*
X76732Y98642I-1000J0D01*
G01*
X236201Y13203D02*
Y23203D01*
X350701D01*
Y13203D02*
Y23203D01*
Y-24797D02*
Y-14797D01*
X235701Y-24797D02*
X350701D01*
X235701D02*
Y-14797D01*
X616047Y29576D02*
X621310D01*
X621310Y29577D02*
Y31227D01*
Y51227D02*
Y75926D01*
X622809D01*
X621310Y95926D02*
X622811D01*
X621310D02*
Y97576D01*
X616047D02*
X621310D01*
X30632Y19092D02*
X48382D01*
X30632Y109592D02*
X48382D01*
X355959Y58916D02*
Y89916D01*
X267959Y58916D02*
Y89916D01*
X151378Y115935D02*
X182378D01*
X151378Y27935D02*
X182378D01*
X589903Y12036D02*
Y22536D01*
X572903Y12036D02*
Y22536D01*
X102733Y69173D02*
X104733D01*
X102733Y55673D02*
X104733D01*
X533852Y2830D02*
Y66830D01*
X446252D02*
X533852D01*
X446252Y2830D02*
Y66830D01*
Y2830D02*
X533852D01*
X535500Y106433D02*
Y108433D01*
X522000Y106433D02*
Y108433D01*
X490802Y106386D02*
Y108386D01*
X504302Y106386D02*
Y108386D01*
X470515Y106324D02*
Y108324D01*
X484015Y106324D02*
Y108324D01*
X443068Y106301D02*
Y108301D01*
X456568Y106301D02*
Y108301D01*
X102733Y49018D02*
X104733D01*
X102733Y35518D02*
X104733D01*
D12*
X599009Y27254D02*
G03*
X599009Y27254I-1250J0D01*
G01*
X266609Y47416D02*
G03*
X266609Y47416I-1250J0D01*
G01*
X195128Y25335D02*
G03*
X195128Y25335I-1250J0D01*
G01*
X300291Y132348D02*
G03*
X300291Y132348I-1250J0D01*
G01*
X516602Y92580D02*
G03*
X516602Y92580I-1250J0D01*
G01*
D13*
X354670Y31151D02*
X361441Y20994D01*
Y31151D02*
X354670Y20994D01*
X364827D02*
X368213D01*
X366520D01*
Y31151D01*
X364827Y29458D01*
X539086Y60850D02*
X542472D01*
X540779D01*
Y50693D01*
X539086D01*
X542472D01*
X547550D02*
Y60850D01*
X552629D01*
X554321Y59157D01*
Y55771D01*
X552629Y54079D01*
X547550D01*
X550936D02*
X554321Y50693D01*
X557707Y60850D02*
X564478Y50693D01*
Y60850D02*
X557707Y50693D01*
X298115Y141721D02*
Y151878D01*
X303193D01*
X304886Y150185D01*
Y146800D01*
X303193Y145107D01*
X298115D01*
X301500D02*
X304886Y141721D01*
X308272D02*
X311657D01*
X309964D01*
Y151878D01*
X308272Y150185D01*
X316736Y141721D02*
X320121D01*
X318428D01*
Y151878D01*
X316736Y150185D01*
X207635Y34776D02*
Y44933D01*
X212713D01*
X214406Y43240D01*
Y39855D01*
X212713Y38162D01*
X207635D01*
X211020D02*
X214406Y34776D01*
X217792D02*
X221177D01*
X219484D01*
Y44933D01*
X217792Y43240D01*
X226255D02*
X227948Y44933D01*
X231334D01*
X233027Y43240D01*
Y41548D01*
X231334Y39855D01*
X233027Y38162D01*
Y36469D01*
X231334Y34776D01*
X227948D01*
X226255Y36469D01*
Y38162D01*
X227948Y39855D01*
X226255Y41548D01*
Y43240D01*
X227948Y39855D02*
X231334D01*
X469731Y36610D02*
X459574D01*
Y41688D01*
X461267Y43381D01*
X464652D01*
X466345Y41688D01*
Y36610D01*
Y39995D02*
X469731Y43381D01*
Y46767D02*
Y50152D01*
Y48459D01*
X459574D01*
X461267Y46767D01*
X459574Y55230D02*
Y62002D01*
X461267D01*
X468038Y55230D01*
X469731D01*
X117347Y141299D02*
X115654Y139607D01*
Y136221D01*
X117347Y134528D01*
X124118D01*
X125811Y136221D01*
Y139607D01*
X124118Y141299D01*
X117347Y144685D02*
X115654Y146378D01*
Y149763D01*
X117347Y151456D01*
X119040D01*
X120733Y149763D01*
X122426Y151456D01*
X124118D01*
X125811Y149763D01*
Y146378D01*
X124118Y144685D01*
X122426D01*
X120733Y146378D01*
X119040Y144685D01*
X117347D01*
X120733Y146378D02*
Y149763D01*
X495131Y36252D02*
X484974D01*
Y41330D01*
X486667Y43023D01*
X490052D01*
X491745Y41330D01*
Y36252D01*
Y39637D02*
X495131Y43023D01*
Y46408D02*
Y49794D01*
Y48101D01*
X484974D01*
X486667Y46408D01*
X484974Y61643D02*
X486667Y58258D01*
X490052Y54872D01*
X493438D01*
X495131Y56565D01*
Y59951D01*
X493438Y61643D01*
X491745D01*
X490052Y59951D01*
Y54872D01*
X174583Y3281D02*
X172890Y4974D01*
X169505D01*
X167812Y3281D01*
Y-3490D01*
X169505Y-5183D01*
X172890D01*
X174583Y-3490D01*
X184740Y4974D02*
X177969D01*
Y-105D01*
X181354Y1588D01*
X183047D01*
X184740Y-105D01*
Y-3490D01*
X183047Y-5183D01*
X179662D01*
X177969Y-3490D01*
X375533Y17245D02*
X378918D01*
X377225D01*
Y7088D01*
X375533D01*
X378918D01*
X383997Y17245D02*
X390768D01*
X387382D01*
Y7088D01*
X394153Y17245D02*
X400924Y7088D01*
Y17245D02*
X394153Y7088D01*
X520531Y36387D02*
X510374D01*
Y41465D01*
X512067Y43158D01*
X515452D01*
X517145Y41465D01*
Y36387D01*
Y39773D02*
X520531Y43158D01*
Y46544D02*
Y49929D01*
Y48237D01*
X510374D01*
X512067Y46544D01*
X510374Y61779D02*
Y55008D01*
X515452D01*
X513759Y58393D01*
Y60086D01*
X515452Y61779D01*
X518838D01*
X520531Y60086D01*
Y56701D01*
X518838Y55008D01*
X206553Y104397D02*
Y114554D01*
X211631D01*
X213324Y112861D01*
Y109476D01*
X211631Y107783D01*
X206553D01*
X209938D02*
X213324Y104397D01*
X216709D02*
X220095D01*
X218402D01*
Y114554D01*
X216709Y112861D01*
X230252Y104397D02*
Y114554D01*
X225173Y109476D01*
X231945D01*
X176280Y139267D02*
Y149423D01*
X181359D01*
X183051Y147731D01*
Y144345D01*
X181359Y142652D01*
X176280D01*
X179666D02*
X183051Y139267D01*
X186437D02*
X189822D01*
X188130D01*
Y149423D01*
X186437Y147731D01*
X194901D02*
X196594Y149423D01*
X199979D01*
X201672Y147731D01*
Y146038D01*
X199979Y144345D01*
X198286D01*
X199979D01*
X201672Y142652D01*
Y140959D01*
X199979Y139267D01*
X196594D01*
X194901Y140959D01*
X553664Y69120D02*
X543507D01*
Y74198D01*
X545200Y75891D01*
X548586D01*
X550279Y74198D01*
Y69120D01*
Y72505D02*
X553664Y75891D01*
Y79277D02*
Y82662D01*
Y80969D01*
X543507D01*
X545200Y79277D01*
X553664Y94512D02*
Y87741D01*
X546893Y94512D01*
X545200D01*
X543507Y92819D01*
Y89433D01*
X545200Y87741D01*
X584000Y55635D02*
X582307Y53943D01*
Y50557D01*
X584000Y48864D01*
X590771D01*
X592464Y50557D01*
Y53943D01*
X590771Y55635D01*
X582307Y59021D02*
Y65792D01*
X584000D01*
X590771Y59021D01*
X592464D01*
X238951Y56934D02*
X237259Y55241D01*
Y51856D01*
X238951Y50163D01*
X245723D01*
X247415Y51856D01*
Y55241D01*
X245723Y56934D01*
X237259Y67091D02*
X238951Y63705D01*
X242337Y60320D01*
X245723D01*
X247415Y62013D01*
Y65398D01*
X245723Y67091D01*
X244030D01*
X242337Y65398D01*
Y60320D01*
X305188Y137426D02*
Y127269D01*
X310266D01*
X311959Y128962D01*
Y135733D01*
X310266Y137426D01*
X305188D01*
X315345Y127269D02*
X318730D01*
X317037D01*
Y137426D01*
X315345Y135733D01*
X604963Y25067D02*
Y16603D01*
X606656Y14910D01*
X610042D01*
X611734Y16603D01*
Y25067D01*
X615120Y23374D02*
X616813Y25067D01*
X620198D01*
X621891Y23374D01*
Y21681D01*
X620198Y19988D01*
X618506D01*
X620198D01*
X621891Y18296D01*
Y16603D01*
X620198Y14910D01*
X616813D01*
X615120Y16603D01*
X357270Y106029D02*
X365734D01*
X367426Y107722D01*
Y111107D01*
X365734Y112800D01*
X357270D01*
X367426Y122956D02*
Y116185D01*
X360655Y122956D01*
X358963D01*
X357270Y121264D01*
Y117878D01*
X358963Y116185D01*
X179607Y132078D02*
Y123614D01*
X181300Y121921D01*
X184685D01*
X186378Y123614D01*
Y132078D01*
X189764Y121921D02*
X193149D01*
X191456D01*
Y132078D01*
X189764Y130385D01*
X334097Y151925D02*
X332404Y153617D01*
X329019D01*
X327326Y151925D01*
Y145154D01*
X329019Y143461D01*
X332404D01*
X334097Y145154D01*
Y148539D01*
X330711D01*
X337482Y143461D02*
Y153617D01*
X344254Y143461D01*
Y153617D01*
X347639D02*
Y143461D01*
X352718D01*
X354410Y145154D01*
Y151925D01*
X352718Y153617D01*
X347639D01*
X247361Y151600D02*
X240590D01*
Y146522D01*
X243975Y148215D01*
X245668D01*
X247361Y146522D01*
Y143136D01*
X245668Y141443D01*
X242282D01*
X240590Y143136D01*
X250746Y151600D02*
Y144829D01*
X254132Y141443D01*
X257517Y144829D01*
Y151600D01*
X446432Y-18037D02*
X444740Y-19730D01*
Y-23115D01*
X446432Y-24808D01*
X448125D01*
X449818Y-23115D01*
Y-19730D01*
X451511Y-18037D01*
X453204D01*
X454896Y-19730D01*
Y-23115D01*
X453204Y-24808D01*
X444740Y-14651D02*
X454896D01*
X451511Y-11266D01*
X454896Y-7880D01*
X444740D01*
X454896Y-4495D02*
Y-1109D01*
Y-2802D01*
X444740D01*
X446432Y-4495D01*
X91236Y73523D02*
Y83680D01*
X96314D01*
X98007Y81987D01*
Y78601D01*
X96314Y76909D01*
X91236D01*
X94621D02*
X98007Y73523D01*
X101393D02*
X104778D01*
X103085D01*
Y83680D01*
X101393Y81987D01*
X109857D02*
X111549Y83680D01*
X114935D01*
X116628Y81987D01*
Y75216D01*
X114935Y73523D01*
X111549D01*
X109857Y75216D01*
Y81987D01*
X78482Y21589D02*
Y31746D01*
X83560D01*
X85253Y30053D01*
Y26667D01*
X83560Y24975D01*
X78482D01*
X81868D02*
X85253Y21589D01*
X88639Y23282D02*
X90332Y21589D01*
X93717D01*
X95410Y23282D01*
Y30053D01*
X93717Y31746D01*
X90332D01*
X88639Y30053D01*
Y28360D01*
X90332Y26667D01*
X95410D01*
X386756Y99029D02*
Y109186D01*
X391834D01*
X393527Y107493D01*
Y104107D01*
X391834Y102415D01*
X386756D01*
X390141D02*
X393527Y99029D01*
X396913Y107493D02*
X398605Y109186D01*
X401991D01*
X403684Y107493D01*
Y105800D01*
X401991Y104107D01*
X403684Y102415D01*
Y100722D01*
X401991Y99029D01*
X398605D01*
X396913Y100722D01*
Y102415D01*
X398605Y104107D01*
X396913Y105800D01*
Y107493D01*
X398605Y104107D02*
X401991D01*
X383806Y53768D02*
Y63925D01*
X388884D01*
X390577Y62232D01*
Y58846D01*
X388884Y57153D01*
X383806D01*
X387191D02*
X390577Y53768D01*
X393962Y63925D02*
X400733D01*
Y62232D01*
X393962Y55461D01*
Y53768D01*
X378984Y122583D02*
Y132739D01*
X384062D01*
X385755Y131047D01*
Y127661D01*
X384062Y125968D01*
X378984D01*
X382369D02*
X385755Y122583D01*
X395912Y132739D02*
X392526Y131047D01*
X389141Y127661D01*
Y124275D01*
X390833Y122583D01*
X394219D01*
X395912Y124275D01*
Y125968D01*
X394219Y127661D01*
X389141D01*
X454896Y125234D02*
X444740D01*
Y130313D01*
X446432Y132005D01*
X449818D01*
X451511Y130313D01*
Y125234D01*
Y128620D02*
X454896Y132005D01*
X444740Y142162D02*
Y135391D01*
X449818D01*
X448125Y138777D01*
Y140469D01*
X449818Y142162D01*
X453204D01*
X454896Y140469D01*
Y137084D01*
X453204Y135391D01*
X482278Y125224D02*
X472121D01*
Y130302D01*
X473814Y131995D01*
X477199D01*
X478892Y130302D01*
Y125224D01*
Y128609D02*
X482278Y131995D01*
Y140459D02*
X472121D01*
X477199Y135380D01*
Y142151D01*
X502631Y125260D02*
X492474D01*
Y130338D01*
X494167Y132031D01*
X497552D01*
X499245Y130338D01*
Y125260D01*
Y128645D02*
X502631Y132031D01*
X494167Y135417D02*
X492474Y137109D01*
Y140495D01*
X494167Y142188D01*
X495859D01*
X497552Y140495D01*
Y138802D01*
Y140495D01*
X499245Y142188D01*
X500938D01*
X502631Y140495D01*
Y137109D01*
X500938Y135417D01*
X533805Y124946D02*
X523648D01*
Y130024D01*
X525341Y131717D01*
X528726D01*
X530419Y130024D01*
Y124946D01*
Y128332D02*
X533805Y131717D01*
Y141874D02*
Y135103D01*
X527034Y141874D01*
X525341D01*
X523648Y140181D01*
Y136796D01*
X525341Y135103D01*
X568227Y9200D02*
X558070D01*
Y14278D01*
X559763Y15971D01*
X563149D01*
X564841Y14278D01*
Y9200D01*
Y12585D02*
X568227Y15971D01*
Y19356D02*
Y22742D01*
Y21049D01*
X558070D01*
X559763Y19356D01*
X94916Y127662D02*
X93223Y125969D01*
Y122584D01*
X94916Y120891D01*
X101687D01*
X103380Y122584D01*
Y125969D01*
X101687Y127662D01*
X103380Y136126D02*
X93223D01*
X98302Y131048D01*
Y137819D01*
X326406Y35236D02*
X324713Y36929D01*
X321327D01*
X319634Y35236D01*
Y28465D01*
X321327Y26772D01*
X324713D01*
X326406Y28465D01*
X329791Y35236D02*
X331484Y36929D01*
X334869D01*
X336562Y35236D01*
Y33544D01*
X334869Y31851D01*
X333177D01*
X334869D01*
X336562Y30158D01*
Y28465D01*
X334869Y26772D01*
X331484D01*
X329791Y28465D01*
X252561Y35720D02*
X250868Y37413D01*
X247483D01*
X245790Y35720D01*
Y28949D01*
X247483Y27256D01*
X250868D01*
X252561Y28949D01*
X262718Y27256D02*
X255947D01*
X262718Y34028D01*
Y35720D01*
X261025Y37413D01*
X257640D01*
X255947Y35720D01*
X611757Y-16285D02*
X610064Y-14592D01*
X606679D01*
X604986Y-16285D01*
Y-23056D01*
X606679Y-24749D01*
X610064D01*
X611757Y-23056D01*
X615143Y-24749D02*
X618528D01*
X616836D01*
Y-14592D01*
X615143Y-16285D01*
D14*
X234602Y122379D02*
Y113915D01*
X236295Y112222D01*
X239680D01*
X241373Y113915D01*
Y122379D01*
X244759D02*
X251530D01*
X248144D01*
Y112222D01*
X254915Y122379D02*
X261686Y112222D01*
Y122379D02*
X254915Y112222D01*
X206788Y75989D02*
Y67525D01*
X208481Y65832D01*
X211867D01*
X213559Y67525D01*
Y75989D01*
X216945Y65832D02*
Y75989D01*
X222024D01*
X223716Y74296D01*
Y70911D01*
X222024Y69218D01*
X216945D01*
X220331D02*
X223716Y65832D01*
X227102Y75989D02*
X233873Y65832D01*
Y75989D02*
X227102Y65832D01*
X78482Y128828D02*
X75097D01*
X76789D01*
Y120364D01*
X75097Y118672D01*
X73404D01*
X71711Y120364D01*
X81868Y118672D02*
X85253D01*
X83561D01*
Y128828D01*
X81868Y127136D01*
D15*
X627380Y145724D02*
G03*
X614680Y158424I-12700J0D01*
G01*
Y-31780D02*
G03*
X627380Y-19080I0J12700D01*
G01*
X86299Y-22800D02*
G03*
X107979Y-31780I21680J21680D01*
G01*
X107624Y158424D02*
G03*
X85943Y149443I0J-30661D01*
G01*
X63500Y-1D02*
G03*
X63500Y-0I0J0D01*
G01*
X63500Y-1D02*
G03*
X63500Y-0I0J0D01*
G01*
X-5080Y12700D02*
G03*
X7620Y0I12700J0D01*
G01*
Y127000D02*
G03*
X-5080Y114300I0J-12700D01*
G01*
X63500Y127000D02*
G03*
X63500Y127000I0J0D01*
G01*
X203110Y-31780D02*
X590505D01*
X193350Y158424D02*
X614680D01*
X590505Y-31780D02*
X614680D01*
X627380Y-19080D02*
Y145724D01*
X107979Y-31780D02*
X203110D01*
X63500Y-0D02*
X86299Y-22800D01*
X107624Y158424D02*
X193350D01*
X63500Y127000D02*
X85943Y149443D01*
X7620Y0D02*
X63500D01*
X-5080Y12700D02*
Y114300D01*
X7620Y127000D02*
X63500D01*
M02*
