G04*
G04 #@! TF.GenerationSoftware,Altium Limited,Altium Designer,22.6.1 (34)*
G04*
G04 Layer_Physical_Order=3*
G04 Layer_Color=128*
%FSLAX44Y44*%
%MOMM*%
G71*
G04*
G04 #@! TF.SameCoordinates,26C179CA-CC13-4C43-A1D0-6E6A4FA8EE50*
G04*
G04*
G04 #@! TF.FilePolarity,Negative*
G04*
G01*
G75*
%ADD15C,0.2540*%
%ADD66C,0.5080*%
%ADD67C,1.3716*%
%ADD68O,1.2700X1.6002*%
%ADD72C,3.6830*%
%ADD73C,0.9620*%
%AMTHOVALD75*
21,1,1.2954,2.2352,0,0,360.0*
1,1,2.2352,-0.6477,0.0000*
1,1,2.2352,0.6477,0.0000*
21,0,1.2954,1.7272,0,0,360.0*
1,0,1.7272,-0.6477,0.0000*
1,0,1.7272,0.6477,0.0000*
4,0,4,-0.5579,-0.0898,-1.3482,-0.8801,-1.5278,-0.7005,-0.7375,0.0898,-0.5579,-0.0898,0.0*
4,0,4,0.7375,-0.0898,1.5278,0.7005,1.3482,0.8801,0.5579,0.0898,0.7375,-0.0898,0.0*
4,0,4,-0.7375,-0.0898,-1.5278,0.7005,-1.3482,0.8801,-0.5579,0.0898,-0.7375,-0.0898,0.0*
4,0,4,0.5579,-0.0898,1.3482,-0.8801,1.5278,-0.7005,0.7375,0.0898,0.5579,-0.0898,0.0*
%
%ADD75THOVALD75*%

%AMTHOVALD76*
21,1,1.2954,2.1336,0,0,360.0*
1,1,2.1336,-0.6477,0.0000*
1,1,2.1336,0.6477,0.0000*
21,0,1.2954,1.6256,0,0,360.0*
1,0,1.6256,-0.6477,0.0000*
1,0,1.6256,0.6477,0.0000*
4,0,4,-0.5579,-0.0898,-1.3122,-0.8441,-1.4918,-0.6645,-0.7375,0.0898,-0.5579,-0.0898,0.0*
4,0,4,0.7375,-0.0898,1.4918,0.6645,1.3122,0.8441,0.5579,0.0898,0.7375,-0.0898,0.0*
4,0,4,-0.7375,-0.0898,-1.4918,0.6645,-1.3122,0.8441,-0.5579,0.0898,-0.7375,-0.0898,0.0*
4,0,4,0.5579,-0.0898,1.3122,-0.8441,1.4918,-0.6645,0.7375,0.0898,0.5579,-0.0898,0.0*
%
%ADD76THOVALD76*%

%AMTHOVALD77*
21,1,0.4572,2.2352,0,0,270.0*
1,1,2.2352,0.0000,0.2286*
1,1,2.2352,0.0000,-0.2286*
21,0,0.4572,1.7272,0,0,270.0*
1,0,1.7272,0.0000,0.2286*
1,0,1.7272,0.0000,-0.2286*
4,0,4,-0.0898,0.1388,-0.8801,0.9291,-0.7005,1.1087,0.0898,0.3184,-0.0898,0.1388,0.0*
4,0,4,-0.0898,-0.3184,0.7005,-1.1087,0.8801,-0.9291,0.0898,-0.1388,-0.0898,-0.3184,0.0*
4,0,4,-0.0898,0.3184,0.7005,1.1087,0.8801,0.9291,0.0898,0.1388,-0.0898,0.3184,0.0*
4,0,4,-0.0898,-0.1388,-0.8801,-0.9291,-0.7005,-1.1087,0.0898,-0.3184,-0.0898,-0.1388,0.0*
%
%ADD77THOVALD77*%

%AMTHOVALD78*
21,1,0.4572,2.2352,0,0,90.0*
1,1,2.2352,0.0000,-0.2286*
1,1,2.2352,0.0000,0.2286*
21,0,0.4572,1.7272,0,0,90.0*
1,0,1.7272,0.0000,-0.2286*
1,0,1.7272,0.0000,0.2286*
4,0,4,0.0898,-0.1388,0.8801,-0.9291,0.7005,-1.1087,-0.0898,-0.3184,0.0898,-0.1388,0.0*
4,0,4,0.0898,0.3184,-0.7005,1.1087,-0.8801,0.9291,-0.0898,0.1388,0.0898,0.3184,0.0*
4,0,4,0.0898,-0.3184,-0.7005,-1.1087,-0.8801,-0.9291,-0.0898,-0.1388,0.0898,-0.3184,0.0*
4,0,4,0.0898,0.1388,0.8801,0.9291,0.7005,1.1087,-0.0898,0.3184,0.0898,0.1388,0.0*
%
%ADD78THOVALD78*%

D15*
X627380Y145724D02*
G03*
X614680Y158424I-12700J0D01*
G01*
Y-31780D02*
G03*
X627380Y-19080I0J12700D01*
G01*
X86299Y-22800D02*
G03*
X107979Y-31780I21680J21680D01*
G01*
X107624Y158424D02*
G03*
X85943Y149443I0J-30661D01*
G01*
X63500Y-1D02*
G03*
X63500Y-0I0J0D01*
G01*
X63500Y-1D02*
G03*
X63500Y-0I0J0D01*
G01*
X-5080Y12700D02*
G03*
X7620Y0I12700J0D01*
G01*
Y127000D02*
G03*
X-5080Y114300I0J-12700D01*
G01*
X63500Y127000D02*
G03*
X63500Y127000I0J0D01*
G01*
X203110Y-31780D02*
X590505D01*
X193350Y158424D02*
X614680D01*
X590505Y-31780D02*
X614680D01*
X627380Y-19080D02*
Y145724D01*
X107979Y-31780D02*
X203110D01*
X63500Y-0D02*
X86299Y-22800D01*
X107624Y158424D02*
X193350D01*
X63500Y127000D02*
X85943Y149443D01*
X7620Y0D02*
X63500D01*
X-5080Y12700D02*
Y114300D01*
X7620Y127000D02*
X63500D01*
D66*
X107624Y158424D02*
G03*
X85943Y149443I-0J-30660D01*
G01*
X627380Y145724D02*
G03*
X614680Y158424I-12700J0D01*
G01*
Y-31780D02*
G03*
X627380Y-19080I0J12700D01*
G01*
X86299Y-22800D02*
G03*
X107979Y-31780I21680J21680D01*
G01*
X-5080Y12700D02*
G03*
X7620Y0I12700J0D01*
G01*
Y127000D02*
G03*
X-5080Y114300I0J-12700D01*
G01*
X63500Y127000D02*
X85943Y149443D01*
X107624Y158424D02*
X614680D01*
X627380Y-19080D02*
Y145724D01*
X107979Y-31780D02*
X614680D01*
X63500Y0D02*
X86299Y-22800D01*
X-5080Y12700D02*
Y114300D01*
X7620Y127000D02*
X63500D01*
X7620Y0D02*
X63500D01*
D67*
X43882Y100342D02*
D03*
D68*
X44532Y28342D02*
D03*
D72*
X108733Y1062D02*
D03*
X569506Y126827D02*
D03*
D73*
X608329Y-19080D02*
D03*
X409836Y43192D02*
D03*
X410384Y88458D02*
D03*
X409471Y142122D02*
D03*
X186173Y13531D02*
D03*
X62577Y57889D02*
D03*
X557410Y55633D02*
D03*
X61038Y68359D02*
D03*
X62567Y50346D02*
D03*
X83914Y65471D02*
D03*
X80750Y60509D02*
D03*
X193190Y143881D02*
D03*
X94233Y80592D02*
D03*
X197866Y123499D02*
D03*
X559207Y45082D02*
D03*
X548193Y88609D02*
D03*
X373291Y43282D02*
D03*
X514005Y97653D02*
D03*
X490085Y-21553D02*
D03*
X463581Y105634D02*
D03*
X401690Y25564D02*
D03*
X328098Y31851D02*
D03*
X340500Y32498D02*
D03*
X348368Y114493D02*
D03*
X286512Y114032D02*
D03*
X359918Y142604D02*
D03*
X240713Y56197D02*
D03*
X364938Y97203D02*
D03*
X263863Y131367D02*
D03*
X238912Y88732D02*
D03*
X299063Y123750D02*
D03*
X112285Y95012D02*
D03*
X82296Y49018D02*
D03*
D75*
X13382Y107542D02*
D03*
Y21142D02*
D03*
D76*
X63882D02*
D03*
Y107542D02*
D03*
D77*
X57405Y24190D02*
D03*
D78*
Y104494D02*
D03*
M02*
