M48
;Layer_Color=9474304
;FILE_FORMAT=4:4
METRIC,TZ
;TYPE=PLATED
T1F00S00C0.1500
T2F00S00C0.2000
T5F00S00C2.9210
;TYPE=NON_PLATED
T7F00S00C0.6096
%
T01
X244391Y70454
X234457Y123914
X234570Y144526
T02
X41283Y12092
X62567Y50346
X62577Y57889
X80750Y60509
X83914Y65471
X82296Y49018
X81708Y35592
X147378Y13047
X186173Y13531
X240713Y56197
X268885Y31851
X314247Y31905
X328098Y31851
X340500Y32498
X373291Y43282
X409836Y43192
X401690Y25564
X490085Y-21553
X569080Y-24300
X608329Y-19080
X559207Y45082
X557410Y55633
X548193Y88609
X574555Y89254
X514005Y97653
Y116886
X463399Y116777
X463581Y105634
X410384Y88458
X364938Y97203
X348368Y114493
X359918Y142604
X324649Y133168
X299063Y123750
X286512Y114032
X263863Y131367
X264396Y147078
X193190Y143881
X197866Y123499
X238912Y88732
X112285Y95012
X94233Y80592
X120733Y137281
X409471Y142122
X85943Y109316
X42524Y116262
X61038Y68359
T05
X108733Y1062
X569506Y126827
T07
X43882Y100342
M30
